Kanz-al-Marjaan-Regular.ufo
<glyph name="exclam" format="2">
  <advance width="378"/>
  <unicode hex="0021"/>
  <outline>
    <contour>
      <point x="6" y="932" type="curve" smooth="yes"/>
      <point x="5.10795" y="938.244"/>
      <point x="4.4476" y="944.867"/>
      <point x="3" y="955" type="curve"/>
      <point x="3" y="965" type="line"/>
      <point x="0" y="995" type="line"/>
      <point x="0" y="1105" type="line"/>
      <point x="1" y="1107" type="line"/>
      <point x="1" y="1113" type="line"/>
      <point x="2" y="1127" type="line"/>
      <point x="5" y="1147" type="line" smooth="yes"/>
      <point x="6.33333" y="1151"/>
      <point x="7.33333" y="1156"/>
      <point x="8" y="1162" type="curve" smooth="yes"/>
      <point x="16" y="1192" type="line"/>
      <point x="20" y="1204" type="line" smooth="yes"/>
      <point x="22" y="1208.67"/>
      <point x="24.3333" y="1213.67"/>
      <point x="27" y="1219" type="curve" smooth="yes"/>
      <point x="33" y="1231" type="line"/>
      <point x="35.6667" y="1233.67"/>
      <point x="37.6667" y="1237"/>
      <point x="39" y="1241" type="curve"/>
      <point x="41" y="1242" type="line"/>
      <point x="45.308" y="1249.18"/>
      <point x="49.2558" y="1251.32"/>
      <point x="57" y="1261" type="curve"/>
      <point x="70" y="1270" type="line" smooth="yes"/>
      <point x="72.6667" y="1272"/>
      <point x="76.6667" y="1274"/>
      <point x="82" y="1276" type="curve"/>
      <point x="86" y="1278.67"/>
      <point x="90.6667" y="1280.67"/>
      <point x="96" y="1282" type="curve" smooth="yes"/>
      <point x="100" y="1282.67"/>
      <point x="104.667" y="1284"/>
      <point x="110" y="1286" type="curve"/>
      <point x="156" y="1286" type="line"/>
      <point x="165.127" y="1283.97"/>
      <point x="188.295" y="1277.71"/>
      <point x="202" y="1264" type="curve"/>
      <point x="211" y="1257" type="line"/>
      <point x="221" y="1245" type="line" smooth="yes"/>
      <point x="223" y="1242.33"/>
      <point x="225.333" y="1238.67"/>
      <point x="228" y="1234" type="curve" smooth="yes"/>
      <point x="230.667" y="1231.33"/>
      <point x="233" y="1227.33"/>
      <point x="235" y="1222" type="curve"/>
      <point x="237.667" y="1218.67"/>
      <point x="239.667" y="1214.33"/>
      <point x="241" y="1209" type="curve"/>
      <point x="243" y="1205.67"/>
      <point x="245" y="1201.33"/>
      <point x="247" y="1196" type="curve" smooth="yes"/>
      <point x="247.667" y="1193.33"/>
      <point x="249" y="1189.33"/>
      <point x="251" y="1184" type="curve"/>
      <point x="251" y="1181" type="line"/>
      <point x="255.762" y="1171.48"/>
      <point x="260.257" y="1139.49"/>
      <point x="262" y="1136" type="curve"/>
      <point x="262" y="1131.33"/>
      <point x="262.667" y="1125.67"/>
      <point x="264" y="1119" type="curve" smooth="yes"/>
      <point x="266" y="1102" type="line"/>
      <point x="266" y="1096" type="line"/>
      <point x="267" y="1090" type="line"/>
      <point x="267" y="980" type="line"/>
      <point x="266" y="978" type="line"/>
      <point x="266" y="972" type="line" smooth="yes"/>
      <point x="265.333" y="967.333"/>
      <point x="265" y="961.333"/>
      <point x="265" y="954" type="curve" smooth="yes"/>
      <point x="263" y="937" type="line" smooth="yes"/>
      <point x="263" y="933.667"/>
      <point x="262.667" y="929.667"/>
      <point x="262" y="925" type="curve" smooth="yes"/>
      <point x="262" y="922" type="line"/>
      <point x="261" y="920" type="line"/>
      <point x="260" y="903" type="line"/>
      <point x="258.667" y="898.333"/>
      <point x="258" y="892.667"/>
      <point x="258" y="886" type="curve"/>
      <point x="256.667" y="881.333"/>
      <point x="255.667" y="876"/>
      <point x="255" y="870" type="curve" smooth="yes"/>
      <point x="253" y="854" type="line" smooth="yes"/>
      <point x="253" y="849.333"/>
      <point x="252" y="844"/>
      <point x="250" y="838" type="curve"/>
      <point x="248" y="821" type="line"/>
      <point x="236" y="757" type="line" smooth="yes"/>
      <point x="234.667" y="753"/>
      <point x="233.667" y="747.667"/>
      <point x="233" y="741" type="curve"/>
      <point x="229" y="726" type="line"/>
      <point x="229" y="721.333"/>
      <point x="228" y="716.333"/>
      <point x="226" y="711" type="curve" smooth="yes"/>
      <point x="219" y="680" type="line"/>
      <point x="212.324" y="656.635"/>
      <point x="212.116" y="643.232"/>
      <point x="208" y="635" type="curve"/>
      <point x="207.333" y="630.333"/>
      <point x="206" y="625"/>
      <point x="204" y="619" type="curve" smooth="yes"/>
      <point x="203.333" y="615"/>
      <point x="202.333" y="611"/>
      <point x="201" y="607" type="curve"/>
      <point x="201" y="604" type="line"/>
      <point x="199" y="600"/>
      <point x="197.667" y="595"/>
      <point x="197" y="589" type="curve"/>
      <point x="195" y="585"/>
      <point x="193.667" y="580"/>
      <point x="193" y="574" type="curve"/>
      <point x="191" y="570"/>
      <point x="189.667" y="565"/>
      <point x="189" y="559" type="curve"/>
      <point x="184" y="545" type="line" smooth="yes"/>
      <point x="183.333" y="541"/>
      <point x="182" y="536.333"/>
      <point x="180" y="531" type="curve" smooth="yes"/>
      <point x="174" y="509" type="line" smooth="yes"/>
      <point x="173.333" y="507"/>
      <point x="172.667" y="504.333"/>
      <point x="172" y="501" type="curve" smooth="yes"/>
      <point x="167" y="487" type="line" smooth="yes"/>
      <point x="166.333" y="483"/>
      <point x="165" y="478.333"/>
      <point x="163" y="473" type="curve" smooth="yes"/>
      <point x="162.333" y="469.667"/>
      <point x="161" y="465.667"/>
      <point x="159" y="461" type="curve"/>
      <point x="159" y="458" type="line" smooth="yes"/>
      <point x="158.913" y="457.739"/>
      <point x="150.877" y="434.045"/>
      <point x="150" y="432" type="curve" smooth="yes"/>
      <point x="150" y="429" type="line"/>
      <point x="148" y="425"/>
      <point x="146.333" y="420.333"/>
      <point x="145" y="415" type="curve" smooth="yes"/>
      <point x="143.667" y="411"/>
      <point x="142" y="406.333"/>
      <point x="140" y="401" type="curve" smooth="yes"/>
      <point x="136" y="387" type="line" smooth="yes"/>
      <point x="134.667" y="383"/>
      <point x="133" y="378.333"/>
      <point x="131" y="373" type="curve" smooth="yes"/>
      <point x="128.11" y="367.221"/>
      <point x="128.334" y="363.668"/>
      <point x="126" y="359" type="curve"/>
      <point x="126" y="352.333"/>
      <point x="123.667" y="348.667"/>
      <point x="119" y="348" type="curve"/>
      <point x="116" y="364" type="line"/>
      <point x="112" y="378" type="line"/>
      <point x="109" y="394" type="line" smooth="yes"/>
      <point x="108.333" y="397.333"/>
      <point x="107" y="401.333"/>
      <point x="105" y="406" type="curve" smooth="yes"/>
      <point x="104.333" y="410"/>
      <point x="103.667" y="413.333"/>
      <point x="103" y="416" type="curve" smooth="yes"/>
      <point x="98" y="440" type="line"/>
      <point x="91" y="468" type="line"/>
      <point x="91" y="471" type="line"/>
      <point x="89.6667" y="475"/>
      <point x="88.3333" y="480"/>
      <point x="87" y="486" type="curve" smooth="yes"/>
      <point x="70" y="562" type="line" smooth="yes"/>
      <point x="69.3333" y="566.667"/>
      <point x="68.3333" y="572"/>
      <point x="67" y="578" type="curve" smooth="yes"/>
      <point x="60" y="609" type="line" smooth="yes"/>
      <point x="58.6667" y="613"/>
      <point x="57.6667" y="618.333"/>
      <point x="57" y="625" type="curve" smooth="yes"/>
      <point x="50" y="655" type="line"/>
      <point x="50" y="659.667"/>
      <point x="49" y="665"/>
      <point x="47" y="671" type="curve" smooth="yes"/>
      <point x="46.3333" y="675.667"/>
      <point x="45.3333" y="681"/>
      <point x="44" y="687" type="curve" smooth="yes"/>
      <point x="41" y="703" type="line" smooth="yes"/>
      <point x="40.3333" y="707.667"/>
      <point x="39.3333" y="713"/>
      <point x="38" y="719" type="curve" smooth="yes"/>
      <point x="37.3333" y="723.667"/>
      <point x="36.3333" y="729"/>
      <point x="35" y="735" type="curve" smooth="yes"/>
      <point x="32" y="750" type="line" smooth="yes"/>
      <point x="31.3333" y="754.667"/>
      <point x="30.3333" y="760"/>
      <point x="29" y="766" type="curve" smooth="yes"/>
      <point x="29" y="769.333"/>
      <point x="28.3333" y="773.667"/>
      <point x="27" y="779" type="curve"/>
      <point x="27" y="782" type="line"/>
      <point x="23.4988" y="792.504"/>
      <point x="26.7998" y="789.201"/>
      <point x="22" y="806" type="curve"/>
      <point x="14" y="864" type="line" smooth="yes"/>
      <point x="13.3333" y="868"/>
      <point x="12.6667" y="873.667"/>
      <point x="12" y="881" type="curve" smooth="yes"/>
      <point x="10.6667" y="885.667"/>
      <point x="10" y="891"/>
      <point x="10" y="897" type="curve"/>
      <point x="8.66667" y="901.667"/>
      <point x="8" y="907.333"/>
      <point x="8" y="914" type="curve"/>
      <point x="6.66667" y="918.667"/>
      <point x="6" y="924.667"/>
    </contour>
    <contour>
      <point x="109" y="236" type="curve" smooth="yes"/>
      <point x="109.165" y="236"/>
      <point x="129.272" y="253.454"/>
      <point x="135" y="263" type="curve"/>
      <point x="136.333" y="261"/>
      <point x="138.667" y="259"/>
      <point x="142" y="257" type="curve" smooth="yes"/>
      <point x="142" y="256.333"/>
      <point x="142.667" y="255.667"/>
      <point x="144" y="255" type="curve" smooth="yes"/>
      <point x="146" y="252.333"/>
      <point x="148.667" y="249.333"/>
      <point x="152" y="246" type="curve" smooth="yes"/>
      <point x="168" y="230" type="line" smooth="yes"/>
      <point x="169.333" y="228"/>
      <point x="171.667" y="226"/>
      <point x="175" y="224" type="curve" smooth="yes"/>
      <point x="175" y="223.333"/>
      <point x="175.667" y="222.667"/>
      <point x="177" y="222" type="curve" smooth="yes"/>
      <point x="179" y="219.333"/>
      <point x="181.667" y="216.333"/>
      <point x="185" y="213" type="curve" smooth="yes"/>
      <point x="209" y="189" type="line" smooth="yes"/>
      <point x="210.333" y="187"/>
      <point x="212.667" y="185"/>
      <point x="216" y="183" type="curve" smooth="yes"/>
      <point x="216" y="182.333"/>
      <point x="216.667" y="181.667"/>
      <point x="218" y="181" type="curve" smooth="yes"/>
      <point x="220" y="178.333"/>
      <point x="222.667" y="175.333"/>
      <point x="226" y="172" type="curve" smooth="yes"/>
      <point x="250" y="148" type="line" smooth="yes"/>
      <point x="251.333" y="146"/>
      <point x="253.667" y="144"/>
      <point x="257" y="142" type="curve" smooth="yes"/>
      <point x="257" y="141.859"/>
      <point x="261.974" y="136.021"/>
      <point x="267" y="132" type="curve"/>
      <point x="265.667" y="129.333"/>
      <point x="263.333" y="126"/>
      <point x="260" y="122" type="curve" smooth="yes"/>
      <point x="257.333" y="120"/>
      <point x="254.333" y="117.333"/>
      <point x="251" y="114" type="curve" smooth="yes"/>
      <point x="235" y="98" type="line" smooth="yes"/>
      <point x="233" y="96.6667"/>
      <point x="231" y="94.3333"/>
      <point x="229" y="91" type="curve" smooth="yes"/>
      <point x="228.333" y="91"/>
      <point x="227.667" y="90.3333"/>
      <point x="227" y="89" type="curve" smooth="yes"/>
      <point x="224.333" y="87"/>
      <point x="221.333" y="84.3333"/>
      <point x="218" y="81" type="curve" smooth="yes"/>
      <point x="194" y="57" type="line" smooth="yes"/>
      <point x="192" y="55.6667"/>
      <point x="190" y="53.3333"/>
      <point x="188" y="50" type="curve" smooth="yes"/>
      <point x="187.333" y="50"/>
      <point x="186.667" y="49.3333"/>
      <point x="186" y="48" type="curve" smooth="yes"/>
      <point x="183.333" y="46"/>
      <point x="180.333" y="43.3333"/>
      <point x="177" y="40" type="curve" smooth="yes"/>
      <point x="153" y="16" type="line" smooth="yes"/>
      <point x="151" y="14.6667"/>
      <point x="149" y="12.3333"/>
      <point x="147" y="9" type="curve"/>
      <point x="145.778" y="9"/>
      <point x="144.795" y="5.27702"/>
      <point x="136" y="0" type="curve"/>
      <point x="133.333" y="1.33333"/>
      <point x="130.333" y="4"/>
      <point x="127" y="8" type="curve" smooth="yes"/>
      <point x="119" y="16" type="line" smooth="yes"/>
      <point x="117.667" y="18"/>
      <point x="115.333" y="20"/>
      <point x="112" y="22" type="curve" smooth="yes"/>
      <point x="112" y="22.6667"/>
      <point x="111.333" y="23.3333"/>
      <point x="110" y="24" type="curve" smooth="yes"/>
      <point x="108" y="26.6667"/>
      <point x="105.333" y="29.6667"/>
      <point x="102" y="33" type="curve" smooth="yes"/>
      <point x="86" y="49" type="line" smooth="yes"/>
      <point x="84.6667" y="51"/>
      <point x="82.3333" y="53"/>
      <point x="79" y="55" type="curve" smooth="yes"/>
      <point x="79" y="55.6667"/>
      <point x="78.3333" y="56.3333"/>
      <point x="77" y="57" type="curve" smooth="yes"/>
      <point x="75" y="59.6667"/>
      <point x="72.3333" y="62.3333"/>
      <point x="69" y="65" type="curve" smooth="yes"/>
      <point x="67" y="67.6667"/>
      <point x="64.3333" y="70.6667"/>
      <point x="61" y="74" type="curve" smooth="yes"/>
      <point x="37" y="98" type="line" smooth="yes"/>
      <point x="35.6667" y="100"/>
      <point x="33.3333" y="102"/>
      <point x="30" y="104" type="curve" smooth="yes"/>
      <point x="30" y="104.667"/>
      <point x="29.3333" y="105.333"/>
      <point x="28" y="106" type="curve" smooth="yes"/>
      <point x="26" y="108.667"/>
      <point x="23.3333" y="111.667"/>
      <point x="20" y="115" type="curve" smooth="yes"/>
      <point x="12" y="123" type="line" smooth="yes"/>
      <point x="9.33333" y="125"/>
      <point x="7" y="127.667"/>
      <point x="5" y="131" type="curve"/>
      <point x="21" y="147" type="line" smooth="yes"/>
      <point x="23" y="148.333"/>
      <point x="25" y="150.667"/>
      <point x="27" y="154" type="curve" smooth="yes"/>
      <point x="27.6667" y="154"/>
      <point x="28.3333" y="154.667"/>
      <point x="29" y="156" type="curve" smooth="yes"/>
      <point x="31.6667" y="158"/>
      <point x="34.6667" y="160.667"/>
      <point x="38" y="164" type="curve" smooth="yes"/>
      <point x="54" y="180" type="line" smooth="yes"/>
      <point x="56" y="181.333"/>
      <point x="58" y="183.667"/>
      <point x="60" y="187" type="curve" smooth="yes"/>
      <point x="60.6667" y="187"/>
      <point x="61.3333" y="187.667"/>
      <point x="62" y="189" type="curve" smooth="yes"/>
      <point x="64.6667" y="191"/>
      <point x="67.3333" y="193.667"/>
      <point x="70" y="197" type="curve" smooth="yes"/>
      <point x="72.6667" y="199"/>
      <point x="75.6667" y="201.667"/>
      <point x="79" y="205" type="curve" smooth="yes"/>
      <point x="103" y="229" type="line" smooth="yes"/>
      <point x="105" y="230.333"/>
      <point x="107" y="232.667"/>
    </contour>
  </outline>
</glyph>
<glyph name="quotedbl" format="2">
  <advance width="619"/>
  <unicode hex="0022"/>
  <outline>
    <contour>
      <point x="535" y="870" type="line"/>
      <point x="450" y="659" type="line"/>
      <point x="367" y="659" type="line"/>
      <point x="367" y="1098" type="line"/>
      <point x="535" y="1098" type="line"/>
    </contour>
    <contour>
      <point x="276" y="870" type="line"/>
      <point x="190" y="659" type="line"/>
      <point x="108" y="659" type="line"/>
      <point x="108" y="1098" type="line"/>
      <point x="276" y="1098" type="line"/>
    </contour>
  </outline>
</glyph>
<glyph name="dollar" format="2">
  <advance width="1007"/>
  <unicode hex="0024"/>
  <outline>
    <contour>
      <point x="507" y="152" type="curve" smooth="yes"/>
      <point x="639.295" y="152"/>
      <point x="731" y="222.774"/>
      <point x="731" y="342" type="curve" smooth="yes"/>
      <point x="731" y="448.353"/>
      <point x="665.363" y="515.651"/>
      <point x="499" y="572" type="curve"/>
      <point x="188.177" y="666.357"/>
      <point x="155" y="826.15"/>
      <point x="155" y="939" type="curve" smooth="yes"/>
      <point x="155" y="1031.67"/>
      <point x="181.833" y="1107.67"/>
      <point x="235.5" y="1167" type="curve" smooth="yes"/>
      <point x="289.167" y="1226.33"/>
      <point x="362.333" y="1262"/>
      <point x="455" y="1274" type="curve"/>
      <point x="455" y="1458" type="line"/>
      <point x="589" y="1458" type="line"/>
      <point x="589" y="1272" type="line"/>
      <point x="760.368" y="1248.91"/>
      <point x="886" y="1132.24"/>
      <point x="886" y="896" type="curve"/>
      <point x="719" y="896" type="line"/>
      <point x="719" y="963.249"/>
      <point x="700.649" y="1137"/>
      <point x="511" y="1137" type="curve" smooth="yes"/>
      <point x="449.667" y="1137"/>
      <point x="402.833" y="1119.5"/>
      <point x="370.5" y="1084.5" type="curve" smooth="yes"/>
      <point x="338.167" y="1049.5"/>
      <point x="322" y="1003.33"/>
      <point x="322" y="946" type="curve" smooth="yes"/>
      <point x="322" y="700.528"/>
      <point x="629.982" y="755.232"/>
      <point x="814" y="574.5" type="curve" smooth="yes"/>
      <point x="870" y="519.5"/>
      <point x="898" y="444"/>
      <point x="898" y="348" type="curve" smooth="yes"/>
      <point x="898" y="252"/>
      <point x="868.833" y="175.333"/>
      <point x="810.5" y="118" type="curve" smooth="yes"/>
      <point x="752.167" y="60.6667"/>
      <point x="672.333" y="26.6667"/>
      <point x="571" y="16" type="curve"/>
      <point x="571" y="-146" type="line"/>
      <point x="437" y="-146" type="line"/>
      <point x="437" y="15" type="line"/>
      <point x="342.333" y="25"/>
      <point x="263.833" y="60.3333"/>
      <point x="201.5" y="121" type="curve" smooth="yes"/>
      <point x="141.724" y="179.178"/>
      <point x="111.836" y="263.105"/>
      <point x="111.836" y="372.782" type="curve" smooth="yes"/>
      <point x="111.836" y="386.179"/>
      <point x="111.836" y="386.179"/>
      <point x="113" y="392" type="curve"/>
      <point x="272" y="392" type="line"/>
      <point x="272" y="305.333"/>
      <point x="293.833" y="243.667"/>
      <point x="337.5" y="207" type="curve" smooth="yes"/>
      <point x="381.167" y="170.333"/>
      <point x="437.667" y="152"/>
    </contour>
  </outline>
</glyph>
<glyph name="percent" format="2">
  <advance width="1265"/>
  <unicode hex="0025"/>
  <outline>
    <contour>
      <point x="345" y="679" type="curve" smooth="yes"/>
      <point x="174.182" y="679"/>
      <point x="88" y="802.747"/>
      <point x="88" y="932" type="curve" smooth="yes"/>
      <point x="88" y="996" type="line" smooth="yes"/>
      <point x="88" y="1120.6"/>
      <point x="169.884" y="1251"/>
      <point x="342" y="1251" type="curve" smooth="yes"/>
      <point x="514.402" y="1251"/>
      <point x="597" y="1124.47"/>
      <point x="597" y="996" type="curve" smooth="yes"/>
      <point x="597" y="932" type="line" smooth="yes"/>
      <point x="597" y="798.287"/>
      <point x="508.759" y="679"/>
    </contour>
    <contour>
      <point x="342" y="1147" type="curve" smooth="yes"/>
      <point x="238.493" y="1147"/>
      <point x="212" y="1052.71"/>
      <point x="212" y="996" type="curve" smooth="yes"/>
      <point x="212" y="932" type="line" smooth="yes"/>
      <point x="212" y="913.966"/>
      <point x="216.36" y="783"/>
      <point x="343" y="783" type="curve" smooth="yes"/>
      <point x="439.321" y="783"/>
      <point x="473" y="863.263"/>
      <point x="473" y="932" type="curve" smooth="yes"/>
      <point x="473" y="996" type="line" smooth="yes"/>
      <point x="473" y="1053.36"/>
      <point x="444.412" y="1147"/>
    </contour>
    <contour>
      <point x="941" y="-15" type="curve" smooth="yes"/>
      <point x="775.049" y="-15"/>
      <point x="683" y="104.444"/>
      <point x="683" y="239" type="curve" smooth="yes"/>
      <point x="683" y="305" type="line" smooth="yes"/>
      <point x="683" y="436.324"/>
      <point x="769.908" y="559"/>
      <point x="940" y="559" type="curve" smooth="yes"/>
      <point x="1108.01" y="559"/>
      <point x="1193" y="434.124"/>
      <point x="1193" y="305" type="curve" smooth="yes"/>
      <point x="1193" y="239" type="line" smooth="yes"/>
      <point x="1193" y="105.897"/>
      <point x="1105.28" y="-15"/>
    </contour>
    <contour>
      <point x="940" y="455" type="curve" smooth="yes"/>
      <point x="842.062" y="455"/>
      <point x="807" y="372.377"/>
      <point x="807" y="305" type="curve" smooth="yes"/>
      <point x="807" y="239" type="line" smooth="yes"/>
      <point x="807" y="171.626"/>
      <point x="842.059" y="89"/>
      <point x="940" y="89" type="curve" smooth="yes"/>
      <point x="1039.12" y="89"/>
      <point x="1069" y="176.111"/>
      <point x="1069" y="239" type="curve" smooth="yes"/>
      <point x="1069" y="305" type="line" smooth="yes"/>
      <point x="1069" y="372.93"/>
      <point x="1034.48" y="455"/>
    </contour>
    <contour>
      <point x="387" y="98" type="line"/>
      <point x="296" y="154" type="line"/>
      <point x="896" y="1113" type="line"/>
      <point x="988" y="1056" type="line"/>
    </contour>
  </outline>
</glyph>
<glyph name="ampersand" format="2">
  <advance width="1078"/>
  <unicode hex="0026"/>
  <outline>
    <contour>
      <point x="54" y="328" type="curve" smooth="yes"/>
      <point x="54" y="433.347"/>
      <point x="87.6274" y="536.759"/>
      <point x="292" y="669" type="curve"/>
      <point x="179.479" y="812.209"/>
      <point x="161" y="883.536"/>
      <point x="161" y="964" type="curve" smooth="yes"/>
      <point x="161" y="1137.55"/>
      <point x="276.272" y="1251"/>
      <point x="466" y="1251" type="curve" smooth="yes"/>
      <point x="670.135" y="1251"/>
      <point x="770" y="1116.9"/>
      <point x="770" y="988" type="curve" smooth="yes"/>
      <point x="770" y="911.083"/>
      <point x="746.642" y="833.553"/>
      <point x="595" y="722" type="curve" smooth="yes"/>
      <point x="504" y="655" type="line"/>
      <point x="791" y="309" type="line"/>
      <point x="825.751" y="365.215"/>
      <point x="862" y="452.464"/>
      <point x="862" y="572" type="curve"/>
      <point x="1013" y="572" type="line"/>
      <point x="1013" y="499.306"/>
      <point x="1004.09" y="339.866"/>
      <point x="884" y="195" type="curve"/>
      <point x="1042" y="7" type="line"/>
      <point x="1039" y="3" type="line"/>
      <point x="844" y="3" type="line"/>
      <point x="774" y="89" type="line"/>
      <point x="661.51" y="6.28667"/>
      <point x="542.083" y="-15"/>
      <point x="449" y="-15" type="curve" smooth="yes"/>
      <point x="330.333" y="-15"/>
      <point x="234.833" y="17.3333"/>
      <point x="162.5" y="82" type="curve" smooth="yes"/>
      <point x="90.1667" y="146.667"/>
      <point x="54" y="228.667"/>
    </contour>
    <contour>
      <point x="221" y="323" type="curve" smooth="yes"/>
      <point x="221" y="246.928"/>
      <point x="266.633" y="116"/>
      <point x="452" y="116" type="curve" smooth="yes"/>
      <point x="516.093" y="116"/>
      <point x="598.714" y="132.892"/>
      <point x="686" y="195" type="curve"/>
      <point x="382" y="562" type="line"/>
      <point x="348" y="538" type="line"/>
      <point x="308.53" y="508.782"/>
      <point x="221" y="443.987"/>
    </contour>
    <contour>
      <point x="472" y="1120" type="curve" smooth="yes"/>
      <point x="355.223" y="1120"/>
      <point x="328" y="1014.82"/>
      <point x="328" y="960" type="curve" smooth="yes"/>
      <point x="328" y="905.289"/>
      <point x="347.633" y="844.304"/>
      <point x="420" y="755" type="curve"/>
      <point x="535" y="836" type="line" smooth="yes"/>
      <point x="555.319" y="850.267"/>
      <point x="619" y="894.979"/>
      <point x="619" y="982" type="curve" smooth="yes"/>
      <point x="619" y="1056.9"/>
      <point x="561.245" y="1120"/>
    </contour>
  </outline>
</glyph>
<glyph name="quotesingle" format="2">
  <advance width="377"/>
  <unicode hex="0027"/>
  <outline>
    <contour>
      <point x="274" y="908" type="line"/>
      <point x="189" y="670" type="line"/>
      <point x="108" y="670" type="line"/>
      <point x="108" y="1096" type="line"/>
      <point x="274" y="1096" type="line"/>
    </contour>
  </outline>
</glyph>
<glyph name="parenleft" format="2">
  <advance width="572"/>
  <unicode hex="0028"/>
  <outline>
    <contour>
      <point x="113" y="564" type="line" smooth="yes"/>
      <point x="113" y="786.667"/>
      <point x="157.667" y="976.333"/>
      <point x="247" y="1133" type="curve" smooth="yes"/>
      <point x="336.333" y="1289.67"/>
      <point x="430" y="1394.67"/>
      <point x="528" y="1448" type="curve"/>
      <point x="533" y="1446" type="line"/>
      <point x="564" y="1348" type="line"/>
      <point x="488" y="1288"/>
      <point x="421.167" y="1191.67"/>
      <point x="363.5" y="1059" type="curve" smooth="yes"/>
      <point x="305.833" y="926.333"/>
      <point x="277" y="762"/>
      <point x="277" y="566" type="curve" smooth="yes"/>
      <point x="277" y="555" type="line" smooth="yes"/>
      <point x="277" y="360.333"/>
      <point x="305.667" y="196.5"/>
      <point x="363" y="63.5" type="curve" smooth="yes"/>
      <point x="420.333" y="-69.5"/>
      <point x="487.333" y="-169"/>
      <point x="564" y="-235" type="curve"/>
      <point x="533" y="-326" type="line"/>
      <point x="528" y="-326" type="line"/>
      <point x="430" y="-274"/>
      <point x="336.333" y="-169.333"/>
      <point x="247" y="-12" type="curve" smooth="yes"/>
      <point x="157.667" y="145.333"/>
      <point x="113" y="335"/>
      <point x="113" y="557" type="curve" smooth="yes"/>
    </contour>
  </outline>
</glyph>
<glyph name="parenright" format="2">
  <advance width="581"/>
  <unicode hex="0029"/>
  <outline>
    <contour>
      <point x="459" y="557" type="line" smooth="yes"/>
      <point x="459" y="222"/>
      <point x="190" y="-248"/>
      <point x="42" y="-326" type="qcurve"/>
      <point x="36" y="-326" type="line"/>
      <point x="5" y="-235" type="line"/>
      <point x="119" y="-146"/>
      <point x="293" y="261"/>
      <point x="293" y="555" type="qcurve" smooth="yes"/>
      <point x="293" y="566" type="line" smooth="yes"/>
      <point x="293" y="855"/>
      <point x="114" y="1263"/>
      <point x="5" y="1355" type="qcurve"/>
      <point x="36" y="1448" type="line"/>
      <point x="42" y="1448" type="line"/>
      <point x="189" y="1368"/>
      <point x="459" y="898"/>
      <point x="459" y="564" type="qcurve" smooth="yes"/>
    </contour>
  </outline>
</glyph>
<glyph name="zero" format="2">
  <advance width="974"/>
  <unicode hex="0030"/>
  <outline>
    <contour>
      <point x="486" y="1251" type="curve" smooth="yes"/>
      <point x="722.922" y="1251"/>
      <point x="879" y="1079.84"/>
      <point x="879" y="799" type="curve" smooth="yes"/>
      <point x="879" y="437" type="line" smooth="yes"/>
      <point x="879" y="298.333"/>
      <point x="843.5" y="188.333"/>
      <point x="772.5" y="107" type="curve" smooth="yes"/>
      <point x="701.5" y="25.6667"/>
      <point x="606.333" y="-15"/>
      <point x="487" y="-15" type="curve" smooth="yes"/>
      <point x="258.442" y="-15"/>
      <point x="95" y="148.415"/>
      <point x="95" y="437" type="curve" smooth="yes"/>
      <point x="95" y="799" type="line" smooth="yes"/>
      <point x="95" y="1077.36"/>
      <point x="246.962" y="1251"/>
    </contour>
    <contour>
      <point x="488" y="116" type="curve" smooth="yes"/>
      <point x="552.861" y="116"/>
      <point x="712" y="142.632"/>
      <point x="712" y="404" type="curve" smooth="yes"/>
      <point x="712" y="833" type="line" smooth="yes"/>
      <point x="712" y="900.247"/>
      <point x="695.939" y="1120"/>
      <point x="486" y="1120" type="curve" smooth="yes"/>
      <point x="414" y="1120"/>
      <point x="358.667" y="1094.17"/>
      <point x="320" y="1042.5" type="curve" smooth="yes"/>
      <point x="281.333" y="990.833"/>
      <point x="262" y="921"/>
      <point x="262" y="833" type="curve" smooth="yes"/>
      <point x="262" y="404" type="line" smooth="yes"/>
      <point x="262" y="315.333"/>
      <point x="282" y="245.167"/>
      <point x="322" y="193.5" type="curve" smooth="yes"/>
      <point x="362" y="141.833"/>
      <point x="417.333" y="116"/>
    </contour>
  </outline>
</glyph>
<glyph name="one" format="2">
  <advance width="973"/>
  <unicode hex="0031"/>
  <outline>
    <contour>
      <point x="600" y="0" type="line"/>
      <point x="434" y="0" type="line"/>
      <point x="434" y="1075" type="line"/>
      <point x="166" y="1075" type="line"/>
      <point x="166" y="1202" type="line"/>
      <point x="600" y="1248" type="line"/>
    </contour>
  </outline>
</glyph>
<glyph name="two" format="2">
  <advance width="974"/>
  <unicode hex="0032"/>
  <outline>
    <contour>
      <point x="501" y="1248" type="curve" smooth="yes"/>
      <point x="744.972" y="1248"/>
      <point x="856" y="1091.36"/>
      <point x="856" y="927" type="curve" smooth="yes"/>
      <point x="856" y="807.162"/>
      <point x="812.264" y="699.643"/>
      <point x="639" y="498" type="curve" smooth="yes"/>
      <point x="329" y="135" type="line"/>
      <point x="330" y="131" type="line"/>
      <point x="891" y="131" type="line"/>
      <point x="891" y="0" type="line"/>
      <point x="127" y="0" type="line"/>
      <point x="127" y="115" type="line"/>
      <point x="514" y="575" type="line" smooth="yes"/>
      <point x="638.831" y="724.07"/>
      <point x="689" y="813.982"/>
      <point x="689" y="922" type="curve" smooth="yes"/>
      <point x="689" y="1015.93"/>
      <point x="639.026" y="1117"/>
      <point x="497" y="1117" type="curve" smooth="yes"/>
      <point x="338.564" y="1117"/>
      <point x="279" y="992.526"/>
      <point x="279" y="884" type="curve"/>
      <point x="118" y="884" type="line"/>
      <point x="117" y="889" type="line"/>
      <point x="117" y="989"/>
      <point x="151.167" y="1073.83"/>
      <point x="219.5" y="1143.5" type="curve" smooth="yes"/>
      <point x="287.833" y="1213.17"/>
      <point x="381.667" y="1248"/>
    </contour>
  </outline>
</glyph>
<glyph name="three" format="2">
  <advance width="973"/>
  <unicode hex="0033"/>
  <outline>
    <contour>
      <point x="711" y="351" type="curve" smooth="yes"/>
      <point x="711" y="485.819"/>
      <point x="648.823" y="573"/>
      <point x="488" y="573" type="curve" smooth="yes"/>
      <point x="353" y="573" type="line"/>
      <point x="353" y="701" type="line"/>
      <point x="488" y="701" type="line" smooth="yes"/>
      <point x="563.333" y="701"/>
      <point x="616.333" y="719.667"/>
      <point x="647" y="757" type="curve" smooth="yes"/>
      <point x="677.667" y="794.333"/>
      <point x="693" y="844.667"/>
      <point x="693" y="908" type="curve" smooth="yes"/>
      <point x="693" y="984.582"/>
      <point x="666.58" y="1120"/>
      <point x="495" y="1120" type="curve" smooth="yes"/>
      <point x="359.272" y="1120"/>
      <point x="271" y="1026.78"/>
      <point x="271" y="911" type="curve"/>
      <point x="113" y="911" type="line"/>
      <point x="108.783" y="917.326"/>
      <point x="108.783" y="917.326"/>
      <point x="108.783" y="928.924" type="curve" smooth="yes"/>
      <point x="108.783" y="1015.82"/>
      <point x="143.855" y="1090.51"/>
      <point x="214" y="1153" type="curve" smooth="yes"/>
      <point x="287.333" y="1218.33"/>
      <point x="382.333" y="1251"/>
      <point x="499" y="1251" type="curve" smooth="yes"/>
      <point x="642.945" y="1251"/>
      <point x="859" y="1196.99"/>
      <point x="859" y="909" type="curve" smooth="yes"/>
      <point x="859" y="861.962"/>
      <point x="845.41" y="718.273"/>
      <point x="687" y="641" type="curve"/>
      <point x="751.45" y="616.051"/>
      <point x="877" y="547.432"/>
      <point x="877" y="342" type="curve" smooth="yes"/>
      <point x="877" y="101.121"/>
      <point x="701.286" y="-15"/>
      <point x="498" y="-15" type="curve" smooth="yes"/>
      <point x="390" y="-15"/>
      <point x="297" y="15.8333"/>
      <point x="219" y="77.5" type="curve" smooth="yes"/>
      <point x="141" y="139.167"/>
      <point x="102" y="220.667"/>
      <point x="102" y="322" type="curve"/>
      <point x="103" y="327" type="line"/>
      <point x="261" y="327" type="line"/>
      <point x="261" y="209.673"/>
      <point x="352.368" y="116"/>
      <point x="492" y="116" type="curve" smooth="yes"/>
      <point x="629.598" y="116"/>
      <point x="711" y="206.147"/>
    </contour>
  </outline>
</glyph>
<glyph name="five" format="2">
  <advance width="972"/>
  <unicode hex="0035"/>
  <outline>
    <contour>
      <point x="147" y="550" type="line"/>
      <point x="218" y="1233" type="line"/>
      <point x="834" y="1233" type="line"/>
      <point x="834" y="1085" type="line"/>
      <point x="358" y="1085" type="line"/>
      <point x="319" y="731" type="line"/>
      <point x="360" y="761"/>
      <point x="454" y="799"/>
      <point x="517" y="799" type="qcurve" smooth="yes"/>
      <point x="687" y="799"/>
      <point x="880" y="584"/>
      <point x="880" y="396" type="qcurve" smooth="yes"/>
      <point x="880" y="209"/>
      <point x="682" y="-15"/>
      <point x="497" y="-15" type="qcurve" smooth="yes"/>
      <point x="336" y="-15"/>
      <point x="133" y="155"/>
      <point x="133" y="322" type="qcurve"/>
      <point x="134" y="327" type="line"/>
      <point x="285" y="327" type="line"/>
      <point x="285" y="226"/>
      <point x="400" y="116"/>
      <point x="492" y="116" type="qcurve" smooth="yes"/>
      <point x="597" y="116"/>
      <point x="715" y="265"/>
      <point x="715" y="389" type="qcurve" smooth="yes"/>
      <point x="715" y="512"/>
      <point x="597" y="656"/>
      <point x="492" y="656" type="qcurve" smooth="yes"/>
      <point x="394" y="656"/>
      <point x="306" y="596"/>
      <point x="285" y="535" type="qcurve"/>
    </contour>
  </outline>
</glyph>
<glyph name="six" format="2">
  <advance width="972"/>
  <unicode hex="0036"/>
  <outline>
    <contour>
      <point x="557" y="787" type="curve" smooth="yes"/>
      <point x="775.049" y="787"/>
      <point x="898" y="623.699"/>
      <point x="898" y="398" type="curve" smooth="yes"/>
      <point x="898" y="273.333"/>
      <point x="863.833" y="173.333"/>
      <point x="795.5" y="98" type="curve" smooth="yes"/>
      <point x="727.167" y="22.6667"/>
      <point x="637" y="-15"/>
      <point x="525" y="-15" type="curve" smooth="yes"/>
      <point x="406.333" y="-15"/>
      <point x="308.5" y="28.3333"/>
      <point x="231.5" y="115" type="curve" smooth="yes"/>
      <point x="154.5" y="201.667"/>
      <point x="116" y="320"/>
      <point x="116" y="470" type="curve" smooth="yes"/>
      <point x="116" y="753" type="line" smooth="yes"/>
      <point x="116" y="896.333"/>
      <point x="157" y="1015.17"/>
      <point x="239" y="1109.5" type="curve" smooth="yes"/>
      <point x="321" y="1203.83"/>
      <point x="425" y="1251"/>
      <point x="551" y="1251" type="curve" smooth="yes"/>
      <point x="553.559" y="1251"/>
      <point x="688.899" y="1250.17"/>
      <point x="802" y="1201" type="curve"/>
      <point x="766" y="1072" type="line"/>
      <point x="673.934" y="1116.11"/>
      <point x="596.423" y="1120"/>
      <point x="542" y="1120" type="curve" smooth="yes"/>
      <point x="381.194" y="1120"/>
      <point x="282" y="966.838"/>
      <point x="282" y="771" type="curve" smooth="yes"/>
      <point x="282" y="676" type="line"/>
      <point x="325.797" y="719.797"/>
      <point x="415.974" y="787"/>
    </contour>
    <contour>
      <point x="502" y="662" type="curve" smooth="yes"/>
      <point x="445.273" y="662"/>
      <point x="336.384" y="646.768"/>
      <point x="282" y="538" type="curve"/>
      <point x="282" y="453" type="line" smooth="yes"/>
      <point x="282" y="349"/>
      <point x="304.667" y="266.833"/>
      <point x="350" y="206.5" type="curve" smooth="yes"/>
      <point x="395.333" y="146.167"/>
      <point x="452.667" y="116"/>
      <point x="522" y="116" type="curve" smooth="yes"/>
      <point x="666.707" y="116"/>
      <point x="732" y="251.75"/>
      <point x="732" y="395" type="curve" smooth="yes"/>
      <point x="732" y="477.496"/>
      <point x="708.874" y="662"/>
    </contour>
  </outline>
</glyph>
<glyph name="seven" format="2">
  <advance width="974"/>
  <unicode hex="0037"/>
  <outline>
    <contour>
      <point x="898" y="1099" type="line"/>
      <point x="742.667" y="914.333"/>
      <point x="637.667" y="751.333"/>
      <point x="583" y="610" type="curve" smooth="yes"/>
      <point x="528.333" y="468.667"/>
      <point x="501" y="310"/>
      <point x="501" y="134" type="curve" smooth="yes"/>
      <point x="501" y="0" type="line"/>
      <point x="335" y="0" type="line"/>
      <point x="335" y="134" type="line" smooth="yes"/>
      <point x="335" y="320"/>
      <point x="369.167" y="487.333"/>
      <point x="437.5" y="636" type="curve" smooth="yes"/>
      <point x="505.833" y="784.667"/>
      <point x="605" y="939"/>
      <point x="735" y="1099" type="curve"/>
      <point x="83" y="1099" type="line"/>
      <point x="83" y="1230" type="line"/>
      <point x="898" y="1230" type="line"/>
    </contour>
  </outline>
</glyph>
<glyph name="eight" format="2">
  <advance width="972"/>
  <unicode hex="0038"/>
  <outline>
    <contour>
      <point x="120" y="930" type="curve" smooth="yes"/>
      <point x="120" y="1153.58"/>
      <point x="297.863" y="1251"/>
      <point x="490" y="1251" type="curve" smooth="yes"/>
      <point x="598" y="1251"/>
      <point x="685.5" y="1222.33"/>
      <point x="752.5" y="1165" type="curve" smooth="yes"/>
      <point x="819.5" y="1107.67"/>
      <point x="853" y="1029.67"/>
      <point x="853" y="931" type="curve" smooth="yes"/>
      <point x="853" y="859"/>
      <point x="835" y="798.667"/>
      <point x="799" y="750" type="curve" smooth="yes"/>
      <point x="763" y="701.333"/>
      <point x="715.333" y="664.333"/>
      <point x="656" y="639" type="curve"/>
      <point x="729.789" y="613.926"/>
      <point x="886" y="536.148"/>
      <point x="886" y="327" type="curve" smooth="yes"/>
      <point x="886" y="110.892"/>
      <point x="718.89" y="-15"/>
      <point x="491" y="-15" type="curve" smooth="yes"/>
      <point x="272.859" y="-15"/>
      <point x="86" y="101.157"/>
      <point x="86" y="330" type="curve" smooth="yes"/>
      <point x="86" y="415.879"/>
      <point x="116.527" y="572.387"/>
      <point x="325" y="640" type="curve"/>
      <point x="239.288" y="673.382"/>
      <point x="120" y="751.844"/>
    </contour>
    <contour>
      <point x="720" y="344" type="curve" smooth="yes"/>
      <point x="720" y="478.942"/>
      <point x="626.349" y="575"/>
      <point x="490" y="575" type="curve" smooth="yes"/>
      <point x="357.006" y="575"/>
      <point x="252" y="483.923"/>
      <point x="252" y="343" type="curve" smooth="yes"/>
      <point x="252" y="192.392"/>
      <point x="365.101" y="116"/>
      <point x="491" y="116" type="curve" smooth="yes"/>
      <point x="624.927" y="116"/>
      <point x="720" y="202.976"/>
    </contour>
    <contour>
      <point x="687" y="915" type="curve" smooth="yes"/>
      <point x="687" y="1035.02"/>
      <point x="607.608" y="1120"/>
      <point x="490" y="1120" type="curve" smooth="yes"/>
      <point x="382.784" y="1120"/>
      <point x="286" y="1049.57"/>
      <point x="286" y="917" type="curve" smooth="yes"/>
      <point x="286" y="782.69"/>
      <point x="384.328" y="706"/>
      <point x="493" y="706" type="curve" smooth="yes"/>
      <point x="609.345" y="706"/>
      <point x="687" y="792.451"/>
    </contour>
  </outline>
</glyph>
<glyph name="nine" format="2">
  <advance width="973"/>
  <unicode hex="0039"/>
  <outline>
    <contour>
      <point x="425" y="116" type="curve" smooth="yes"/>
      <point x="556.938" y="116"/>
      <point x="690" y="196.778"/>
      <point x="690" y="431" type="curve" smooth="yes"/>
      <point x="690" y="538" type="line"/>
      <point x="616.19" y="428.185"/>
      <point x="514.93" y="414"/>
      <point x="444" y="414" type="curve" smooth="yes"/>
      <point x="238.582" y="414"/>
      <point x="78" y="555.854"/>
      <point x="78" y="822" type="curve" smooth="yes"/>
      <point x="78" y="950.667"/>
      <point x="114.167" y="1054.33"/>
      <point x="186.5" y="1133" type="curve" smooth="yes"/>
      <point x="258.833" y="1211.67"/>
      <point x="352" y="1251"/>
      <point x="466" y="1251" type="curve" smooth="yes"/>
      <point x="580" y="1251"/>
      <point x="673.833" y="1212.17"/>
      <point x="747.5" y="1134.5" type="curve" smooth="yes"/>
      <point x="821.167" y="1056.83"/>
      <point x="858" y="947.667"/>
      <point x="858" y="807" type="curve" smooth="yes"/>
      <point x="858" y="433" type="line" smooth="yes"/>
      <point x="858" y="292.333"/>
      <point x="817.5" y="182.5"/>
      <point x="736.5" y="103.5" type="curve" smooth="yes"/>
      <point x="655.5" y="24.5"/>
      <point x="551.667" y="-15"/>
      <point x="425" y="-15" type="curve" smooth="yes"/>
      <point x="344.09" y="-15"/>
      <point x="248.452" y="1.97098"/>
      <point x="163" y="39" type="curve"/>
      <point x="189" y="165" type="line"/>
      <point x="271.872" y="127.199"/>
      <point x="338.53" y="116"/>
    </contour>
    <contour>
      <point x="465" y="545" type="curve" smooth="yes"/>
      <point x="591.349" y="545"/>
      <point x="664.112" y="623.833"/>
      <point x="690" y="687" type="curve"/>
      <point x="690" y="833" type="line" smooth="yes"/>
      <point x="690" y="924.333"/>
      <point x="669.833" y="995"/>
      <point x="629.5" y="1045" type="curve" smooth="yes"/>
      <point x="589.167" y="1095"/>
      <point x="535.333" y="1120"/>
      <point x="468" y="1120" type="curve" smooth="yes"/>
      <point x="326.648" y="1120"/>
      <point x="246" y="997.417"/>
      <point x="246" y="828" type="curve" smooth="yes"/>
      <point x="246" y="745.073"/>
      <point x="266.562" y="545"/>
    </contour>
  </outline>
</glyph>
<glyph name="semicolon" format="2">
  <advance width="444"/>
  <unicode hex="003B"/>
  <outline>
    <contour>
      <point x="305" y="777" type="line"/>
      <point x="137" y="777" type="line"/>
      <point x="137" y="946" type="line"/>
      <point x="305" y="946" type="line"/>
    </contour>
    <contour>
      <point x="310" y="77" type="line"/>
      <point x="182" y="-182" type="line"/>
      <point x="84" y="-182" type="line"/>
      <point x="142" y="86" type="line"/>
      <point x="142" y="224" type="line"/>
      <point x="310" y="224" type="line"/>
    </contour>
  </outline>
</glyph>
<glyph name="question" format="2">
  <advance width="822"/>
  <unicode hex="003F"/>
  <outline>
    <contour>
      <point x="51" y="948" type="line"/>
      <point x="51" y="1134.3"/>
      <point x="197.035" y="1248"/>
      <point x="403" y="1248" type="curve" smooth="yes"/>
      <point x="510.333" y="1248"/>
      <point x="594.833" y="1219.67"/>
      <point x="656.5" y="1163" type="curve" smooth="yes"/>
      <point x="718.167" y="1106.33"/>
      <point x="749" y="1029.33"/>
      <point x="749" y="932" type="curve" smooth="yes"/>
      <point x="749" y="855.333"/>
      <point x="729" y="787"/>
      <point x="689" y="727" type="curve" smooth="yes"/>
      <point x="586.995" y="573.993"/>
      <point x="492.448" y="528.618"/>
      <point x="476" y="461" type="curve" smooth="yes"/>
      <point x="470" y="436.333"/>
      <point x="467" y="398.333"/>
      <point x="467" y="347" type="curve"/>
      <point x="300" y="347" type="line"/>
      <point x="300" y="427.667"/>
      <point x="306.833" y="484"/>
      <point x="320.5" y="516" type="curve" smooth="yes"/>
      <point x="334.167" y="548"/>
      <point x="370" y="589.667"/>
      <point x="428" y="641" type="curve"/>
      <point x="483.333" y="706.333"/>
      <point x="522.833" y="757"/>
      <point x="546.5" y="793" type="curve" smooth="yes"/>
      <point x="570.167" y="829"/>
      <point x="582" y="872.333"/>
      <point x="582" y="923" type="curve" smooth="yes"/>
      <point x="582" y="987.187"/>
      <point x="560.66" y="1108"/>
      <point x="400" y="1108" type="curve" smooth="yes"/>
      <point x="361.632" y="1108"/>
      <point x="213" y="1098"/>
      <point x="213" y="943" type="curve"/>
      <point x="54" y="943" type="line"/>
    </contour>
    <contour>
      <point x="473" y="0" type="line"/>
      <point x="297" y="0" type="line"/>
      <point x="297" y="175" type="line"/>
      <point x="473" y="175" type="line"/>
    </contour>
  </outline>
</glyph>
<glyph name="at" format="2">
  <advance width="1549"/>
  <unicode hex="0040"/>
  <outline>
    <contour>
      <point x="1068" y="-244" type="line"/>
      <point x="1040.05" y="-262.465"/>
      <point x="939.854" y="-318"/>
      <point x="745" y="-318" type="curve" smooth="yes"/>
      <point x="536.333" y="-318"/>
      <point x="373.333" y="-247.833"/>
      <point x="256" y="-107.5" type="curve" smooth="yes"/>
      <point x="148.444" y="21.1389"/>
      <point x="94.6667" y="192.212"/>
      <point x="94.6667" y="405.719" type="curve" smooth="yes"/>
      <point x="94.6667" y="638.213"/>
      <point x="149.217" y="867.9"/>
      <point x="306" y="1048" type="curve" smooth="yes"/>
      <point x="436" y="1197.33"/>
      <point x="608" y="1272"/>
      <point x="822" y="1272" type="curve" smooth="yes"/>
      <point x="1031.33" y="1272"/>
      <point x="1193.17" y="1201.83"/>
      <point x="1307.5" y="1061.5" type="curve" smooth="yes"/>
      <point x="1412.64" y="932.454"/>
      <point x="1465.21" y="760.422"/>
      <point x="1465.21" y="545.405" type="curve" smooth="yes"/>
      <point x="1465.21" y="458.513"/>
      <point x="1461.51" y="313.262"/>
      <point x="1363" y="176.5" type="curve" smooth="yes"/>
      <point x="1300.33" y="89.5"/>
      <point x="1206.67" y="46"/>
      <point x="1082" y="46" type="curve" smooth="yes"/>
      <point x="1039.89" y="46"/>
      <point x="947.401" y="60.3162"/>
      <point x="910" y="180" type="curve"/>
      <point x="877.793" y="128.623"/>
      <point x="806.088" y="46"/>
      <point x="678" y="46" type="curve" smooth="yes"/>
      <point x="509.072" y="46"/>
      <point x="455.918" y="207.386"/>
      <point x="455.918" y="349.852" type="curve" smooth="yes"/>
      <point x="455.918" y="589.113"/>
      <point x="566.425" y="898"/>
      <point x="812" y="898" type="curve" smooth="yes"/>
      <point x="902.232" y="898"/>
      <point x="960.602" y="885.898"/>
      <point x="1071" y="810" type="curve"/>
      <point x="1068" y="805" type="line"/>
      <point x="1073" y="805" type="line"/>
      <point x="1030" y="311" type="line" smooth="yes"/>
      <point x="1028.75" y="296.412"/>
      <point x="1028.12" y="282.894"/>
      <point x="1028.12" y="270.446" type="curve" smooth="yes"/>
      <point x="1028.12" y="231.384"/>
      <point x="1030.46" y="148"/>
      <point x="1128" y="148" type="curve" smooth="yes"/>
      <point x="1256.69" y="148"/>
      <point x="1345.11" y="293.322"/>
      <point x="1353" y="488" type="curve" smooth="yes"/>
      <point x="1353.88" y="508.233"/>
      <point x="1354.32" y="528.043"/>
      <point x="1354.32" y="547.431" type="curve" smooth="yes"/>
      <point x="1354.32" y="816.174"/>
      <point x="1267.93" y="1170"/>
      <point x="813" y="1170" type="curve" smooth="yes"/>
      <point x="638.333" y="1170"/>
      <point x="498.333" y="1105.17"/>
      <point x="393" y="975.5" type="curve" smooth="yes"/>
      <point x="300.672" y="861.843"/>
      <point x="220.906" y="685.159"/>
      <point x="220.906" y="413.749" type="curve" smooth="yes"/>
      <point x="220.906" y="227.539"/>
      <point x="264.104" y="77.9558"/>
      <point x="350.5" y="-35" type="curve" smooth="yes"/>
      <point x="444.833" y="-158.333"/>
      <point x="578.667" y="-220"/>
      <point x="752" y="-220" type="curve" smooth="yes"/>
      <point x="788.98" y="-220"/>
      <point x="925.2" y="-215.626"/>
      <point x="1036" y="-155" type="curve"/>
    </contour>
    <contour>
      <point x="605.897" y="351.882" type="curve" smooth="yes"/>
      <point x="605.897" y="195.746"/>
      <point x="670.869" y="170"/>
      <point x="727" y="170" type="curve" smooth="yes"/>
      <point x="785.895" y="170"/>
      <point x="847.302" y="193.29"/>
      <point x="898" y="264" type="curve"/>
      <point x="896.705" y="278.246"/>
      <point x="897.592" y="292.691"/>
      <point x="899" y="311" type="curve" smooth="yes"/>
      <point x="939" y="767" type="line"/>
      <point x="918.575" y="774.427"/>
      <point x="881.25" y="788"/>
      <point x="841" y="788" type="curve" smooth="yes"/>
      <point x="736.47" y="788"/>
      <point x="635.189" y="721.086"/>
      <point x="609" y="415" type="curve" smooth="yes"/>
      <point x="606.932" y="392.436"/>
      <point x="605.897" y="371.397"/>
    </contour>
  </outline>
</glyph>
<glyph name="B" format="2">
  <advance width="1099"/>
  <unicode hex="0042"/>
  <outline>
    <contour>
      <point x="775" y="659" type="curve"/>
      <point x="950.573" y="634.734"/>
      <point x="1038" y="499.086"/>
      <point x="1038" y="341" type="curve" smooth="yes"/>
      <point x="1038" y="233.667"/>
      <point x="1001.33" y="150"/>
      <point x="928" y="90" type="curve" smooth="yes"/>
      <point x="854.667" y="30"/>
      <point x="755.667" y="0"/>
      <point x="631" y="0" type="curve" smooth="yes"/>
      <point x="144" y="0" type="line"/>
      <point x="144" y="1230" type="line"/>
      <point x="545" y="1230" type="line" smooth="yes"/>
      <point x="693.376" y="1230"/>
      <point x="956" y="1188.91"/>
      <point x="956" y="898" type="curve" smooth="yes"/>
      <point x="956" y="853.875"/>
      <point x="940.997" y="725.804"/>
    </contour>
    <contour>
      <point x="871" y="345" type="curve" smooth="yes"/>
      <point x="871" y="477.442"/>
      <point x="784.535" y="577"/>
      <point x="634" y="577" type="curve" smooth="yes"/>
      <point x="311" y="577" type="line"/>
      <point x="311" y="131" type="line"/>
      <point x="631" y="131" type="line" smooth="yes"/>
      <point x="715.835" y="131"/>
      <point x="871" y="156.734"/>
    </contour>
    <contour>
      <point x="789" y="902" type="curve" smooth="yes"/>
      <point x="789" y="961.992"/>
      <point x="774.825" y="1099"/>
      <point x="545" y="1099" type="curve" smooth="yes"/>
      <point x="311" y="1099" type="line"/>
      <point x="311" y="708" type="line"/>
      <point x="580" y="708" type="line" smooth="yes"/>
      <point x="617.677" y="708"/>
      <point x="789" y="718.11"/>
    </contour>
  </outline>
</glyph>
<glyph name="C" format="2">
  <advance width="1097"/>
  <unicode hex="0043"/>
  <outline>
    <contour>
      <point x="266" y="508" type="line" smooth="yes"/>
      <point x="266" y="332.595"/>
      <point x="344.383" y="116"/>
      <point x="585" y="116" type="curve" smooth="yes"/>
      <point x="668.333" y="116"/>
      <point x="735.167" y="140.833"/>
      <point x="785.5" y="190.5" type="curve" smooth="yes"/>
      <point x="835.833" y="240.167"/>
      <point x="861" y="309"/>
      <point x="861" y="397" type="curve"/>
      <point x="1021" y="397" type="line"/>
      <point x="1023" y="392" type="line"/>
      <point x="1023" y="276"/>
      <point x="981.833" y="179.167"/>
      <point x="899.5" y="101.5" type="curve" smooth="yes"/>
      <point x="817.167" y="23.8333"/>
      <point x="710.667" y="-15"/>
      <point x="580" y="-15" type="curve" smooth="yes"/>
      <point x="434.667" y="-15"/>
      <point x="318" y="34.1667"/>
      <point x="230" y="132.5" type="curve" smooth="yes"/>
      <point x="142" y="230.833"/>
      <point x="98" y="356"/>
      <point x="98" y="508" type="curve" smooth="yes"/>
      <point x="98" y="728" type="line" smooth="yes"/>
      <point x="98" y="878"/>
      <point x="142" y="1002.67"/>
      <point x="230" y="1102" type="curve" smooth="yes"/>
      <point x="318" y="1201.33"/>
      <point x="431.667" y="1251"/>
      <point x="571" y="1251" type="curve" smooth="yes"/>
      <point x="710.333" y="1251"/>
      <point x="820.5" y="1213.83"/>
      <point x="901.5" y="1139.5" type="curve" smooth="yes"/>
      <point x="982.5" y="1065.17"/>
      <point x="1023" y="967"/>
      <point x="1023" y="845" type="curve"/>
      <point x="1021" y="841" type="line"/>
      <point x="861" y="841" type="line"/>
      <point x="861" y="1020.03"/>
      <point x="745.566" y="1120"/>
      <point x="583" y="1120" type="curve" smooth="yes"/>
      <point x="348.474" y="1120"/>
      <point x="266" y="908.283"/>
      <point x="266" y="729" type="curve" smooth="yes"/>
    </contour>
  </outline>
</glyph>
<glyph name="D" format="2">
  <advance width="1171"/>
  <unicode hex="0044"/>
  <outline>
    <contour>
      <point x="144" y="0" type="line"/>
      <point x="144" y="1230" type="line"/>
      <point x="530" y="1230" type="line" smooth="yes"/>
      <point x="690" y="1230"/>
      <point x="819" y="1180.67"/>
      <point x="917" y="1082" type="curve" smooth="yes"/>
      <point x="1015" y="983.333"/>
      <point x="1064" y="855.333"/>
      <point x="1064" y="698" type="curve" smooth="yes"/>
      <point x="1064" y="531" type="line" smooth="yes"/>
      <point x="1064" y="374.333"/>
      <point x="1015" y="246.667"/>
      <point x="917" y="148" type="curve" smooth="yes"/>
      <point x="819" y="49.3333"/>
      <point x="690" y="0"/>
      <point x="530" y="0" type="curve" smooth="yes"/>
    </contour>
    <contour>
      <point x="898" y="700" type="line" smooth="yes"/>
      <point x="898" y="915.067"/>
      <point x="777.485" y="1099"/>
      <point x="530" y="1099" type="curve" smooth="yes"/>
      <point x="310" y="1099" type="line"/>
      <point x="310" y="131" type="line"/>
      <point x="530" y="131" type="line" smooth="yes"/>
      <point x="779.563" y="131"/>
      <point x="898" y="319.794"/>
      <point x="898" y="531" type="curve" smooth="yes"/>
    </contour>
  </outline>
</glyph>
<glyph name="F" format="2">
  <advance width="952"/>
  <unicode hex="0046"/>
  <outline>
    <contour>
      <point x="829" y="543" type="line"/>
      <point x="310" y="543" type="line"/>
      <point x="310" y="-1" type="line"/>
      <point x="144" y="-1" type="line"/>
      <point x="144" y="1230" type="line"/>
      <point x="914" y="1230" type="line"/>
      <point x="914" y="1099" type="line"/>
      <point x="310" y="1099" type="line"/>
      <point x="310" y="674" type="line"/>
      <point x="829" y="674" type="line"/>
    </contour>
  </outline>
</glyph>
<glyph name="G" format="2">
  <advance width="1171"/>
  <unicode hex="0047"/>
  <outline>
    <contour>
      <point x="593" y="116" type="curve" smooth="yes"/>
      <point x="701.522" y="116"/>
      <point x="805.057" y="138.816"/>
      <point x="861" y="211" type="curve"/>
      <point x="861" y="486" type="line"/>
      <point x="583" y="486" type="line"/>
      <point x="583" y="617" type="line"/>
      <point x="1028" y="617" type="line"/>
      <point x="1028" y="169" type="line"/>
      <point x="998.667" y="123"/>
      <point x="947.833" y="80.8333"/>
      <point x="875.5" y="42.5" type="curve" smooth="yes"/>
      <point x="803.167" y="4.16667"/>
      <point x="709" y="-15"/>
      <point x="593" y="-15" type="curve" smooth="yes"/>
      <point x="451.667" y="-15"/>
      <point x="334.667" y="31.8333"/>
      <point x="242" y="125.5" type="curve" smooth="yes"/>
      <point x="149.333" y="219.167"/>
      <point x="103" y="340"/>
      <point x="103" y="488" type="curve" smooth="yes"/>
      <point x="103" y="745" type="line" smooth="yes"/>
      <point x="103" y="893.667"/>
      <point x="147.833" y="1015.17"/>
      <point x="237.5" y="1109.5" type="curve" smooth="yes"/>
      <point x="327.167" y="1203.83"/>
      <point x="445.333" y="1251"/>
      <point x="592" y="1251" type="curve" smooth="yes"/>
      <point x="722.667" y="1251"/>
      <point x="827.167" y="1214.33"/>
      <point x="905.5" y="1141" type="curve" smooth="yes"/>
      <point x="983.833" y="1067.67"/>
      <point x="1023" y="974.667"/>
      <point x="1023" y="862" type="curve"/>
      <point x="1021" y="859" type="line"/>
      <point x="861" y="859" type="line"/>
      <point x="861" y="987.09"/>
      <point x="778.885" y="1120"/>
      <point x="590" y="1120" type="curve" smooth="yes"/>
      <point x="375.187" y="1120"/>
      <point x="270" y="944.396"/>
      <point x="270" y="746" type="curve" smooth="yes"/>
      <point x="270" y="488" type="line" smooth="yes"/>
      <point x="270" y="380"/>
      <point x="300.333" y="291"/>
      <point x="361" y="221" type="curve" smooth="yes"/>
      <point x="421.667" y="151"/>
      <point x="499" y="116"/>
    </contour>
  </outline>
</glyph>
<glyph name="J" format="2">
  <advance width="947"/>
  <unicode hex="004A"/>
  <outline>
    <contour>
      <point x="426" y="116" type="curve" smooth="yes"/>
      <point x="561.274" y="116"/>
      <point x="640" y="214.007"/>
      <point x="640" y="361" type="curve" smooth="yes"/>
      <point x="640" y="1233" type="line"/>
      <point x="808" y="1233" type="line"/>
      <point x="808" y="361" type="line" smooth="yes"/>
      <point x="808" y="120.77"/>
      <point x="647.89" y="-15"/>
      <point x="426" y="-15" type="curve" smooth="yes"/>
      <point x="324.759" y="-15"/>
      <point x="66" y="16.3625"/>
      <point x="66" y="337" type="curve"/>
      <point x="68" y="341" type="line"/>
      <point x="228" y="341" type="line"/>
      <point x="228" y="242.894"/>
      <point x="260.072" y="116"/>
    </contour>
  </outline>
</glyph>
<glyph name="L" format="2">
  <advance width="951"/>
  <unicode hex="004C"/>
  <outline>
    <contour>
      <point x="310" y="130" type="line"/>
      <point x="910" y="130" type="line"/>
      <point x="910" y="0" type="line"/>
      <point x="144" y="0" type="line"/>
      <point x="144" y="1230" type="line"/>
      <point x="310" y="1230" type="line"/>
    </contour>
  </outline>
</glyph>
<glyph name="O" format="2">
  <advance width="1180"/>
  <unicode hex="004F"/>
  <outline>
    <contour>
      <point x="1084" y="508" type="line" smooth="yes"/>
      <point x="1084" y="358.667"/>
      <point x="1037.33" y="234.167"/>
      <point x="944" y="134.5" type="curve" smooth="yes"/>
      <point x="850.667" y="34.8333"/>
      <point x="730.667" y="-15"/>
      <point x="584" y="-15" type="curve" smooth="yes"/>
      <point x="438.667" y="-15"/>
      <point x="320.833" y="34.6667"/>
      <point x="230.5" y="134" type="curve" smooth="yes"/>
      <point x="140.167" y="233.333"/>
      <point x="95" y="358"/>
      <point x="95" y="508" type="curve" smooth="yes"/>
      <point x="95" y="729" type="line" smooth="yes"/>
      <point x="95" y="877.667"/>
      <point x="140.167" y="1001.83"/>
      <point x="230.5" y="1101.5" type="curve" smooth="yes"/>
      <point x="320.833" y="1201.17"/>
      <point x="438.667" y="1251"/>
      <point x="584" y="1251" type="curve" smooth="yes"/>
      <point x="730.667" y="1251"/>
      <point x="850.667" y="1201.33"/>
      <point x="944" y="1102" type="curve" smooth="yes"/>
      <point x="1037.33" y="1002.67"/>
      <point x="1084" y="878.333"/>
      <point x="1084" y="729" type="curve" smooth="yes"/>
    </contour>
    <contour>
      <point x="585" y="121" type="curve" smooth="yes"/>
      <point x="795.391" y="121"/>
      <point x="917" y="287.982"/>
      <point x="917" y="508" type="curve" smooth="yes"/>
      <point x="917" y="730" type="line" smooth="yes"/>
      <point x="917" y="946.623"/>
      <point x="795.124" y="1115"/>
      <point x="584" y="1115" type="curve" smooth="yes"/>
      <point x="369.175" y="1115"/>
      <point x="262" y="937.69"/>
      <point x="262" y="730" type="curve" smooth="yes"/>
      <point x="262" y="508" type="line" smooth="yes"/>
      <point x="262" y="300.722"/>
      <point x="367.593" y="121"/>
    </contour>
  </outline>
</glyph>
<glyph name="P" format="2">
  <advance width="1100"/>
  <unicode hex="0050"/>
  <outline>
    <contour>
      <point x="311" y="492" type="line"/>
      <point x="311" y="-1" type="line"/>
      <point x="144" y="-1" type="line"/>
      <point x="144" y="1230" type="line"/>
      <point x="614" y="1230" type="line" smooth="yes"/>
      <point x="811" y="1230"/>
      <point x="1030" y="1027"/>
      <point x="1030" y="862" type="qcurve" smooth="yes"/>
      <point x="1030" y="695"/>
      <point x="811" y="492"/>
      <point x="614" y="492" type="qcurve" smooth="yes"/>
    </contour>
    <contour>
      <point x="311" y="623" type="line"/>
      <point x="614" y="623" type="line" smooth="yes"/>
      <point x="739" y="623"/>
      <point x="863" y="758"/>
      <point x="863" y="859" type="qcurve" smooth="yes"/>
      <point x="863" y="962"/>
      <point x="738" y="1099"/>
      <point x="614" y="1099" type="qcurve" smooth="yes"/>
      <point x="311" y="1099" type="line"/>
    </contour>
  </outline>
</glyph>
<glyph name="Q" format="2">
  <advance width="1205"/>
  <unicode hex="0051"/>
  <outline>
    <contour>
      <point x="856" y="80" type="line"/>
      <point x="797.72" y="39.8071"/>
      <point x="708.914" y="2"/>
      <point x="581" y="2" type="curve" smooth="yes"/>
      <point x="437.667" y="2"/>
      <point x="320.833" y="51.6667"/>
      <point x="230.5" y="151" type="curve" smooth="yes"/>
      <point x="140.167" y="250.333"/>
      <point x="95" y="375"/>
      <point x="95" y="525" type="curve" smooth="yes"/>
      <point x="95" y="746" type="line" smooth="yes"/>
      <point x="95" y="894.667"/>
      <point x="140.167" y="1018.83"/>
      <point x="230.5" y="1118.5" type="curve" smooth="yes"/>
      <point x="320.833" y="1218.17"/>
      <point x="438.667" y="1268"/>
      <point x="584" y="1268" type="curve" smooth="yes"/>
      <point x="730.667" y="1268"/>
      <point x="850.667" y="1218.33"/>
      <point x="944" y="1119" type="curve" smooth="yes"/>
      <point x="1037.33" y="1019.67"/>
      <point x="1084" y="895.333"/>
      <point x="1084" y="746" type="curve" smooth="yes"/>
      <point x="1084" y="525" type="line" smooth="yes"/>
      <point x="1084" y="452.631"/>
      <point x="1070" y="309.623"/>
      <point x="973" y="187" type="curve"/>
      <point x="1158" y="8" type="line"/>
      <point x="1044" y="-100" type="line"/>
    </contour>
    <contour>
      <point x="585" y="138" type="curve" smooth="yes"/>
      <point x="795.391" y="138"/>
      <point x="917" y="304.982"/>
      <point x="917" y="525" type="curve" smooth="yes"/>
      <point x="917" y="747" type="line" smooth="yes"/>
      <point x="917" y="963.623"/>
      <point x="795.124" y="1132"/>
      <point x="584" y="1132" type="curve" smooth="yes"/>
      <point x="369.175" y="1132"/>
      <point x="262" y="954.69"/>
      <point x="262" y="747" type="curve" smooth="yes"/>
      <point x="262" y="525" type="line" smooth="yes"/>
      <point x="262" y="317.722"/>
      <point x="367.593" y="138"/>
    </contour>
  </outline>
</glyph>
<glyph name="R" format="2">
  <advance width="1100"/>
  <unicode hex="0052"/>
  <outline>
    <contour>
      <point x="861" y="0" type="line"/>
      <point x="844.273" y="14.2667"/>
      <point x="809" y="44.3529"/>
      <point x="809" y="199" type="curve" smooth="yes"/>
      <point x="809" y="311" type="line" smooth="yes"/>
      <point x="809" y="378.333"/>
      <point x="789.833" y="432.167"/>
      <point x="751.5" y="472.5" type="curve" smooth="yes"/>
      <point x="713.167" y="512.833"/>
      <point x="660.667" y="533"/>
      <point x="594" y="533" type="curve" smooth="yes"/>
      <point x="311" y="533" type="line"/>
      <point x="311" y="0" type="line"/>
      <point x="144" y="0" type="line"/>
      <point x="144" y="1229" type="line"/>
      <point x="564" y="1229" type="line" smooth="yes"/>
      <point x="699.333" y="1229"/>
      <point x="802.333" y="1198.83"/>
      <point x="873" y="1138.5" type="curve" smooth="yes"/>
      <point x="943.667" y="1078.17"/>
      <point x="979" y="995.667"/>
      <point x="979" y="891" type="curve" smooth="yes"/>
      <point x="979" y="811.367"/>
      <point x="960.863" y="679.75"/>
      <point x="785" y="602" type="curve"/>
      <point x="833.876" y="586.515"/>
      <point x="976" y="538.076"/>
      <point x="976" y="314" type="curve" smooth="yes"/>
      <point x="976" y="198" type="line" smooth="yes"/>
      <point x="976" y="73.9693"/>
      <point x="1015.61" y="35.7585"/>
      <point x="1033" y="20" type="curve"/>
      <point x="1033" y="0" type="line"/>
    </contour>
    <contour>
      <point x="812" y="878" type="curve" smooth="yes"/>
      <point x="812" y="1005.07"/>
      <point x="748.31" y="1097"/>
      <point x="564" y="1097" type="curve" smooth="yes"/>
      <point x="311" y="1097" type="line"/>
      <point x="311" y="665" type="line"/>
      <point x="548" y="665" type="line" smooth="yes"/>
      <point x="708.931" y="665"/>
      <point x="812" y="711.824"/>
    </contour>
  </outline>
</glyph>
<glyph name="S" format="2">
  <advance width="1058"/>
  <unicode hex="0053"/>
  <outline>
    <contour>
      <point x="964" y="314" type="curve" smooth="yes"/>
      <point x="964" y="105.239"/>
      <point x="782.174" y="-15"/>
      <point x="552" y="-15" type="curve" smooth="yes"/>
      <point x="428" y="-15"/>
      <point x="321" y="18.1667"/>
      <point x="231" y="84.5" type="curve" smooth="yes"/>
      <point x="141" y="150.833"/>
      <point x="96" y="239.667"/>
      <point x="96" y="351" type="curve"/>
      <point x="98" y="357" type="line"/>
      <point x="256" y="357" type="line"/>
      <point x="256" y="280.333"/>
      <point x="285.5" y="221"/>
      <point x="344.5" y="179" type="curve" smooth="yes"/>
      <point x="403.5" y="137"/>
      <point x="472.333" y="116"/>
      <point x="551" y="116" type="curve" smooth="yes"/>
      <point x="624.333" y="116"/>
      <point x="683.667" y="133.5"/>
      <point x="729" y="168.5" type="curve" smooth="yes"/>
      <point x="774.333" y="203.5"/>
      <point x="797" y="251.667"/>
      <point x="797" y="313" type="curve" smooth="yes"/>
      <point x="797" y="454.881"/>
      <point x="677.661" y="511.596"/>
      <point x="527" y="550" type="curve" smooth="yes"/>
      <point x="311.401" y="605.341"/>
      <point x="129" y="711.66"/>
      <point x="129" y="913" type="curve" smooth="yes"/>
      <point x="129" y="1009"/>
      <point x="167" y="1089.33"/>
      <point x="243" y="1154" type="curve" smooth="yes"/>
      <point x="319" y="1218.67"/>
      <point x="417" y="1251"/>
      <point x="537" y="1251" type="curve" smooth="yes"/>
      <point x="667" y="1251"/>
      <point x="769.667" y="1214.17"/>
      <point x="845" y="1140.5" type="curve" smooth="yes"/>
      <point x="920.333" y="1066.83"/>
      <point x="958" y="981.333"/>
      <point x="958" y="884" type="curve"/>
      <point x="957" y="879" type="line"/>
      <point x="798" y="879" type="line"/>
      <point x="798" y="1010.78"/>
      <point x="700.507" y="1120"/>
      <point x="531" y="1120" type="curve" smooth="yes"/>
      <point x="359.397" y="1120"/>
      <point x="296" y="1013.18"/>
      <point x="296" y="922" type="curve" smooth="yes"/>
      <point x="296" y="829.388"/>
      <point x="350.023" y="750.05"/>
      <point x="576" y="690" type="curve" smooth="yes"/>
      <point x="891.528" y="605.425"/>
      <point x="964" y="454.762"/>
    </contour>
  </outline>
</glyph>
<glyph name="U" format="2">
  <advance width="1170"/>
  <unicode hex="0055"/>
  <outline>
    <contour>
      <point x="1050" y="1233" type="line"/>
      <point x="1050" y="416" type="line" smooth="yes"/>
      <point x="1050" y="280.667"/>
      <point x="1006.17" y="175"/>
      <point x="918.5" y="99" type="curve" smooth="yes"/>
      <point x="830.833" y="23"/>
      <point x="718.667" y="-15"/>
      <point x="582" y="-15" type="curve" smooth="yes"/>
      <point x="446.667" y="-15"/>
      <point x="336.667" y="23.1667"/>
      <point x="252" y="99.5" type="curve" smooth="yes"/>
      <point x="167.333" y="175.833"/>
      <point x="125" y="281.333"/>
      <point x="125" y="416" type="curve" smooth="yes"/>
      <point x="125" y="1233" type="line"/>
      <point x="291" y="1233" type="line"/>
      <point x="291" y="416" type="line" smooth="yes"/>
      <point x="291" y="322"/>
      <point x="318" y="248.5"/>
      <point x="372" y="195.5" type="curve" smooth="yes"/>
      <point x="426" y="142.5"/>
      <point x="496" y="116"/>
      <point x="582" y="116" type="curve" smooth="yes"/>
      <point x="670" y="116"/>
      <point x="742.333" y="142.5"/>
      <point x="799" y="195.5" type="curve" smooth="yes"/>
      <point x="855.667" y="248.5"/>
      <point x="884" y="322"/>
      <point x="884" y="416" type="curve" smooth="yes"/>
      <point x="884" y="1233" type="line"/>
    </contour>
  </outline>
</glyph>
<glyph name="V" format="2">
  <advance width="1094"/>
  <unicode hex="0056"/>
  <outline>
    <contour>
      <point x="517" y="324" type="line"/>
      <point x="545" y="221" type="line"/>
      <point x="549" y="221" type="line"/>
      <point x="578" y="324" type="line"/>
      <point x="895" y="1230" type="line"/>
      <point x="1075" y="1230" type="line"/>
      <point x="619" y="0" type="line"/>
      <point x="475" y="0" type="line"/>
      <point x="19" y="1230" type="line"/>
      <point x="199" y="1230" type="line"/>
    </contour>
  </outline>
</glyph>
<glyph name="W" format="2">
  <advance width="1489"/>
  <unicode hex="0057"/>
  <outline>
    <contour>
      <point x="391" y="426" type="line"/>
      <point x="411" y="265" type="line"/>
      <point x="415" y="264" type="line"/>
      <point x="445" y="426" type="line"/>
      <point x="663" y="1230" type="line"/>
      <point x="825" y="1230" type="line"/>
      <point x="1045" y="426" type="line"/>
      <point x="1075" y="262" type="line"/>
      <point x="1079" y="262" type="line"/>
      <point x="1101" y="426" type="line"/>
      <point x="1278" y="1230" type="line"/>
      <point x="1459" y="1230" type="line"/>
      <point x="1161" y="0" type="line"/>
      <point x="1013" y="0" type="line"/>
      <point x="767" y="853" type="line"/>
      <point x="749" y="964" type="line"/>
      <point x="743" y="964" type="line"/>
      <point x="726" y="853" type="line"/>
      <point x="476" y="0" type="line"/>
      <point x="327" y="0" type="line"/>
      <point x="31" y="1230" type="line"/>
      <point x="211" y="1230" type="line"/>
    </contour>
  </outline>
</glyph>
<glyph name="bracketleft" format="2">
  <advance width="465"/>
  <unicode hex="005B"/>
  <outline>
    <contour>
      <point x="445" y="1318" type="line"/>
      <point x="287" y="1318" type="line"/>
      <point x="287" y="-89" type="line"/>
      <point x="445" y="-89" type="line"/>
      <point x="445" y="-220" type="line"/>
      <point x="120" y="-220" type="line"/>
      <point x="120" y="1449" type="line"/>
      <point x="445" y="1449" type="line"/>
    </contour>
  </outline>
</glyph>
<glyph name="a" format="2">
  <advance width="950"/>
  <unicode hex="0061"/>
  <outline>
    <contour>
      <point x="830" y="187" type="line" smooth="yes"/>
      <point x="830" y="116.406"/>
      <point x="838.172" y="56.5727"/>
      <point x="854" y="3" type="curve"/>
      <point x="682" y="3" type="line"/>
      <point x="666.514" y="73.5456"/>
      <point x="664" y="107.75"/>
      <point x="664" y="140" type="curve"/>
      <point x="615.076" y="72.7301"/>
      <point x="521.798" y="-15"/>
      <point x="368" y="-15" type="curve" smooth="yes"/>
      <point x="186.402" y="-15"/>
      <point x="90" y="98.829"/>
      <point x="90" y="251" type="curve" smooth="yes"/>
      <point x="90" y="467.268"/>
      <point x="283.636" y="538"/>
      <point x="483" y="538" type="curve" smooth="yes"/>
      <point x="664" y="538" type="line"/>
      <point x="664" y="629" type="line" smooth="yes"/>
      <point x="664" y="673.519"/>
      <point x="649.12" y="803"/>
      <point x="476" y="803" type="curve" smooth="yes"/>
      <point x="359.177" y="803"/>
      <point x="295" y="736.491"/>
      <point x="295" y="665" type="curve"/>
      <point x="137" y="665" type="line"/>
      <point x="137" y="668" type="line" smooth="yes"/>
      <point x="136.692" y="672.447"/>
      <point x="136.538" y="676.866"/>
      <point x="136.538" y="681.259" type="curve" smooth="yes"/>
      <point x="136.538" y="743.385"/>
      <point x="167.358" y="800.132"/>
      <point x="229" y="851.5" type="curve" smooth="yes"/>
      <point x="295" y="906.5"/>
      <point x="380.333" y="934"/>
      <point x="485" y="934" type="curve" smooth="yes"/>
      <point x="651.455" y="934"/>
      <point x="830" y="859.966"/>
      <point x="830" y="627" type="curve" smooth="yes"/>
    </contour>
    <contour>
      <point x="408" y="125" type="curve" smooth="yes"/>
      <point x="540.968" y="125"/>
      <point x="637.293" y="207.168"/>
      <point x="664" y="278" type="curve"/>
      <point x="664" y="427" type="line"/>
      <point x="478" y="427" type="line" smooth="yes"/>
      <point x="326.997" y="427"/>
      <point x="256" y="336.379"/>
      <point x="256" y="254" type="curve" smooth="yes"/>
      <point x="256" y="210.368"/>
      <point x="273.222" y="125"/>
    </contour>
  </outline>
</glyph>
<glyph name="b" format="2">
  <advance width="981"/>
  <unicode hex="0062"/>
  <outline>
    <contour>
      <point x="287" y="807" type="line"/>
      <point x="334.867" y="874.904"/>
      <point x="413.221" y="934"/>
      <point x="541" y="934" type="curve" smooth="yes"/>
      <point x="653.667" y="934"/>
      <point x="741.833" y="889"/>
      <point x="805.5" y="799" type="curve" smooth="yes"/>
      <point x="869.167" y="709"/>
      <point x="901" y="590.333"/>
      <point x="901" y="443" type="curve" smooth="yes"/>
      <point x="901" y="425" type="line" smooth="yes"/>
      <point x="901" y="294.333"/>
      <point x="869.167" y="188.333"/>
      <point x="805.5" y="107" type="curve" smooth="yes"/>
      <point x="741.833" y="25.6667"/>
      <point x="654.667" y="-15"/>
      <point x="544" y="-15" type="curve" smooth="yes"/>
      <point x="433.54" y="-15"/>
      <point x="338.34" y="25.0672"/>
      <point x="276" y="128" type="curve"/>
      <point x="247" y="3" type="line"/>
      <point x="120" y="3" type="line"/>
      <point x="120" y="1321" type="line"/>
      <point x="287" y="1321" type="line"/>
    </contour>
    <contour>
      <point x="287" y="265" type="line"/>
      <point x="350.908" y="127.198"/>
      <point x="455.09" y="121"/>
      <point x="502" y="121" type="curve" smooth="yes"/>
      <point x="579.333" y="121"/>
      <point x="637.333" y="149"/>
      <point x="676" y="205" type="curve" smooth="yes"/>
      <point x="714.667" y="261"/>
      <point x="734" y="334.333"/>
      <point x="734" y="425" type="curve" smooth="yes"/>
      <point x="734" y="443" type="line" smooth="yes"/>
      <point x="734" y="548.585"/>
      <point x="711.509" y="798"/>
      <point x="499" y="798" type="curve" smooth="yes"/>
      <point x="427.739" y="798"/>
      <point x="342.917" y="769.833"/>
      <point x="287" y="658" type="curve"/>
    </contour>
  </outline>
</glyph>
<glyph name="c" format="2">
  <advance width="905"/>
  <unicode hex="0063"/>
  <outline>
    <contour>
      <point x="561" y="116"/>
      <point x="676" y="217"/>
      <point x="676" y="292" type="qcurve"/>
      <point x="826" y="292" type="line"/>
      <point x="829" y="287" type="line"/>
      <point x="833" y="169"/>
      <point x="623" y="-15"/>
      <point x="474" y="-15" type="qcurve" smooth="yes"/>
      <point x="293" y="-15"/>
      <point x="83" y="247"/>
      <point x="83" y="442" type="qcurve" smooth="yes"/>
      <point x="83" y="478" type="line" smooth="yes"/>
      <point x="83" y="670"/>
      <point x="293" y="934"/>
      <point x="479" y="934" type="qcurve" smooth="yes"/>
      <point x="636" y="934"/>
      <point x="829" y="745"/>
      <point x="829" y="607" type="qcurve"/>
      <point x="827" y="602" type="line"/>
      <point x="676" y="602" type="line"/>
      <point x="676" y="686"/>
      <point x="568" y="803"/>
      <point x="478" y="803" type="qcurve" smooth="yes"/>
      <point x="361" y="803"/>
      <point x="250" y="614"/>
      <point x="250" y="478" type="qcurve" smooth="yes"/>
      <point x="250" y="442" type="line" smooth="yes"/>
      <point x="250" y="305"/>
      <point x="360" y="116"/>
      <point x="477" y="116" type="qcurve" smooth="yes"/>
    </contour>
  </outline>
</glyph>
<glyph name="d" format="2">
  <advance width="982"/>
  <unicode hex="0064"/>
  <outline>
    <contour>
      <point x="439" y="-15" type="curve" smooth="yes"/>
      <point x="203.467" y="-15"/>
      <point x="83" y="176.546"/>
      <point x="83" y="425" type="curve" smooth="yes"/>
      <point x="83" y="443" type="line" smooth="yes"/>
      <point x="83" y="590.333"/>
      <point x="114.333" y="709"/>
      <point x="177" y="799" type="curve" smooth="yes"/>
      <point x="239.667" y="889"/>
      <point x="328" y="934"/>
      <point x="442" y="934" type="curve" smooth="yes"/>
      <point x="519.425" y="934"/>
      <point x="617.712" y="911.499"/>
      <point x="689" y="817" type="curve"/>
      <point x="689" y="1321" type="line"/>
      <point x="856" y="1321" type="line"/>
      <point x="856" y="3" type="line"/>
      <point x="729" y="3" type="line"/>
      <point x="703" y="119" type="line"/>
      <point x="633.268" y="14.4027"/>
      <point x="531.448" y="-15"/>
    </contour>
    <contour>
      <point x="689" y="675" type="line"/>
      <point x="655.958" y="735.754"/>
      <point x="595.018" y="798"/>
      <point x="484" y="798" type="curve" smooth="yes"/>
      <point x="403.333" y="798"/>
      <point x="344.167" y="765.167"/>
      <point x="306.5" y="699.5" type="curve" smooth="yes"/>
      <point x="268.833" y="633.833"/>
      <point x="250" y="548.333"/>
      <point x="250" y="443" type="curve" smooth="yes"/>
      <point x="250" y="425" type="line" smooth="yes"/>
      <point x="250" y="306.247"/>
      <point x="282.045" y="121"/>
      <point x="482" y="121" type="curve" smooth="yes"/>
      <point x="520.73" y="121"/>
      <point x="623.556" y="124.247"/>
      <point x="689" y="249" type="curve"/>
    </contour>
  </outline>
</glyph>
<glyph name="e" format="2">
  <advance width="905"/>
  <unicode hex="0065"/>
  <outline>
    <contour>
      <point x="506" y="-15" type="curve" smooth="yes"/>
      <point x="197.5" y="-15"/>
      <point x="83" y="210.821"/>
      <point x="83" y="443" type="curve" smooth="yes"/>
      <point x="83" y="480" type="line" smooth="yes"/>
      <point x="83" y="610.667"/>
      <point x="120.833" y="719"/>
      <point x="196.5" y="805" type="curve" smooth="yes"/>
      <point x="272.167" y="891"/>
      <point x="364.333" y="934"/>
      <point x="473" y="934" type="curve" smooth="yes"/>
      <point x="595.667" y="934"/>
      <point x="687.5" y="896"/>
      <point x="748.5" y="820" type="curve" smooth="yes"/>
      <point x="809.5" y="744"/>
      <point x="840" y="643"/>
      <point x="840" y="517" type="curve" smooth="yes"/>
      <point x="840" y="429" type="line"/>
      <point x="256" y="429" type="line"/>
      <point x="252" y="425" type="line"/>
      <point x="252" y="333.667"/>
      <point x="272.167" y="259.333"/>
      <point x="312.5" y="202" type="curve" smooth="yes"/>
      <point x="352.833" y="144.667"/>
      <point x="418.333" y="116"/>
      <point x="509" y="116" type="curve" smooth="yes"/>
      <point x="558.718" y="116"/>
      <point x="671.06" y="125.789"/>
      <point x="757" y="206" type="curve"/>
      <point x="822" y="98" type="line"/>
      <point x="783.23" y="60.8121"/>
      <point x="682.554" y="-15"/>
    </contour>
    <contour>
      <point x="675" y="573" type="line" smooth="yes"/>
      <point x="675" y="658.362"/>
      <point x="642.808" y="803"/>
      <point x="482" y="803" type="curve" smooth="yes"/>
      <point x="323.78" y="803"/>
      <point x="271.823" y="657.702"/>
      <point x="261" y="563" type="curve"/>
      <point x="262" y="560" type="line"/>
      <point x="675" y="560" type="line"/>
    </contour>
  </outline>
</glyph>
<glyph name="f" format="2">
  <advance width="568"/>
  <unicode hex="0066"/>
  <outline>
    <contour>
      <point x="503" y="1200" type="curve" smooth="yes"/>
      <point x="460.893" y="1200"/>
      <point x="358" y="1193.22"/>
      <point x="358" y="1030" type="curve" smooth="yes"/>
      <point x="358" y="914" type="line"/>
      <point x="521" y="914" type="line"/>
      <point x="521" y="791" type="line"/>
      <point x="358" y="791" type="line"/>
      <point x="358" y="0" type="line"/>
      <point x="190" y="0" type="line"/>
      <point x="190" y="791" type="line"/>
      <point x="48" y="791" type="line"/>
      <point x="48" y="914" type="line"/>
      <point x="190" y="914" type="line"/>
      <point x="190" y="1030" type="line" smooth="yes"/>
      <point x="190" y="1127.33"/>
      <point x="215.5" y="1202.67"/>
      <point x="266.5" y="1256" type="curve" smooth="yes"/>
      <point x="317.5" y="1309.33"/>
      <point x="388" y="1336"/>
      <point x="478" y="1336" type="curve" smooth="yes"/>
      <point x="507.239" y="1336"/>
      <point x="543.691" y="1333.43"/>
      <point x="602" y="1318" type="curve"/>
      <point x="582" y="1192" type="line"/>
      <point x="536.524" y="1198.5"/>
      <point x="524.284" y="1200"/>
    </contour>
  </outline>
</glyph>
<glyph name="g" format="2">
  <advance width="981"/>
  <unicode hex="0067"/>
  <outline>
    <contour>
      <point x="91" y="503" type="line" smooth="yes"/>
      <point x="91" y="724"/>
      <point x="280" y="993"/>
      <point x="450" y="993" type="qcurve" smooth="yes"/>
      <point x="536" y="993"/>
      <point x="667" y="923"/>
      <point x="711" y="856" type="qcurve"/>
      <point x="732" y="976" type="line"/>
      <point x="865" y="976" type="line"/>
      <point x="865" y="56" type="line" smooth="yes"/>
      <point x="865" y="-118"/>
      <point x="661" y="-308"/>
      <point x="480" y="-308" type="qcurve" smooth="yes"/>
      <point x="403" y="-308"/>
      <point x="250" y="-272"/>
      <point x="192" y="-241" type="qcurve"/>
      <point x="218" y="-110" type="line"/>
      <point x="265" y="-136"/>
      <point x="402" y="-168"/>
      <point x="468" y="-168" type="qcurve" smooth="yes"/>
      <point x="589" y="-168"/>
      <point x="698" y="-56"/>
      <point x="698" y="56" type="qcurve" smooth="yes"/>
      <point x="698" y="161" type="line"/>
      <point x="654" y="103"/>
      <point x="530" y="44"/>
      <point x="447" y="44" type="qcurve" smooth="yes"/>
      <point x="280" y="44"/>
      <point x="91" y="287"/>
      <point x="91" y="485" type="qcurve" smooth="yes"/>
    </contour>
    <contour>
      <point x="258" y="485" type="line" smooth="yes"/>
      <point x="258" y="348"/>
      <point x="371" y="180"/>
      <point x="488" y="180" type="qcurve" smooth="yes"/>
      <point x="564" y="180"/>
      <point x="665" y="249"/>
      <point x="698" y="310" type="qcurve"/>
      <point x="698" y="731" type="line"/>
      <point x="666" y="789"/>
      <point x="564" y="857"/>
      <point x="492" y="857" type="qcurve" smooth="yes"/>
      <point x="371" y="857"/>
      <point x="258" y="660"/>
      <point x="258" y="503" type="qcurve" smooth="yes"/>
    </contour>
  </outline>
</glyph>
<glyph name="h" format="2">
  <advance width="981"/>
  <unicode hex="0068"/>
  <outline>
    <contour>
      <point x="504" y="796" type="curve" smooth="yes"/>
      <point x="447.606" y="796"/>
      <point x="347.916" y="780.99"/>
      <point x="287" y="685" type="curve"/>
      <point x="287" y="0" type="line"/>
      <point x="120" y="0" type="line"/>
      <point x="120" y="1318" type="line"/>
      <point x="287" y="1318" type="line"/>
      <point x="287" y="792" type="line"/>
      <point x="339.01" y="862.43"/>
      <point x="425.064" y="931"/>
      <point x="563" y="931" type="curve" smooth="yes"/>
      <point x="695.422" y="931"/>
      <point x="865" y="872.36"/>
      <point x="865" y="572" type="curve" smooth="yes"/>
      <point x="865" y="0" type="line"/>
      <point x="698" y="0" type="line"/>
      <point x="698" y="574" type="line" smooth="yes"/>
      <point x="698" y="726.825"/>
      <point x="631.421" y="796"/>
    </contour>
  </outline>
</glyph>
<glyph name="j" format="2">
  <advance width="447"/>
  <unicode hex="006A"/>
  <outline>
    <contour>
      <point x="26" y="-171" type="curve" smooth="yes"/>
      <point x="87.7412" y="-171"/>
      <point x="147" y="-138.349"/>
      <point x="147" y="-13" type="curve" smooth="yes"/>
      <point x="147" y="976" type="line"/>
      <point x="313" y="976" type="line"/>
      <point x="313" y="-13" type="line" smooth="yes"/>
      <point x="313" y="-108.333"/>
      <point x="288.667" y="-181.333"/>
      <point x="240" y="-232" type="curve" smooth="yes"/>
      <point x="191.333" y="-282.667"/>
      <point x="124.333" y="-308"/>
      <point x="39" y="-308" type="curve" smooth="yes"/>
      <point x="11.4142" y="-308"/>
      <point x="-14.9682" y="-305.677"/>
      <point x="-56" y="-292" type="curve"/>
      <point x="-45" y="-162" type="line"/>
      <point x="-25.0629" y="-168.134"/>
      <point x="9.7069" y="-171"/>
    </contour>
    <contour>
      <point x="307" y="1212" type="line"/>
      <point x="141" y="1212" type="line"/>
      <point x="141" y="1379" type="line"/>
      <point x="307" y="1379" type="line"/>
    </contour>
  </outline>
</glyph>
<glyph name="m" format="2">
  <advance width="1512"/>
  <unicode hex="006D"/>
  <outline>
    <contour>
      <point x="482" y="796" type="curve" smooth="yes"/>
      <point x="423.17" y="796"/>
      <point x="336.125" y="777.07"/>
      <point x="287" y="677" type="curve"/>
      <point x="287" y="0" type="line"/>
      <point x="120" y="0" type="line"/>
      <point x="120" y="914" type="line"/>
      <point x="269" y="914" type="line"/>
      <point x="281" y="794" type="line"/>
      <point x="328.672" y="862.86"/>
      <point x="411.88" y="931"/>
      <point x="554.5" y="931" type="curve" smooth="yes"/>
      <point x="642.171" y="931"/>
      <point x="757.433" y="901.631"/>
      <point x="810" y="762" type="curve"/>
      <point x="848.452" y="832.644"/>
      <point x="930.61" y="931"/>
      <point x="1090" y="931" type="curve" smooth="yes"/>
      <point x="1197.19" y="931"/>
      <point x="1392" y="884.567"/>
      <point x="1392" y="547" type="curve" smooth="yes"/>
      <point x="1392" y="0" type="line"/>
      <point x="1225" y="0" type="line"/>
      <point x="1225" y="548" type="line" smooth="yes"/>
      <point x="1225" y="661.393"/>
      <point x="1204.77" y="796"/>
      <point x="1043" y="796" type="curve" smooth="yes"/>
      <point x="983" y="796"/>
      <point x="935.5" y="776.333"/>
      <point x="900.5" y="737" type="curve" smooth="yes"/>
      <point x="865.5" y="697.667"/>
      <point x="845.333" y="648"/>
      <point x="840" y="588" type="curve"/>
      <point x="840" y="0" type="line"/>
      <point x="673" y="0" type="line"/>
      <point x="673" y="548" type="line" smooth="yes"/>
      <point x="673" y="668.716"/>
      <point x="643.316" y="796"/>
    </contour>
  </outline>
</glyph>
<glyph name="n" format="2">
  <advance width="982"/>
  <unicode hex="006E"/>
  <outline>
    <contour>
      <point x="503" y="796" type="curve" smooth="yes"/>
      <point x="471.09" y="796"/>
      <point x="354.298" y="795.772"/>
      <point x="287" y="678" type="curve"/>
      <point x="287" y="0" type="line"/>
      <point x="120" y="0" type="line"/>
      <point x="120" y="914" type="line"/>
      <point x="269" y="914" type="line"/>
      <point x="281" y="779" type="line"/>
      <point x="375.037" y="925.057"/>
      <point x="504.585" y="931"/>
      <point x="558" y="931" type="curve" smooth="yes"/>
      <point x="692.879" y="931"/>
      <point x="863" y="872.442"/>
      <point x="863" y="577" type="curve" smooth="yes"/>
      <point x="863" y="0" type="line"/>
      <point x="696" y="0" type="line"/>
      <point x="696" y="574" type="line" smooth="yes"/>
      <point x="696" y="703.295"/>
      <point x="658.84" y="796"/>
    </contour>
  </outline>
</glyph>
<glyph name="o" format="2">
  <advance width="982"/>
  <unicode hex="006F"/>
  <outline>
    <contour>
      <point x="83" y="469" type="line" smooth="yes"/>
      <point x="83" y="603.667"/>
      <point x="119.667" y="714.833"/>
      <point x="193" y="802.5" type="curve" smooth="yes"/>
      <point x="266.333" y="890.167"/>
      <point x="366" y="934"/>
      <point x="492" y="934" type="curve" smooth="yes"/>
      <point x="618.667" y="934"/>
      <point x="718.333" y="890.5"/>
      <point x="791" y="803.5" type="curve" smooth="yes"/>
      <point x="863.667" y="716.5"/>
      <point x="900" y="605"/>
      <point x="900" y="469" type="curve" smooth="yes"/>
      <point x="900" y="449" type="line" smooth="yes"/>
      <point x="900" y="313"/>
      <point x="863.833" y="201.667"/>
      <point x="791.5" y="115" type="curve" smooth="yes"/>
      <point x="719.167" y="28.3333"/>
      <point x="619.667" y="-15"/>
      <point x="493" y="-15" type="curve" smooth="yes"/>
      <point x="367" y="-15"/>
      <point x="267.167" y="28.3333"/>
      <point x="193.5" y="115" type="curve" smooth="yes"/>
      <point x="119.833" y="201.667"/>
      <point x="83" y="313"/>
      <point x="83" y="449" type="curve" smooth="yes"/>
    </contour>
    <contour>
      <point x="490" y="803" type="curve" smooth="yes"/>
      <point x="292.838" y="803"/>
      <point x="247" y="599.943"/>
      <point x="247" y="469" type="curve" smooth="yes"/>
      <point x="247" y="449" type="line" smooth="yes"/>
      <point x="247" y="381.849"/>
      <point x="261.612" y="116"/>
      <point x="493" y="116" type="curve" smooth="yes"/>
      <point x="689.883" y="116"/>
      <point x="736" y="317.319"/>
      <point x="736" y="449" type="curve" smooth="yes"/>
      <point x="736" y="469" type="line" smooth="yes"/>
      <point x="736" y="534.683"/>
      <point x="721.813" y="803"/>
    </contour>
  </outline>
</glyph>
<glyph name="p" format="2">
  <advance width="982"/>
  <unicode hex="0070"/>
  <outline>
    <contour>
      <point x="542" y="990" type="curve" smooth="yes"/>
      <point x="797.304" y="990"/>
      <point x="900" y="755.804"/>
      <point x="900" y="499" type="curve" smooth="yes"/>
      <point x="900" y="481" type="line" smooth="yes"/>
      <point x="900" y="349.667"/>
      <point x="868.5" y="243.5"/>
      <point x="805.5" y="162.5" type="curve" smooth="yes"/>
      <point x="742.5" y="81.5"/>
      <point x="655" y="41"/>
      <point x="543" y="41" type="curve" smooth="yes"/>
      <point x="485.549" y="41"/>
      <point x="369.022" y="50.472"/>
      <point x="287" y="153" type="curve"/>
      <point x="287" y="-293" type="line"/>
      <point x="120" y="-293" type="line"/>
      <point x="120" y="973" type="line"/>
      <point x="247" y="973" type="line"/>
      <point x="275" y="854" type="line"/>
      <point x="315.681" y="915.021"/>
      <point x="395.472" y="990"/>
    </contour>
    <contour>
      <point x="287" y="291" type="line"/>
      <point x="353.377" y="172.767"/>
      <point x="458.056" y="171"/>
      <point x="493" y="171" type="curve" smooth="yes"/>
      <point x="572.333" y="171"/>
      <point x="632.167" y="199.833"/>
      <point x="672.5" y="257.5" type="curve" smooth="yes"/>
      <point x="712.833" y="315.167"/>
      <point x="733" y="389.667"/>
      <point x="733" y="481" type="curve" smooth="yes"/>
      <point x="733" y="499" type="line" smooth="yes"/>
      <point x="733" y="592.847"/>
      <point x="713.051" y="854"/>
      <point x="491" y="854" type="curve" smooth="yes"/>
      <point x="427.004" y="854"/>
      <point x="343.408" y="831.715"/>
      <point x="287" y="733" type="curve"/>
    </contour>
  </outline>
</glyph>
<glyph name="q" format="2">
  <advance width="981"/>
  <unicode hex="0071"/>
  <outline>
    <contour>
      <point x="439" y="41" type="curve" smooth="yes"/>
      <point x="202.723" y="41"/>
      <point x="83" y="234.559"/>
      <point x="83" y="482" type="curve" smooth="yes"/>
      <point x="83" y="500" type="line" smooth="yes"/>
      <point x="83" y="647.333"/>
      <point x="114.333" y="765.833"/>
      <point x="177" y="855.5" type="curve" smooth="yes"/>
      <point x="239.667" y="945.167"/>
      <point x="327.667" y="990"/>
      <point x="441" y="990" type="curve" smooth="yes"/>
      <point x="473.976" y="990"/>
      <point x="604.771" y="989.329"/>
      <point x="696" y="867" type="curve"/>
      <point x="720" y="973" type="line"/>
      <point x="847" y="973" type="line"/>
      <point x="847" y="-293" type="line"/>
      <point x="680" y="-293" type="line"/>
      <point x="680" y="146" type="line"/>
      <point x="630.951" y="86.6849"/>
      <point x="555.405" y="41"/>
    </contour>
    <contour>
      <point x="680" y="747" type="line"/>
      <point x="643.413" y="807.598"/>
      <point x="583.378" y="859"/>
      <point x="485" y="859" type="curve" smooth="yes"/>
      <point x="405.667" y="859"/>
      <point x="346.667" y="825.333"/>
      <point x="308" y="758" type="curve" smooth="yes"/>
      <point x="269.333" y="690.667"/>
      <point x="250" y="604.667"/>
      <point x="250" y="500" type="curve" smooth="yes"/>
      <point x="250" y="482" type="line" smooth="yes"/>
      <point x="250" y="373.746"/>
      <point x="277.441" y="172"/>
      <point x="482" y="172" type="curve" smooth="yes"/>
      <point x="524.381" y="172"/>
      <point x="617.174" y="178.055"/>
      <point x="680" y="288" type="curve"/>
    </contour>
  </outline>
</glyph>
<glyph name="r" format="2">
  <advance width="605"/>
  <unicode hex="0072"/>
  <outline>
    <contour>
      <point x="553" y="767" type="line"/>
      <point x="468" y="772" type="line" smooth="yes"/>
      <point x="402" y="776"/>
      <point x="311" y="709"/>
      <point x="287" y="653" type="qcurve"/>
      <point x="287" y="0" type="line"/>
      <point x="120" y="0" type="line"/>
      <point x="120" y="914" type="line"/>
      <point x="269" y="914" type="line"/>
      <point x="286" y="780" type="line"/>
      <point x="324" y="852"/>
      <point x="439" y="931"/>
      <point x="512" y="931" type="qcurve" smooth="yes"/>
      <point x="530" y="931"/>
      <point x="564" y="925"/>
      <point x="577" y="922" type="qcurve"/>
    </contour>
  </outline>
</glyph>
<glyph name="s" format="2">
  <advance width="904"/>
  <unicode hex="0073"/>
  <outline>
    <contour>
      <point x="465" y="116" type="curve" smooth="yes"/>
      <point x="587.086" y="116"/>
      <point x="651" y="177.219"/>
      <point x="651" y="249" type="curve" smooth="yes"/>
      <point x="651" y="335.228"/>
      <point x="577.797" y="370.796"/>
      <point x="448" y="400" type="curve" smooth="yes"/>
      <point x="130.26" y="468.375"/>
      <point x="117" y="600.741"/>
      <point x="117" y="664" type="curve" smooth="yes"/>
      <point x="117" y="736.667"/>
      <point x="148.667" y="799.833"/>
      <point x="212" y="853.5" type="curve" smooth="yes"/>
      <point x="275.333" y="907.167"/>
      <point x="357.333" y="934"/>
      <point x="458" y="934" type="curve" smooth="yes"/>
      <point x="562" y="934"/>
      <point x="646" y="905.833"/>
      <point x="710" y="849.5" type="curve" smooth="yes"/>
      <point x="771.44" y="795.42"/>
      <point x="802.16" y="732.585"/>
      <point x="802.16" y="660.994" type="curve" smooth="yes"/>
      <point x="802.16" y="652.4"/>
      <point x="802.16" y="652.4"/>
      <point x="800" y="647" type="curve"/>
      <point x="642" y="647" type="line"/>
      <point x="642" y="708.377"/>
      <point x="587.631" y="803"/>
      <point x="450" y="803" type="curve" smooth="yes"/>
      <point x="313.111" y="803"/>
      <point x="284" y="713.493"/>
      <point x="284" y="668" type="curve" smooth="yes"/>
      <point x="284" y="504.253"/>
      <point x="547.213" y="567.312"/>
      <point x="731" y="430" type="curve" smooth="yes"/>
      <point x="789" y="386.667"/>
      <point x="818" y="329"/>
      <point x="818" y="257" type="curve" smooth="yes"/>
      <point x="818" y="109.169"/>
      <point x="687.577" y="-15"/>
      <point x="461" y="-15" type="curve" smooth="yes"/>
      <point x="345.667" y="-15"/>
      <point x="254.333" y="14.6667"/>
      <point x="187" y="74" type="curve" smooth="yes"/>
      <point x="123.442" y="130.006"/>
      <point x="91.6636" y="194.328"/>
      <point x="91.6636" y="266.967" type="curve" smooth="yes"/>
      <point x="91.6636" y="276.031"/>
      <point x="91.6636" y="277.981"/>
      <point x="93" y="286" type="curve"/>
      <point x="252" y="286" type="line"/>
      <point x="254.667" y="226.667"/>
      <point x="276.667" y="183.5"/>
      <point x="318" y="156.5" type="curve" smooth="yes"/>
      <point x="359.333" y="129.5"/>
      <point x="408.333" y="116"/>
    </contour>
  </outline>
</glyph>
<glyph name="t" format="2">
  <advance width="582"/>
  <unicode hex="0074"/>
  <outline>
    <contour>
      <point x="405" y="-15" type="curve" smooth="yes"/>
      <point x="315.767" y="-15"/>
      <point x="186" y="22.1114"/>
      <point x="186" y="238" type="curve" smooth="yes"/>
      <point x="186" y="794" type="line"/>
      <point x="41" y="794" type="line"/>
      <point x="41" y="917" type="line"/>
      <point x="186" y="917" type="line"/>
      <point x="186" y="1137" type="line"/>
      <point x="353" y="1137" type="line"/>
      <point x="353" y="917" type="line"/>
      <point x="526" y="917" type="line"/>
      <point x="526" y="794" type="line"/>
      <point x="353" y="794" type="line"/>
      <point x="353" y="238" type="line" smooth="yes"/>
      <point x="353" y="210.848"/>
      <point x="353" y="122"/>
      <point x="448" y="122" type="curve" smooth="yes"/>
      <point x="451.408" y="122"/>
      <point x="476.318" y="122.439"/>
      <point x="511" y="134" type="curve"/>
      <point x="535" y="20" type="line"/>
      <point x="510.674" y="0.79506"/>
      <point x="458.288" y="-15"/>
    </contour>
  </outline>
</glyph>
<glyph name="u" format="2">
  <advance width="982"/>
  <unicode hex="0075"/>
  <outline>
    <contour>
      <point x="469" y="121" type="curve" smooth="yes"/>
      <point x="538.366" y="121"/>
      <point x="642.051" y="142.512"/>
      <point x="695" y="259" type="curve"/>
      <point x="695" y="917" type="line"/>
      <point x="862" y="917" type="line"/>
      <point x="862" y="3" type="line"/>
      <point x="712" y="3" type="line"/>
      <point x="701" y="139" type="line"/>
      <point x="658.9" y="63.8223"/>
      <point x="579.188" y="-15"/>
      <point x="430" y="-15" type="curve" smooth="yes"/>
      <point x="334" y="-15"/>
      <point x="258" y="16.8333"/>
      <point x="202" y="80.5" type="curve" smooth="yes"/>
      <point x="146" y="144.167"/>
      <point x="118" y="243.667"/>
      <point x="118" y="379" type="curve" smooth="yes"/>
      <point x="118" y="917" type="line"/>
      <point x="285" y="917" type="line"/>
      <point x="285" y="376" type="line" smooth="yes"/>
      <point x="285" y="197.834"/>
      <point x="328.053" y="121"/>
    </contour>
  </outline>
</glyph>
<glyph name="y" format="2">
  <advance width="869"/>
  <unicode hex="0079"/>
  <outline>
    <contour>
      <point x="401" y="400" type="line"/>
      <point x="430" y="285" type="line"/>
      <point x="435" y="285" type="line"/>
      <point x="660" y="976" type="line"/>
      <point x="845" y="976" type="line"/>
      <point x="461" y="-79" type="line" smooth="yes"/>
      <point x="438.333" y="-141"/>
      <point x="405.333" y="-194.667"/>
      <point x="362" y="-240" type="curve" smooth="yes"/>
      <point x="318.667" y="-285.333"/>
      <point x="262.667" y="-308"/>
      <point x="194" y="-308" type="curve" smooth="yes"/>
      <point x="163.134" y="-308"/>
      <point x="129.778" y="-302.549"/>
      <point x="87" y="-295" type="curve"/>
      <point x="104" y="-163" type="line"/>
      <point x="115.535" y="-162.972"/>
      <point x="163.953" y="-168"/>
      <point x="181" y="-168" type="curve" smooth="yes"/>
      <point x="215" y="-168"/>
      <point x="243" y="-152.167"/>
      <point x="265" y="-120.5" type="curve" smooth="yes"/>
      <point x="287" y="-88.8333"/>
      <point x="306" y="-53.6667"/>
      <point x="322" y="-15" type="curve" smooth="yes"/>
      <point x="362" y="81" type="line"/>
      <point x="22" y="976" type="line"/>
      <point x="209" y="976" type="line"/>
    </contour>
  </outline>
</glyph>
<glyph name="braceleft" format="2">
  <advance width="490"/>
  <unicode hex="007B"/>
  <outline>
    <contour>
      <point x="366" y="409" type="line"/>
      <point x="326" y="339" type="line"/>
      <point x="262" y="380" type="line"/>
      <point x="300" y="450" type="line"/>
    </contour>
    <contour>
      <point x="59" y="424" type="curve"/>
      <point x="59" y="420" type="line"/>
      <point x="54" y="408" type="line"/>
      <point x="47" y="373" type="line"/>
      <point x="47" y="370" type="line"/>
      <point x="45.6065" y="359.548"/>
      <point x="44.9097" y="349.425"/>
      <point x="44.9097" y="339.63" type="curve" smooth="yes"/>
      <point x="44.9097" y="192.226"/>
      <point x="210.07" y="142.538"/>
      <point x="307.728" y="142.538" type="curve" smooth="yes"/>
      <point x="365.909" y="142.538"/>
      <point x="427.667" y="156.359"/>
      <point x="493" y="184" type="curve"/>
      <point x="488" y="177" type="line"/>
      <point x="465" y="160" type="line"/>
      <point x="464" y="158" type="line"/>
      <point x="460" y="157" type="line"/>
      <point x="455.003" y="152.003"/>
      <point x="449.008" y="149.004"/>
      <point x="449" y="149" type="curve" smooth="yes"/>
      <point x="445.667" y="145.667"/>
      <point x="441" y="142.667"/>
      <point x="435" y="140" type="curve"/>
      <point x="433" y="137" type="line"/>
      <point x="402" y="121" type="line"/>
      <point x="389" y="116" type="line"/>
      <point x="385" y="113" type="line"/>
      <point x="371.545" y="109.636"/>
      <point x="371.545" y="109.636"/>
      <point x="365" y="106" type="curve"/>
      <point x="354.2" y="102.4"/>
      <point x="354.2" y="102.4"/>
      <point x="343" y="101" type="curve"/>
      <point x="340" y="98" type="line"/>
      <point x="336" y="98" type="line"/>
      <point x="309" y="93" type="line"/>
      <point x="289" y="91" type="line"/>
      <point x="285" y="89" type="line"/>
      <point x="281.667" y="89"/>
      <point x="277.333" y="88.6667"/>
      <point x="272" y="88" type="curve" smooth="yes"/>
      <point x="211" y="88" type="line"/>
      <point x="205.667" y="90"/>
      <point x="199" y="91"/>
      <point x="191" y="91" type="curve"/>
      <point x="185" y="93"/>
      <point x="178.667" y="94"/>
      <point x="172" y="94" type="curve"/>
      <point x="169.31" y="95.6434"/>
      <point x="166.801" y="97.4681"/>
      <point x="163" y="98" type="curve" smooth="yes"/>
      <point x="160" y="98" type="line"/>
      <point x="149.333" y="102"/>
      <point x="149.333" y="102"/>
      <point x="147" y="102" type="curve" smooth="yes"/>
      <point x="119" y="115" type="line"/>
      <point x="114" y="116" type="line"/>
      <point x="108" y="121.333"/>
      <point x="100.333" y="126"/>
      <point x="91" y="130" type="curve" smooth="yes"/>
      <point x="91" y="130.2"/>
      <point x="91" y="130.2"/>
      <point x="83" y="135" type="curve"/>
      <point x="79" y="140.333"/>
      <point x="73.3333" y="145.333"/>
      <point x="66" y="150" type="curve"/>
      <point x="49" y="169" type="line"/>
      <point x="45" y="172" type="line"/>
      <point x="45" y="174"/>
      <point x="44.4444" y="174.556"/>
      <point x="40" y="179" type="curve"/>
      <point x="39" y="183" type="line"/>
      <point x="35" y="186" type="line"/>
      <point x="30.4425" y="197.394"/>
      <point x="23.4843" y="208.274"/>
      <point x="21" y="212" type="curve"/>
      <point x="19" y="220" type="line"/>
      <point x="17" y="222" type="line"/>
      <point x="12" y="234" type="line" smooth="yes"/>
      <point x="12" y="234.667"/>
      <point x="11.6667" y="235.333"/>
      <point x="11" y="236" type="curve" smooth="yes"/>
      <point x="11" y="240" type="line"/>
      <point x="4.62838" y="255.292"/>
      <point x="6.38485" y="264.23"/>
      <point x="4" y="269" type="curve"/>
      <point x="4" y="273.667"/>
      <point x="3" y="278.333"/>
      <point x="1" y="283" type="curve"/>
      <point x="1" y="445"/>
      <point x="70" y="569"/>
      <point x="208" y="655" type="curve"/>
      <point x="182" y="659" type="line"/>
      <point x="179" y="659" type="line"/>
      <point x="157" y="666.723"/>
      <point x="135.986" y="670.585"/>
      <point x="115.958" y="670.585" type="curve" smooth="yes"/>
      <point x="78.9363" y="670.585"/>
      <point x="45.2837" y="657.39"/>
      <point x="15" y="631" type="curve"/>
      <point x="15" y="685.667"/>
      <point x="43.6667" y="720.333"/>
      <point x="101" y="735" type="curve"/>
      <point x="138" y="735" type="line"/>
      <point x="142" y="734" type="line"/>
      <point x="146" y="734" type="line"/>
      <point x="149" y="732" type="line"/>
      <point x="156" y="732" type="line" smooth="yes"/>
      <point x="162" y="731.333"/>
      <point x="169" y="730.333"/>
      <point x="177" y="729" type="curve"/>
      <point x="185" y="729" type="line"/>
      <point x="187" y="727" type="line"/>
      <point x="191" y="727" type="line"/>
      <point x="211" y="724" type="line"/>
      <point x="217" y="724" type="line"/>
      <point x="227" y="721" type="line"/>
      <point x="231" y="721" type="line"/>
      <point x="253" y="717" type="line"/>
      <point x="256.333" y="718.333"/>
      <point x="260.667" y="718"/>
      <point x="266" y="716" type="curve"/>
      <point x="275" y="716" type="line"/>
      <point x="281" y="715" type="line"/>
      <point x="294" y="715" type="line"/>
      <point x="300" y="713" type="line"/>
      <point x="404" y="713" type="line"/>
      <point x="406.667" y="714.333"/>
      <point x="410" y="715"/>
      <point x="414" y="715" type="curve" smooth="yes"/>
      <point x="418" y="715" type="line"/>
      <point x="409" y="698" type="line"/>
      <point x="408" y="694" type="line"/>
      <point x="400" y="683" type="line"/>
      <point x="399" y="679" type="line"/>
      <point x="392" y="668" type="line" smooth="yes"/>
      <point x="389.333" y="662.667"/>
      <point x="385.667" y="656.667"/>
      <point x="381" y="650" type="curve"/>
      <point x="380" y="645" type="line"/>
      <point x="248" y="637.667"/>
      <point x="144.333" y="572.667"/>
      <point x="69" y="450" type="curve"/>
      <point x="69" y="446" type="line" smooth="yes"/>
      <point x="68.9048" y="445.778"/>
      <point x="60.7619" y="428.111"/>
    </contour>
  </outline>
</glyph>
<glyph name="braceright" format="2">
  <advance width="551"/>
  <unicode hex="007D"/>
  <outline>
    <contour>
      <point x="324" y="555" type="line"/>
      <point x="271" y="472" type="line"/>
      <point x="193" y="527" type="line"/>
      <point x="244" y="614" type="line"/>
    </contour>
    <contour>
      <point x="420" y="488" type="curve"/>
      <point x="435" y="512" type="line"/>
      <point x="470.294" y="454.353"/>
      <point x="487.941" y="391.516"/>
      <point x="487.941" y="323.488" type="curve" smooth="yes"/>
      <point x="487.941" y="291.729"/>
      <point x="484.85" y="271.112"/>
      <point x="482" y="259" type="curve" smooth="yes"/>
      <point x="480" y="248" type="line"/>
      <point x="472" y="225" type="line"/>
      <point x="472" y="221" type="line"/>
      <point x="468.667" y="216.333"/>
      <point x="466.333" y="210.667"/>
      <point x="465" y="204" type="curve"/>
      <point x="422.333" y="148.667"/>
      <point x="361.333" y="115.333"/>
      <point x="282" y="104" type="curve"/>
      <point x="120.144" y="104"/>
      <point x="39.2159" y="162.29"/>
      <point x="39.2159" y="278.869" type="curve" smooth="yes"/>
      <point x="39.2159" y="321.708"/>
      <point x="50.1439" y="372.419"/>
      <point x="72" y="431" type="curve"/>
      <point x="76" y="434.333"/>
      <point x="79" y="439.333"/>
      <point x="81" y="446" type="curve"/>
      <point x="83.6667" y="448"/>
      <point x="86" y="451.333"/>
      <point x="88" y="456" type="curve"/>
      <point x="98" y="465" type="line"/>
      <point x="105.333" y="463.667"/>
      <point x="107.667" y="458.333"/>
      <point x="105" y="449" type="curve"/>
      <point x="87.7965" y="413"/>
      <point x="79.1947" y="379.055"/>
      <point x="79.1947" y="347.166" type="curve" smooth="yes"/>
      <point x="79.1947" y="312.324"/>
      <point x="89.4631" y="279.935"/>
      <point x="110" y="250" type="curve"/>
      <point x="149.769" y="207.544"/>
      <point x="200.368" y="186.316"/>
      <point x="261.798" y="186.316" type="curve" smooth="yes"/>
      <point x="346.726" y="186.316"/>
      <point x="413.344" y="222.861"/>
      <point x="447" y="246" type="curve"/>
      <point x="447.14" y="249.488"/>
      <point x="447.209" y="252.977"/>
      <point x="447.209" y="256.465" type="curve" smooth="yes"/>
      <point x="447.209" y="302.977"/>
      <point x="434.806" y="349.488"/>
      <point x="410" y="396" type="curve"/>
      <point x="398" y="427" type="line"/>
      <point x="395" y="429" type="line"/>
      <point x="395" y="435" type="line"/>
      <point x="403.571" y="445.714"/>
      <point x="408.265" y="459.794"/>
      <point x="410" y="465" type="curve"/>
      <point x="412" y="467.667"/>
      <point x="414" y="471.333"/>
      <point x="416" y="476" type="curve" smooth="yes"/>
      <point x="418" y="478.667"/>
      <point x="419.333" y="482.667"/>
    </contour>
  </outline>
</glyph>
<glyph name="asciitilde" format="2">
  <advance width="979"/>
  <unicode hex="007E"/>
  <outline>
    <contour>
      <point x="672" y="399" type="curve" smooth="yes"/>
      <point x="741.453" y="399"/>
      <point x="790" y="462.462"/>
      <point x="790" y="534" type="curve"/>
      <point x="890" y="521" type="line"/>
      <point x="890" y="401.888"/>
      <point x="810.313" y="282"/>
      <point x="670" y="282" type="curve" smooth="yes"/>
      <point x="493.852" y="282"/>
      <point x="434.418" y="448"/>
      <point x="305" y="448" type="curve" smooth="yes"/>
      <point x="234.515" y="448"/>
      <point x="190" y="388.271"/>
      <point x="190" y="322" type="curve"/>
      <point x="90" y="334" type="line"/>
      <point x="90" y="450.639"/>
      <point x="167.173" y="565"/>
      <point x="306" y="565" type="curve" smooth="yes"/>
      <point x="487.046" y="565"/>
      <point x="543.974" y="399"/>
    </contour>
  </outline>
</glyph>
<glyph name="section" format="2">
  <advance width="662"/>
  <unicode hex="00A7"/>
  <outline>
    <contour>
      <point x="334" y="746" type="curve" smooth="yes"/>
      <point x="375.627" y="746"/>
      <point x="414.384" y="720.616"/>
      <point x="430" y="705" type="curve"/>
      <point x="433" y="705" type="line"/>
      <point x="458.654" y="710.701"/>
      <point x="491" y="724.361"/>
      <point x="491" y="757" type="curve" smooth="yes"/>
      <point x="491" y="796.795"/>
      <point x="433.597" y="821"/>
      <point x="386" y="821" type="curve" smooth="yes"/>
      <point x="293.181" y="821"/>
      <point x="164" y="709.603"/>
      <point x="164" y="615" type="curve" smooth="yes"/>
      <point x="164" y="580.981"/>
      <point x="177.985" y="537.459"/>
      <point x="260" y="460" type="curve" smooth="yes"/>
      <point x="291.1" y="425.626"/>
      <point x="386.341" y="339.841"/>
      <point x="443" y="258" type="curve" smooth="yes"/>
      <point x="459.04" y="235.174"/>
      <point x="501" y="175.462"/>
      <point x="501" y="115" type="curve" smooth="yes"/>
      <point x="501" y="100.889"/>
      <point x="501" y="59"/>
      <point x="457" y="15" type="curve"/>
      <point x="476" y="-21" type="line"/>
      <point x="549.2" y="56.6811"/>
      <point x="571" y="114.006"/>
      <point x="571" y="171" type="curve" smooth="yes"/>
      <point x="571" y="279.788"/>
      <point x="473.489" y="378.776"/>
      <point x="326" y="528.5" type="curve" smooth="yes"/>
      <point x="304" y="550.833"/>
      <point x="283" y="571.667"/>
      <point x="263" y="591" type="curve" smooth="yes"/>
      <point x="243.667" y="609.667"/>
      <point x="234" y="630.667"/>
      <point x="234" y="654" type="curve" smooth="yes"/>
      <point x="234" y="712.562"/>
      <point x="282.691" y="746"/>
    </contour>
    <contour>
      <point x="317" y="-197" type="curve" smooth="yes"/>
      <point x="383.637" y="-197"/>
      <point x="416" y="-143.017"/>
      <point x="416" y="-99" type="curve" smooth="yes"/>
      <point x="416" y="-85.6667"/>
      <point x="413" y="-73.6667"/>
      <point x="407" y="-63" type="curve"/>
      <point x="404.196" y="-55.5217"/>
      <point x="401.307" y="-50.3507"/>
      <point x="387" y="-34" type="curve" smooth="yes"/>
      <point x="207.294" y="139.509"/>
      <point x="84" y="263.28"/>
      <point x="84" y="375" type="curve" smooth="yes"/>
      <point x="84" y="464.56"/>
      <point x="138.758" y="528.699"/>
      <point x="177" y="570" type="curve"/>
      <point x="196" y="533" type="line"/>
      <point x="160.581" y="497.581"/>
      <point x="154" y="458.301"/>
      <point x="154" y="434" type="curve" smooth="yes"/>
      <point x="154" y="362.37"/>
      <point x="206.514" y="276.029"/>
      <point x="345.5" y="140" type="curve" smooth="yes"/>
      <point x="462.759" y="25.2363"/>
      <point x="487" y="-10.8958"/>
      <point x="487" y="-60" type="curve" smooth="yes"/>
      <point x="487" y="-158.57"/>
      <point x="362.77" y="-272"/>
      <point x="265" y="-272" type="curve" smooth="yes"/>
      <point x="220.141" y="-272"/>
      <point x="169" y="-249.659"/>
      <point x="169" y="-205" type="curve" smooth="yes"/>
      <point x="169" y="-172.876"/>
      <point x="199.983" y="-163.002"/>
      <point x="221" y="-160" type="curve"/>
      <point x="263.542" y="-192.413"/>
      <point x="299.839" y="-197"/>
    </contour>
  </outline>
</glyph>
<glyph name="dieresis" format="2">
  <advance width="586"/>
  <unicode hex="00A8"/>
  <outline>
    <contour>
      <point x="399" y="601" type="curve" smooth="yes"/>
      <point x="367.054" y="601"/>
      <point x="345" y="627.096"/>
      <point x="345" y="657" type="curve" smooth="yes"/>
      <point x="345" y="687.396"/>
      <point x="367.524" y="712"/>
      <point x="399" y="712" type="curve" smooth="yes"/>
      <point x="434.947" y="712"/>
      <point x="455" y="685.471"/>
      <point x="455" y="657" type="curve" smooth="yes"/>
      <point x="455" y="626.018"/>
      <point x="429.981" y="601"/>
    </contour>
    <contour>
      <point x="186" y="601" type="curve" smooth="yes"/>
      <point x="154.556" y="601"/>
      <point x="131" y="626.52"/>
      <point x="131" y="657" type="curve" smooth="yes"/>
      <point x="131" y="689.086"/>
      <point x="157.493" y="712"/>
      <point x="186" y="712" type="curve" smooth="yes"/>
      <point x="216.957" y="712"/>
      <point x="241" y="687.957"/>
      <point x="241" y="657" type="curve" smooth="yes"/>
      <point x="241" y="626.52"/>
      <point x="217.444" y="601"/>
    </contour>
  </outline>
</glyph>
<glyph name="copyright" format="2">
  <advance width="979"/>
  <unicode hex="00A9"/>
  <outline>
    <contour>
      <point x="512" y="589" type="curve" smooth="yes"/>
      <point x="442.537" y="589"/>
      <point x="354" y="543.901"/>
      <point x="354" y="410" type="curve" smooth="yes"/>
      <point x="354" y="294.407"/>
      <point x="419.595" y="219"/>
      <point x="511" y="219" type="curve" smooth="yes"/>
      <point x="565.111" y="219"/>
      <point x="606.811" y="239.432"/>
      <point x="636" y="327" type="curve"/>
      <point x="662" y="320" type="line"/>
      <point x="654.781" y="291.123"/>
      <point x="648.704" y="262.044"/>
      <point x="643" y="205" type="curve"/>
      <point x="552.421" y="183.547"/>
      <point x="524.05" y="183"/>
      <point x="499" y="183" type="curve" smooth="yes"/>
      <point x="348.658" y="183"/>
      <point x="257" y="276.358"/>
      <point x="257" y="398" type="curve" smooth="yes"/>
      <point x="257" y="551.53"/>
      <point x="391.238" y="625"/>
      <point x="528" y="625" type="curve" smooth="yes"/>
      <point x="584.302" y="625"/>
      <point x="632.928" y="612.592"/>
      <point x="649" y="608" type="curve"/>
      <point x="646.333" y="588"/>
      <point x="645" y="568.833"/>
      <point x="645" y="550.5" type="curve" smooth="yes"/>
      <point x="645" y="493" type="line"/>
      <point x="615" y="493" type="line"/>
      <point x="611.436" y="578.526"/>
      <point x="544.551" y="589"/>
    </contour>
    <contour>
      <point x="137" y="402" type="curve" smooth="yes"/>
      <point x="137" y="217.978"/>
      <point x="281.703" y="46"/>
      <point x="491" y="46" type="curve" smooth="yes"/>
      <point x="687.624" y="46"/>
      <point x="842" y="207.582"/>
      <point x="842" y="402" type="curve" smooth="yes"/>
      <point x="842" y="595.857"/>
      <point x="685.438" y="758"/>
      <point x="491" y="758" type="curve" smooth="yes"/>
      <point x="284.181" y="758"/>
      <point x="137" y="585.799"/>
    </contour>
    <contour>
      <point x="84" y="402" type="curve" smooth="yes"/>
      <point x="84" y="637.638"/>
      <point x="279.641" y="800"/>
      <point x="491" y="800" type="curve" smooth="yes"/>
      <point x="704.256" y="800"/>
      <point x="895" y="630.998"/>
      <point x="895" y="402" type="curve" smooth="yes"/>
      <point x="895" y="178.454"/>
      <point x="710.768" y="4"/>
      <point x="491" y="4" type="curve" smooth="yes"/>
      <point x="272.777" y="4"/>
      <point x="84" y="171.993"/>
    </contour>
  </outline>
</glyph>
<glyph name="registered" format="2">
  <advance width="979"/>
  <unicode hex="00AE"/>
  <outline>
    <contour>
      <point x="495" y="215" type="curve"/>
      <point x="494" y="191" type="line"/>
      <point x="304" y="191" type="line"/>
      <point x="301" y="215" type="line"/>
      <point x="345.249" y="217.458"/>
      <point x="359" y="224.732"/>
      <point x="359" y="268" type="curve" smooth="yes"/>
      <point x="359" y="552" type="line" smooth="yes"/>
      <point x="359" y="585.119"/>
      <point x="342.289" y="592"/>
      <point x="300" y="592" type="curve"/>
      <point x="301" y="616" type="line"/>
      <point x="311" y="615.333"/>
      <point x="324.333" y="615"/>
      <point x="341" y="615" type="curve" smooth="yes"/>
      <point x="369" y="615" type="line" smooth="yes"/>
      <point x="444.114" y="615"/>
      <point x="437.275" y="618"/>
      <point x="486" y="618" type="curve" smooth="yes"/>
      <point x="524.242" y="618"/>
      <point x="651" y="618"/>
      <point x="651" y="518" type="curve" smooth="yes"/>
      <point x="651" y="446.877"/>
      <point x="595.431" y="414.144"/>
      <point x="562" y="403" type="curve"/>
      <point x="577.407" y="371.001"/>
      <point x="630.075" y="272.76"/>
      <point x="647" y="251" type="curve"/>
      <point x="663.212" y="218.576"/>
      <point x="688.41" y="217.094"/>
      <point x="724" y="215" type="curve"/>
      <point x="723" y="191" type="line"/>
      <point x="586" y="191" type="line"/>
      <point x="528.5" y="306"/>
      <point x="528.5" y="306"/>
      <point x="528.5" y="306" type="curve" smooth="yes"/>
      <point x="487.685" y="382"/>
      <point x="485.244" y="382"/>
      <point x="465" y="382" type="curve" smooth="yes"/>
      <point x="437" y="382" type="line"/>
      <point x="437" y="254" type="line" smooth="yes"/>
      <point x="437" y="221.836"/>
      <point x="446.157" y="217.326"/>
    </contour>
    <contour>
      <point x="563" y="508" type="curve" smooth="yes"/>
      <point x="563" y="576.67"/>
      <point x="502.732" y="584"/>
      <point x="477" y="584" type="curve" smooth="yes"/>
      <point x="451.558" y="584"/>
      <point x="437" y="577.463"/>
      <point x="437" y="545" type="curve" smooth="yes"/>
      <point x="437" y="413" type="line"/>
      <point x="464" y="413" type="line" smooth="yes"/>
      <point x="558.057" y="413"/>
      <point x="563" y="491.497"/>
    </contour>
    <contour>
      <point x="137" y="403" type="curve" smooth="yes"/>
      <point x="137" y="218.752"/>
      <point x="280.887" y="46"/>
      <point x="491" y="46" type="curve" smooth="yes"/>
      <point x="688.357" y="46"/>
      <point x="842" y="208.219"/>
      <point x="842" y="403" type="curve" smooth="yes"/>
      <point x="842" y="599.483"/>
      <point x="682.705" y="758"/>
      <point x="491" y="758" type="curve" smooth="yes"/>
      <point x="286.876" y="758"/>
      <point x="137" y="589.508"/>
    </contour>
    <contour>
      <point x="84" y="403" type="curve" smooth="yes"/>
      <point x="84" y="638.1"/>
      <point x="280.301" y="800"/>
      <point x="491" y="800" type="curve" smooth="yes"/>
      <point x="703.561" y="800"/>
      <point x="895" y="631.522"/>
      <point x="895" y="403" type="curve" smooth="yes"/>
      <point x="895" y="179.033"/>
      <point x="711.492" y="4"/>
      <point x="491" y="4" type="curve" smooth="yes"/>
      <point x="272.077" y="4"/>
      <point x="84" y="172.52"/>
    </contour>
  </outline>
</glyph>
<glyph name="uni00B2" format="2">
  <advance width="439"/>
  <unicode hex="00B2"/>
  <outline>
    <contour>
      <point x="59" y="774" type="curve"/>
      <point x="95.0859" y="800.463"/>
      <point x="147.035" y="821"/>
      <point x="204" y="821" type="curve" smooth="yes"/>
      <point x="275.244" y="821"/>
      <point x="384" y="781.48"/>
      <point x="384" y="682" type="curve" smooth="yes"/>
      <point x="384" y="656.777"/>
      <point x="381.03" y="601.836"/>
      <point x="296.5" y="524.5" type="curve" smooth="yes"/>
      <point x="280.833" y="510.167"/>
      <point x="265" y="495.333"/>
      <point x="249" y="480" type="curve" smooth="yes"/>
      <point x="136" y="380" type="line"/>
      <point x="315" y="383" type="line" smooth="yes"/>
      <point x="349.842" y="383"/>
      <point x="361.04" y="397.476"/>
      <point x="385" y="443" type="curve"/>
      <point x="410" y="437" type="line"/>
      <point x="402.349" y="398.747"/>
      <point x="385" y="353.176"/>
      <point x="385" y="315" type="curve"/>
      <point x="34" y="315" type="line"/>
      <point x="29" y="331" type="line"/>
      <point x="166" y="462" type="line" smooth="yes"/>
      <point x="250.731" y="541.89"/>
      <point x="264.717" y="565.666"/>
      <point x="277" y="591" type="curve"/>
      <point x="292.847" y="618.732"/>
      <point x="294" y="652.705"/>
      <point x="294" y="662" type="curve" smooth="yes"/>
      <point x="294" y="746.448"/>
      <point x="213.656" y="756.154"/>
      <point x="190.216" y="756.154" type="curve" smooth="yes"/>
      <point x="110.975" y="756.154"/>
      <point x="96.1555" y="693.488"/>
      <point x="94" y="659" type="curve"/>
      <point x="63" y="661" type="line"/>
      <point x="63" y="729.35"/>
      <point x="61.8607" y="749.207"/>
    </contour>
  </outline>
</glyph>
<glyph name="uni00B3" format="2">
  <advance width="439"/>
  <unicode hex="00B3"/>
  <outline>
    <contour>
      <point x="58" y="781" type="curve"/>
      <point x="133.405" y="819.722"/>
      <point x="185.999" y="821"/>
      <point x="208" y="821" type="curve" smooth="yes"/>
      <point x="280.07" y="821"/>
      <point x="373" y="792.557"/>
      <point x="373" y="717" type="curve" smooth="yes"/>
      <point x="373" y="658.765"/>
      <point x="321.865" y="622.669"/>
      <point x="294" y="603" type="curve"/>
      <point x="393.261" y="569.251"/>
      <point x="403" y="492.01"/>
      <point x="403" y="463" type="curve" smooth="yes"/>
      <point x="403" y="351.234"/>
      <point x="293.835" y="289"/>
      <point x="183" y="289" type="curve" smooth="yes"/>
      <point x="151.687" y="289"/>
      <point x="33" y="298.322"/>
      <point x="33" y="364" type="curve" smooth="yes"/>
      <point x="33" y="388.292"/>
      <point x="54.6056" y="413.775"/>
      <point x="87" y="418" type="curve"/>
      <point x="90" y="418" type="line"/>
      <point x="108.239" y="366.09"/>
      <point x="154.805" y="337"/>
      <point x="202" y="337" type="curve" smooth="yes"/>
      <point x="271.576" y="337"/>
      <point x="306" y="390.322"/>
      <point x="306" y="447" type="curve" smooth="yes"/>
      <point x="306" y="534.699"/>
      <point x="239.488" y="552"/>
      <point x="187" y="552" type="curve" smooth="yes"/>
      <point x="169.667" y="552"/>
      <point x="151.333" y="550"/>
      <point x="132" y="546" type="curve"/>
      <point x="127" y="581" type="line"/>
      <point x="178.871" y="587.224"/>
      <point x="285" y="604.122"/>
      <point x="285" y="687" type="curve" smooth="yes"/>
      <point x="285" y="724.037"/>
      <point x="258.675" y="762"/>
      <point x="194" y="762" type="curve" smooth="yes"/>
      <point x="162.511" y="762"/>
      <point x="93.4787" y="749.793"/>
      <point x="90" y="675" type="curve"/>
      <point x="61" y="676" type="line"/>
      <point x="61" y="709"/>
      <point x="60.7037" y="716.111"/>
    </contour>
  </outline>
</glyph>
<glyph name="paragraph" format="2">
  <advance width="736"/>
  <unicode hex="00B6"/>
  <outline>
    <contour>
      <point x="363" y="167" type="curve"/>
      <point x="184.552" y="200.459"/>
      <point x="67" y="329.563"/>
      <point x="67" y="486" type="curve" smooth="yes"/>
      <point x="67" y="578.061"/>
      <point x="106.116" y="811"/>
      <point x="502" y="811" type="curve" smooth="yes"/>
      <point x="537.418" y="811"/>
      <point x="574.277" y="808.948"/>
      <point x="632" y="804" type="curve"/>
      <point x="636" y="776" type="line"/>
      <point x="562.728" y="767.859"/>
      <point x="550.451" y="761.965"/>
      <point x="536" y="731" type="curve" smooth="yes"/>
      <point x="534.066" y="727.019"/>
      <point x="460" y="564.187"/>
      <point x="460" y="295" type="curve" smooth="yes"/>
      <point x="460" y="124.025"/>
      <point x="488.946" y="-56.23"/>
      <point x="580" y="-200" type="curve"/>
      <point x="580" y="-202" type="line"/>
      <point x="570.322" y="-236.564"/>
      <point x="542.859" y="-257"/>
      <point x="513" y="-257" type="curve" smooth="yes"/>
      <point x="499.077" y="-257"/>
      <point x="471.727" y="-257"/>
      <point x="459" y="-201" type="curve"/>
      <point x="412.949" y="-37.7281"/>
      <point x="411" y="193.502"/>
      <point x="411" y="233" type="curve" smooth="yes"/>
      <point x="411" y="453.854"/>
      <point x="443.303" y="629.991"/>
      <point x="507" y="768" type="curve"/>
      <point x="458" y="768" type="line"/>
      <point x="396.573" y="630.102"/>
      <point x="362" y="464.999"/>
      <point x="362" y="248" type="curve" smooth="yes"/>
      <point x="362" y="244.412"/>
      <point x="363" y="167.81"/>
    </contour>
  </outline>
</glyph>
<glyph name="onequarter" format="2">
  <advance width="1046"/>
  <unicode hex="00BC"/>
  <outline>
    <contour>
      <point x="274" y="816" type="curve"/>
      <point x="279" y="812" type="line"/>
      <point x="277.069" y="781.108"/>
      <point x="274" y="771.325"/>
      <point x="274" y="745" type="curve" smooth="yes"/>
      <point x="274" y="399" type="line" smooth="yes"/>
      <point x="274" y="368.564"/>
      <point x="274" y="342"/>
      <point x="369" y="342" type="curve"/>
      <point x="367" y="315" type="line"/>
      <point x="321" y="315" type="line" smooth="yes"/>
      <point x="320.03" y="315"/>
      <point x="247.192" y="316"/>
      <point x="224" y="316" type="curve" smooth="yes"/>
      <point x="178.196" y="316"/>
      <point x="89.36" y="315"/>
      <point x="88" y="315" type="curve"/>
      <point x="86" y="341" type="line"/>
      <point x="189.155" y="343.788"/>
      <point x="191" y="361.284"/>
      <point x="191" y="429" type="curve" smooth="yes"/>
      <point x="191" y="737" type="line"/>
      <point x="77" y="721" type="line"/>
      <point x="69" y="755" type="line"/>
      <point x="130.101" y="769.709"/>
      <point x="185.643" y="786.548"/>
    </contour>
    <contour>
      <point x="770" y="847" type="line"/>
      <point x="815" y="821" type="line"/>
      <point x="271" y="-45" type="line"/>
      <point x="231" y="-18" type="line"/>
    </contour>
    <contour>
      <point x="860" y="387" type="curve" smooth="yes"/>
      <point x="860" y="152" type="line"/>
      <point x="928" y="152" type="line"/>
      <point x="936" y="145" type="line"/>
      <point x="933" y="95" type="line"/>
      <point x="860" y="95" type="line"/>
      <point x="860" y="-9" type="line"/>
      <point x="833.153" y="-9"/>
      <point x="808.831" y="-10.3976"/>
      <point x="775" y="-13" type="curve"/>
      <point x="776.333" y="7"/>
      <point x="777" y="22.3333"/>
      <point x="777" y="33" type="curve" smooth="yes"/>
      <point x="777" y="95" type="line"/>
      <point x="549" y="95" type="line"/>
      <point x="538" y="122" type="line"/>
      <point x="561.333" y="150.667"/>
      <point x="585.833" y="182"/>
      <point x="611.5" y="216" type="curve" smooth="yes"/>
      <point x="688.5" y="318" type="line" smooth="yes"/>
      <point x="712.915" y="350.341"/>
      <point x="712.915" y="350.341"/>
      <point x="832" y="504" type="curve"/>
      <point x="868" y="495" type="line"/>
      <point x="863.558" y="457.982"/>
      <point x="860" y="426.752"/>
    </contour>
    <contour>
      <point x="612" y="149" type="curve"/>
      <point x="777" y="149" type="line"/>
      <point x="777" y="365" type="line"/>
      <point x="774" y="366" type="line"/>
      <point x="736.167" y="319.368"/>
      <point x="736.167" y="319.368"/>
    </contour>
  </outline>
</glyph>
<glyph name="onehalf" format="2">
  <advance width="1046"/>
  <unicode hex="00BD"/>
  <outline>
    <contour>
      <point x="274" y="816" type="curve"/>
      <point x="279" y="812" type="line"/>
      <point x="275" y="748"/>
      <point x="275" y="748"/>
      <point x="275" y="745" type="curve" smooth="yes"/>
      <point x="275" y="731.94"/>
      <point x="274" y="689.56"/>
      <point x="274" y="689" type="curve" smooth="yes"/>
      <point x="274" y="399" type="line" smooth="yes"/>
      <point x="274" y="363.809"/>
      <point x="275.925" y="344.659"/>
      <point x="369" y="342" type="curve"/>
      <point x="367" y="315" type="line"/>
      <point x="319" y="315" type="line" smooth="yes"/>
      <point x="318" y="315"/>
      <point x="253.333" y="316"/>
      <point x="219" y="316" type="curve" smooth="yes"/>
      <point x="180.19" y="316"/>
      <point x="89.31" y="315"/>
      <point x="88" y="315" type="curve"/>
      <point x="86" y="341" type="line"/>
      <point x="189.155" y="343.788"/>
      <point x="191" y="361.284"/>
      <point x="191" y="429" type="curve" smooth="yes"/>
      <point x="191" y="737" type="line"/>
      <point x="77" y="721" type="line"/>
      <point x="69" y="755" type="line"/>
      <point x="130.101" y="769.709"/>
      <point x="185.643" y="786.548"/>
    </contour>
    <contour>
      <point x="772" y="847" type="line"/>
      <point x="816" y="821" type="line"/>
      <point x="271" y="-45" type="line"/>
      <point x="231" y="-18" type="line"/>
    </contour>
    <contour>
      <point x="667" y="464" type="curve"/>
      <point x="724.236" y="507.42"/>
      <point x="787.752" y="512"/>
      <point x="812" y="512" type="curve" smooth="yes"/>
      <point x="880.334" y="512"/>
      <point x="991" y="474.283"/>
      <point x="991" y="371" type="curve" smooth="yes"/>
      <point x="991" y="308.306"/>
      <point x="947.857" y="253.638"/>
      <point x="903.5" y="214" type="curve" smooth="yes"/>
      <point x="887.833" y="200"/>
      <point x="872" y="185"/>
      <point x="856" y="169" type="curve"/>
      <point x="744" y="69" type="line"/>
      <point x="922" y="73" type="line" smooth="yes"/>
      <point x="951.519" y="73"/>
      <point x="967.921" y="83.4333"/>
      <point x="992" y="134" type="curve"/>
      <point x="1018" y="127" type="line"/>
      <point x="997.364" y="49.6144"/>
      <point x="992" y="29.5"/>
      <point x="992" y="4" type="curve"/>
      <point x="939.101" y="4"/>
      <point x="842.51" y="5"/>
      <point x="841" y="5" type="curve" smooth="yes"/>
      <point x="823.593" y="5"/>
      <point x="767.74" y="7"/>
      <point x="767" y="7" type="curve" smooth="yes"/>
      <point x="766.3" y="7"/>
      <point x="710.2" y="5"/>
      <point x="697" y="5" type="curve" smooth="yes"/>
      <point x="670.472" y="5"/>
      <point x="656.417" y="4"/>
      <point x="641" y="4" type="curve"/>
      <point x="636" y="22" type="line"/>
      <point x="773" y="152" type="line" smooth="yes"/>
      <point x="860.454" y="234.595"/>
      <point x="901" y="282.144"/>
      <point x="901" y="352" type="curve" smooth="yes"/>
      <point x="901" y="445.269"/>
      <point x="804.915" y="446.542"/>
      <point x="799.674" y="446.542" type="curve" smooth="yes"/>
      <point x="739.641" y="446.542"/>
      <point x="704.672" y="408.755"/>
      <point x="701" y="350" type="curve"/>
      <point x="670" y="351" type="line"/>
      <point x="670" y="409.696"/>
      <point x="669.141" y="436.173"/>
    </contour>
  </outline>
</glyph>
<glyph name="Eth" format="2">
  <advance width="822"/>
  <unicode hex="00D0"/>
  <outline>
    <contour>
      <point x="39" y="703" type="curve"/>
      <point x="40" y="731" type="line"/>
      <point x="41.45" y="731"/>
      <point x="168.272" y="730"/>
      <point x="185" y="730" type="curve" smooth="yes"/>
      <point x="253.005" y="730"/>
      <point x="280.995" y="738"/>
      <point x="349" y="738" type="curve" smooth="yes"/>
      <point x="485.508" y="738"/>
      <point x="772" y="698.81"/>
      <point x="772" y="396" type="curve" smooth="yes"/>
      <point x="772" y="130.118"/>
      <point x="555.806" y="-8"/>
      <point x="338" y="-8" type="curve" smooth="yes"/>
      <point x="269.815" y="-8"/>
      <point x="240.574" y="2"/>
      <point x="171" y="2" type="curve" smooth="yes"/>
      <point x="170.34" y="2"/>
      <point x="109.827" y="1"/>
      <point x="105" y="1" type="curve" smooth="yes"/>
      <point x="96.0466" y="1"/>
      <point x="43.6201" y="0"/>
      <point x="43" y="0" type="curve" smooth="yes"/>
      <point x="41" y="26" type="line"/>
      <point x="131.175" y="34.4539"/>
      <point x="141" y="53.2682"/>
      <point x="141" y="124" type="curve" smooth="yes"/>
      <point x="141" y="362" type="line"/>
      <point x="44" y="362" type="line"/>
      <point x="41" y="406" type="line"/>
      <point x="141" y="406" type="line"/>
      <point x="141" y="633" type="line" smooth="yes"/>
      <point x="141" y="683.587"/>
      <point x="129.575" y="703"/>
    </contour>
    <contour>
      <point x="338" y="36" type="curve" smooth="yes"/>
      <point x="527.815" y="36"/>
      <point x="667" y="156.858"/>
      <point x="667" y="374" type="curve" smooth="yes"/>
      <point x="667" y="595.366"/>
      <point x="518.845" y="698"/>
      <point x="343" y="698" type="curve" smooth="yes"/>
      <point x="284.483" y="698"/>
      <point x="229" y="683.258"/>
      <point x="229" y="662" type="curve" smooth="yes"/>
      <point x="229" y="406" type="line"/>
      <point x="453" y="406" type="line"/>
      <point x="450" y="362" type="line"/>
      <point x="229" y="362" type="line"/>
      <point x="229" y="136" type="line" smooth="yes"/>
      <point x="229" y="76.3383"/>
      <point x="229.311" y="36"/>
    </contour>
  </outline>
</glyph>
<glyph name="divide" format="2">
  <advance width="910"/>
  <unicode hex="00F7"/>
  <outline>
    <contour>
      <point x="82" y="518" type="line"/>
      <point x="82" y="638" type="line"/>
      <point x="821" y="638" type="line"/>
      <point x="821" y="518" type="line"/>
    </contour>
    <contour>
      <point x="359" y="298" type="curve" smooth="yes"/>
      <point x="359" y="338.264"/>
      <point x="372.123" y="398"/>
      <point x="450" y="398" type="curve" smooth="yes"/>
      <point x="492.679" y="398"/>
      <point x="542" y="380.215"/>
      <point x="542" y="298" type="curve" smooth="yes"/>
      <point x="542" y="274.343"/>
      <point x="535.385" y="198"/>
      <point x="450" y="198" type="curve" smooth="yes"/>
      <point x="395.787" y="198"/>
      <point x="359" y="233.877"/>
    </contour>
    <contour>
      <point x="359" y="857" type="curve" smooth="yes"/>
      <point x="359" y="887.501"/>
      <point x="367.997" y="957"/>
      <point x="450" y="957" type="curve" smooth="yes"/>
      <point x="482.458" y="957"/>
      <point x="542" y="945.007"/>
      <point x="542" y="857" type="curve" smooth="yes"/>
      <point x="542" y="826.878"/>
      <point x="533.05" y="757"/>
      <point x="450" y="757" type="curve" smooth="yes"/>
      <point x="383.753" y="757"/>
      <point x="359" y="804.954"/>
    </contour>
  </outline>
</glyph>
<glyph name="tilde" format="2">
  <advance width="861"/>
  <unicode hex="02DC"/>
  <outline>
    <contour>
      <point x="546" y="1242" type="curve" smooth="yes"/>
      <point x="595.432" y="1242"/>
      <point x="635" y="1284.4"/>
      <point x="635" y="1340" type="curve"/>
      <point x="729" y="1312" type="line"/>
      <point x="729" y="1203.83"/>
      <point x="653.571" y="1115"/>
      <point x="548" y="1115" type="curve" smooth="yes"/>
      <point x="439.486" y="1115"/>
      <point x="385.514" y="1197"/>
      <point x="302" y="1197" type="curve" smooth="yes"/>
      <point x="252.568" y="1197"/>
      <point x="213" y="1154.6"/>
      <point x="213" y="1099" type="curve"/>
      <point x="119" y="1122" type="line"/>
      <point x="119" y="1229.14"/>
      <point x="195.245" y="1324"/>
      <point x="294" y="1324" type="curve" smooth="yes"/>
      <point x="393.288" y="1324"/>
      <point x="461.99" y="1242"/>
    </contour>
  </outline>
</glyph>
<glyph name="dotbelowcomb" format="2">
  <advance width="666"/>
  <unicode hex="0323"/>
  <outline>
    <contour>
      <point x="333" y="-82" type="curve" smooth="yes"/>
      <point x="374.815" y="-82"/>
      <point x="402" y="-108.978"/>
      <point x="402" y="-149" type="curve" smooth="yes"/>
      <point x="402" y="-190.751"/>
      <point x="371.718" y="-216"/>
      <point x="333" y="-216" type="curve" smooth="yes"/>
      <point x="292.757" y="-216"/>
      <point x="266.487" y="-189.234"/>
      <point x="266.487" y="-151.045" type="curve" smooth="yes"/>
      <point x="266.487" y="-87.1763"/>
      <point x="322.828" y="-82.3508"/>
    </contour>
  </outline>
</glyph>
<glyph name="uni0326" format="2">
  <advance width="666"/>
  <unicode hex="0326"/>
  <outline>
    <contour>
      <point x="347" y="-207" type="curve" smooth="yes"/>
      <point x="347" y="-157.236"/>
      <point x="292.242" y="-149.931"/>
      <point x="282" y="-149" type="curve"/>
      <point x="266.808" y="-139.505"/>
      <point x="266" y="-119.212"/>
      <point x="266" y="-115" type="curve" smooth="yes"/>
      <point x="266" y="-78.0503"/>
      <point x="299.003" y="-63"/>
      <point x="324" y="-63" type="curve" smooth="yes"/>
      <point x="380.901" y="-63"/>
      <point x="421" y="-116.77"/>
      <point x="421" y="-169" type="curve" smooth="yes"/>
      <point x="421" y="-240.216"/>
      <point x="357.185" y="-308.729"/>
      <point x="281" y="-335" type="curve"/>
      <point x="266" y="-302" type="line"/>
      <point x="325.798" y="-281.543"/>
      <point x="347" y="-234.888"/>
    </contour>
  </outline>
</glyph>
<glyph name="uni060C" format="2">
  <advance width="606"/>
  <unicode hex="060C"/>
  <outline>
    <contour>
      <point x="221" y="256" type="line"/>
      <point x="223" y="238"/>
      <point x="223" y="238"/>
      <point x="223" y="237" type="curve" smooth="yes"/>
      <point x="225" y="232" type="line"/>
      <point x="225" y="229" type="line"/>
      <point x="229" y="214" type="line"/>
      <point x="236.769" y="194.578"/>
      <point x="253.734" y="178.543"/>
      <point x="269" y="172" type="curve"/>
      <point x="272.333" y="169.333"/>
      <point x="277.333" y="167.667"/>
      <point x="284" y="167" type="curve" smooth="yes"/>
      <point x="289.333" y="165.667"/>
      <point x="295.333" y="164.667"/>
      <point x="302" y="164" type="curve" smooth="yes"/>
      <point x="322" y="164" type="line" smooth="yes"/>
      <point x="327.333" y="164"/>
      <point x="333.333" y="165"/>
      <point x="340" y="167" type="curve"/>
      <point x="344.667" y="167"/>
      <point x="350" y="168"/>
      <point x="356" y="170" type="curve" smooth="yes"/>
      <point x="360.667" y="170.667"/>
      <point x="366" y="172.333"/>
      <point x="372" y="175" type="curve" smooth="yes"/>
      <point x="386" y="181" type="line" smooth="yes"/>
      <point x="390" y="182.333"/>
      <point x="394" y="184.333"/>
      <point x="398" y="187" type="curve"/>
      <point x="401" y="187" type="line"/>
      <point x="405" y="188.333"/>
      <point x="409.333" y="190.667"/>
      <point x="414" y="194" type="curve" smooth="yes"/>
      <point x="417.333" y="195.333"/>
      <point x="420.667" y="197.667"/>
      <point x="424" y="201" type="curve"/>
      <point x="440" y="209" type="line" smooth="yes"/>
      <point x="442.667" y="210.333"/>
      <point x="445.667" y="212.667"/>
      <point x="449" y="216" type="curve"/>
      <point x="458" y="221" type="line"/>
      <point x="457" y="212" type="line"/>
      <point x="456" y="210" type="line"/>
      <point x="455.333" y="204.667"/>
      <point x="453.667" y="199.333"/>
      <point x="451" y="194" type="curve"/>
      <point x="450.333" y="189.333"/>
      <point x="448.667" y="184.333"/>
      <point x="446" y="179" type="curve" smooth="yes"/>
      <point x="444.667" y="174.333"/>
      <point x="443.333" y="169.333"/>
      <point x="442" y="164" type="curve" smooth="yes"/>
      <point x="436" y="148" type="line" smooth="yes"/>
      <point x="432.001" y="138.002"/>
      <point x="427.8" y="134.399"/>
      <point x="423" y="120" type="curve"/>
      <point x="421" y="117.333"/>
      <point x="419.667" y="114"/>
      <point x="419" y="110" type="curve"/>
      <point x="416" y="108" type="line"/>
      <point x="414.667" y="104"/>
      <point x="412" y="99.3333"/>
      <point x="408" y="94" type="curve" smooth="yes"/>
      <point x="406.667" y="90.6667"/>
      <point x="404.667" y="87.3333"/>
      <point x="402" y="84" type="curve" smooth="yes"/>
      <point x="392" y="69" type="line" smooth="yes"/>
      <point x="387.53" y="61.5497"/>
      <point x="382.654" y="58.5676"/>
      <point x="375" y="49" type="curve"/>
      <point x="373" y="48" type="line"/>
      <point x="367.663" y="42.6631"/>
      <point x="370.004" y="44.0035"/>
      <point x="363" y="37" type="curve" smooth="yes"/>
      <point x="359" y="34.3333"/>
      <point x="355.333" y="31.3333"/>
      <point x="352" y="28" type="curve"/>
      <point x="348.667" y="26.6667"/>
      <point x="345.333" y="24.3333"/>
      <point x="342" y="21" type="curve" smooth="yes"/>
      <point x="341.728" y="20.864"/>
      <point x="369.716" y="34.3582"/>
      <point x="315" y="7" type="curve"/>
      <point x="312" y="7" type="line"/>
      <point x="297" y="1" type="line" smooth="yes"/>
      <point x="294.333" y="1.00003"/>
      <point x="291" y="0.666697"/>
      <point x="287" y="0" type="curve" smooth="yes"/>
      <point x="257" y="0" type="line" smooth="yes"/>
      <point x="239.057" y="0"/>
      <point x="209.934" y="13.0787"/>
      <point x="200" y="25" type="curve" smooth="yes"/>
      <point x="196.667" y="27.6667"/>
      <point x="192.667" y="30.6667"/>
      <point x="188" y="34" type="curve"/>
      <point x="186" y="36.6667"/>
      <point x="184" y="40"/>
      <point x="182" y="44" type="curve" smooth="yes"/>
      <point x="171" y="58" type="line"/>
      <point x="156.367" y="94.5837"/>
      <point x="154.429" y="99.4286"/>
      <point x="150" y="126" type="curve"/>
      <point x="150" y="187" type="line"/>
      <point x="151" y="198" type="line"/>
      <point x="152" y="200" type="line"/>
      <point x="152" y="204.667"/>
      <point x="152.667" y="209.667"/>
      <point x="154" y="215" type="curve"/>
      <point x="154" y="218" type="line" smooth="yes"/>
      <point x="154.667" y="222.667"/>
      <point x="156" y="228"/>
      <point x="158" y="234" type="curve"/>
      <point x="158" y="239.333"/>
      <point x="159.333" y="245"/>
      <point x="162" y="251" type="curve" smooth="yes"/>
      <point x="163.333" y="255"/>
      <point x="164.667" y="260.333"/>
      <point x="166" y="267" type="curve" smooth="yes"/>
      <point x="170" y="284" type="line" smooth="yes"/>
      <point x="170.667" y="289.333"/>
      <point x="172.333" y="294.667"/>
      <point x="175" y="300" type="curve" smooth="yes"/>
      <point x="176.333" y="304.667"/>
      <point x="178" y="309.667"/>
      <point x="180" y="315" type="curve" smooth="yes"/>
      <point x="181.333" y="319.667"/>
      <point x="183.333" y="324.667"/>
      <point x="186" y="330" type="curve"/>
      <point x="190" y="345" type="line" smooth="yes"/>
      <point x="192" y="349"/>
      <point x="193.667" y="353.333"/>
      <point x="195" y="358" type="curve" smooth="yes"/>
      <point x="197" y="363.333"/>
      <point x="199.667" y="368.667"/>
      <point x="203" y="374" type="curve"/>
      <point x="207" y="386" type="line" smooth="yes"/>
      <point x="209.705" y="392.313"/>
      <point x="212.533" y="396.576"/>
      <point x="220" y="414" type="curve"/>
      <point x="222" y="416" type="line"/>
      <point x="223.333" y="420.667"/>
      <point x="225" y="425"/>
      <point x="227" y="429" type="curve" smooth="yes"/>
      <point x="229" y="432.333"/>
      <point x="231" y="436.667"/>
      <point x="233" y="442" type="curve"/>
      <point x="235" y="443" type="line"/>
      <point x="241.863" y="460.159"/>
      <point x="258.258" y="486.02"/>
      <point x="262" y="496" type="curve"/>
      <point x="264" y="497" type="line"/>
      <point x="265.333" y="501"/>
      <point x="267.667" y="505.333"/>
      <point x="271" y="510" type="curve" smooth="yes"/>
      <point x="273" y="514"/>
      <point x="275.667" y="518.333"/>
      <point x="279" y="523" type="curve"/>
      <point x="280.333" y="527"/>
      <point x="282.667" y="531.333"/>
      <point x="286" y="536" type="curve"/>
      <point x="287.333" y="540"/>
      <point x="290" y="544"/>
      <point x="294" y="548" type="curve"/>
      <point x="296" y="552"/>
      <point x="298.333" y="555.667"/>
      <point x="301" y="559" type="curve" smooth="yes"/>
      <point x="303.667" y="563"/>
      <point x="306" y="567.667"/>
      <point x="308" y="573" type="curve"/>
      <point x="310" y="574" type="line"/>
      <point x="311.333" y="577.333"/>
      <point x="313.667" y="580.667"/>
      <point x="317" y="584" type="curve" smooth="yes"/>
      <point x="317.143" y="584.285"/>
      <point x="329.389" y="604.545"/>
      <point x="334" y="611" type="curve" smooth="yes"/>
      <point x="343" y="623" type="line" smooth="yes"/>
      <point x="345.667" y="626.333"/>
      <point x="348" y="630.667"/>
      <point x="350" y="636" type="curve"/>
      <point x="352.667" y="638.667"/>
      <point x="356" y="642.333"/>
      <point x="360" y="647" type="curve" smooth="yes"/>
      <point x="362" y="649.667"/>
      <point x="364" y="653"/>
      <point x="366" y="657" type="curve" smooth="yes"/>
      <point x="366.667" y="657"/>
      <point x="367.333" y="657.667"/>
      <point x="368" y="659" type="curve" smooth="yes"/>
      <point x="370.667" y="661.667"/>
      <point x="373.333" y="664.667"/>
      <point x="376" y="668" type="curve"/>
      <point x="378" y="669" type="line"/>
      <point x="380" y="671.667"/>
      <point x="382.333" y="675"/>
      <point x="385" y="679" type="curve"/>
      <point x="387" y="680" type="line"/>
      <point x="389.667" y="682.667"/>
      <point x="392.333" y="686"/>
      <point x="395" y="690" type="curve"/>
      <point x="397" y="691" type="line"/>
      <point x="407" y="701" type="line" smooth="yes"/>
      <point x="410.333" y="705"/>
      <point x="414.333" y="708.333"/>
      <point x="419" y="711" type="curve" smooth="yes"/>
      <point x="420.481" y="712.481"/>
      <point x="424" y="716"/>
      <point x="430" y="719" type="curve"/>
      <point x="443" y="719" type="line"/>
      <point x="446.667" y="714.111"/>
      <point x="447" y="713.667"/>
      <point x="447" y="703" type="curve"/>
      <point x="446" y="701" type="line"/>
      <point x="446" y="696" type="line"/>
      <point x="444.667" y="692.667"/>
      <point x="443.667" y="688"/>
      <point x="443" y="682" type="curve"/>
      <point x="437" y="664" type="line" smooth="yes"/>
      <point x="435" y="660"/>
      <point x="432.333" y="655.667"/>
      <point x="429" y="651" type="curve"/>
      <point x="423" y="638" type="line"/>
      <point x="420.333" y="635.333"/>
      <point x="418" y="631.333"/>
      <point x="416" y="626" type="curve"/>
      <point x="414" y="625" type="line"/>
      <point x="412.667" y="621.667"/>
      <point x="410.333" y="618.333"/>
      <point x="407" y="615" type="curve"/>
      <point x="404.743" y="610.486"/>
      <point x="405.993" y="613.789"/>
      <point x="398" y="601" type="curve" smooth="yes"/>
      <point x="396" y="597.667"/>
      <point x="393.333" y="593.333"/>
      <point x="390" y="588" type="curve" smooth="yes"/>
      <point x="388" y="586"/>
      <point x="386" y="583"/>
      <point x="384" y="579" type="curve"/>
      <point x="379.755" y="574.755"/>
      <point x="382.91" y="577.213"/>
      <point x="373" y="564" type="curve" smooth="yes"/>
      <point x="364" y="552" type="line" smooth="yes"/>
      <point x="362" y="549.333"/>
      <point x="360" y="546"/>
      <point x="358" y="542" type="curve"/>
      <point x="356" y="541" type="line"/>
      <point x="354" y="537.667"/>
      <point x="351.333" y="533.333"/>
      <point x="348" y="528" type="curve"/>
      <point x="342.614" y="522.614"/>
      <point x="333.127" y="504.253"/>
      <point x="333" y="504" type="curve" smooth="yes"/>
      <point x="331" y="503" type="line"/>
      <point x="329.667" y="499.667"/>
      <point x="327.667" y="496.333"/>
      <point x="325" y="493" type="curve" smooth="yes"/>
      <point x="307" y="466" type="line" smooth="yes"/>
      <point x="306.689" y="465.533"/>
      <point x="283.15" y="428.3"/>
      <point x="278" y="418" type="curve"/>
      <point x="276" y="416" type="line"/>
      <point x="274" y="412"/>
      <point x="271.333" y="407.667"/>
      <point x="268" y="403" type="curve" smooth="yes"/>
      <point x="266.667" y="399.667"/>
      <point x="265" y="396"/>
      <point x="263" y="392" type="curve" smooth="yes"/>
      <point x="254" y="376" type="line" smooth="yes"/>
      <point x="252.667" y="373.333"/>
      <point x="251" y="369.333"/>
      <point x="249" y="364" type="curve"/>
      <point x="247" y="363" type="line"/>
      <point x="245" y="359.667"/>
      <point x="243.333" y="354.667"/>
      <point x="242" y="348" type="curve"/>
      <point x="235" y="334" type="line" smooth="yes"/>
      <point x="233.667" y="330.667"/>
      <point x="232" y="327"/>
      <point x="230" y="323" type="curve" smooth="yes"/>
      <point x="227.333" y="317"/>
      <point x="225.667" y="310.667"/>
      <point x="225" y="304" type="curve" smooth="yes"/>
      <point x="223.667" y="299.333"/>
      <point x="223" y="294"/>
      <point x="223" y="288" type="curve"/>
      <point x="222" y="286" type="line"/>
      <point x="222" y="279" type="line"/>
      <point x="221" y="277" type="line"/>
    </contour>
  </outline>
</glyph>
<glyph name="uni061F" format="2">
  <advance width="853"/>
  <unicode hex="061F"/>
  <outline>
    <contour>
      <point x="363" y="615" type="curve" smooth="yes"/>
      <point x="362.818" y="615"/>
      <point x="350.879" y="615.06"/>
      <point x="345" y="618" type="curve"/>
      <point x="340.333" y="618"/>
      <point x="335.333" y="618.667"/>
      <point x="330" y="620" type="curve" smooth="yes"/>
      <point x="314" y="624" type="line"/>
      <point x="300" y="629" type="line" smooth="yes"/>
      <point x="295.333" y="629.667"/>
      <point x="290.667" y="631.667"/>
      <point x="286" y="635" type="curve"/>
      <point x="271" y="640" type="line"/>
      <point x="259" y="646" type="line" smooth="yes"/>
      <point x="255" y="647.333"/>
      <point x="250.667" y="649.667"/>
      <point x="246" y="653" type="curve" smooth="yes"/>
      <point x="242.667" y="655"/>
      <point x="238.333" y="657.333"/>
      <point x="233" y="660" type="curve" smooth="yes"/>
      <point x="229.667" y="662.667"/>
      <point x="226" y="665"/>
      <point x="222" y="667" type="curve" smooth="yes"/>
      <point x="220.365" y="668.635"/>
      <point x="198.175" y="683.825"/>
      <point x="189" y="693" type="curve" smooth="yes"/>
      <point x="186.333" y="695.667"/>
      <point x="183.333" y="698"/>
      <point x="180" y="700" type="curve"/>
      <point x="179" y="702" type="line"/>
      <point x="169" y="712" type="line" smooth="yes"/>
      <point x="165.667" y="714"/>
      <point x="163.333" y="716.667"/>
      <point x="162" y="720" type="curve"/>
      <point x="153.667" y="728.333"/>
      <point x="153.667" y="728.333"/>
      <point x="151" y="733" type="curve"/>
      <point x="148.333" y="735"/>
      <point x="146.333" y="737.667"/>
      <point x="145" y="741" type="curve" smooth="yes"/>
      <point x="144" y="742"/>
      <point x="144" y="742"/>
      <point x="129" y="762" type="curve"/>
      <point x="120" y="778" type="line" smooth="yes"/>
      <point x="118" y="780.667"/>
      <point x="116" y="784.667"/>
      <point x="114" y="790" type="curve" smooth="yes"/>
      <point x="107" y="804" type="line"/>
      <point x="91" y="844"/>
      <point x="91" y="844"/>
      <point x="87" y="862" type="curve" smooth="yes"/>
      <point x="83" y="877" type="line"/>
      <point x="80" y="895" type="line" smooth="yes"/>
      <point x="79.3333" y="899.667"/>
      <point x="78.6667" y="905.333"/>
      <point x="78" y="912" type="curve" smooth="yes"/>
      <point x="77.3333" y="916.667"/>
      <point x="76.6667" y="922.333"/>
      <point x="76" y="929" type="curve" smooth="yes"/>
      <point x="76" y="981" type="line"/>
      <point x="81" y="1002" type="line" smooth="yes"/>
      <point x="81.6667" y="1006.67"/>
      <point x="83" y="1011.67"/>
      <point x="85" y="1017" type="curve" smooth="yes"/>
      <point x="89" y="1034" type="line"/>
      <point x="98" y="1062" type="line" smooth="yes"/>
      <point x="99.3333" y="1065.33"/>
      <point x="100.667" y="1069"/>
      <point x="102" y="1073" type="curve"/>
      <point x="104" y="1075" type="line"/>
      <point x="109" y="1090"/>
      <point x="109" y="1090"/>
      <point x="109" y="1090" type="curve" smooth="yes"/>
      <point x="111" y="1093.33"/>
      <point x="113" y="1097.67"/>
      <point x="115" y="1103" type="curve" smooth="yes"/>
      <point x="117" y="1106.33"/>
      <point x="118.333" y="1108.67"/>
      <point x="119" y="1110" type="curve" smooth="yes"/>
      <point x="123" y="1116.67"/>
      <point x="126" y="1123"/>
      <point x="128" y="1129" type="curve" smooth="yes"/>
      <point x="130" y="1132.33"/>
      <point x="132.667" y="1136"/>
      <point x="136" y="1140" type="curve" smooth="yes"/>
      <point x="148" y="1158" type="line" smooth="yes"/>
      <point x="149.333" y="1160"/>
      <point x="150" y="1162.33"/>
      <point x="150" y="1165" type="curve" smooth="yes"/>
      <point x="150.382" y="1165.38"/>
      <point x="182.659" y="1204.99"/>
      <point x="184" y="1207" type="curve"/>
      <point x="186" y="1208" type="line"/>
      <point x="188" y="1211.33"/>
      <point x="190.667" y="1214.67"/>
      <point x="194" y="1218" type="curve" smooth="yes"/>
      <point x="196.667" y="1221.33"/>
      <point x="200" y="1224.33"/>
      <point x="204" y="1227" type="curve" smooth="yes"/>
      <point x="224" y="1247" type="line"/>
      <point x="229.569" y="1250.71"/>
      <point x="236.474" y="1258.56"/>
      <point x="246" y="1264" type="curve"/>
      <point x="248" y="1266.67"/>
      <point x="250.667" y="1268.67"/>
      <point x="254" y="1270" type="curve" smooth="yes"/>
      <point x="265.193" y="1281.19"/>
      <point x="295.837" y="1296.86"/>
      <point x="303" y="1303" type="curve"/>
      <point x="307" y="1304.33"/>
      <point x="311.333" y="1306.67"/>
      <point x="316" y="1310" type="curve" smooth="yes"/>
      <point x="321.22" y="1311.31"/>
      <point x="350.304" y="1324.84"/>
      <point x="353" y="1327" type="curve"/>
      <point x="356" y="1327" type="line"/>
      <point x="359.333" y="1329"/>
      <point x="364" y="1330.67"/>
      <point x="370" y="1332" type="curve" smooth="yes"/>
      <point x="374" y="1332.67"/>
      <point x="379" y="1334.33"/>
      <point x="385" y="1337" type="curve" smooth="yes"/>
      <point x="400" y="1342" type="line"/>
      <point x="409.563" y="1343.37"/>
      <point x="430.774" y="1351"/>
      <point x="448" y="1351" type="curve"/>
      <point x="452" y="1352.33"/>
      <point x="457.333" y="1353.33"/>
      <point x="464" y="1354" type="curve" smooth="yes"/>
      <point x="482" y="1356" type="line"/>
      <point x="541" y="1356" type="line"/>
      <point x="570" y="1353" type="line"/>
      <point x="572" y="1352" type="line"/>
      <point x="575" y="1352" type="line"/>
      <point x="605" y="1347"/>
      <point x="605" y="1347"/>
      <point x="608" y="1347" type="curve" smooth="yes"/>
      <point x="629.665" y="1340.81"/>
      <point x="671.875" y="1328.75"/>
      <point x="679" y="1324" type="curve"/>
      <point x="682" y="1324" type="line"/>
      <point x="696" y="1317" type="line" smooth="yes"/>
      <point x="700" y="1315.67"/>
      <point x="704" y="1313.33"/>
      <point x="708" y="1310" type="curve"/>
      <point x="712.667" y="1308"/>
      <point x="716.333" y="1305.33"/>
      <point x="719" y="1302" type="curve" smooth="yes"/>
      <point x="722.333" y="1299.33"/>
      <point x="725" y="1295.67"/>
      <point x="727" y="1291" type="curve" smooth="yes"/>
      <point x="729" y="1287.67"/>
      <point x="731" y="1283"/>
      <point x="733" y="1277" type="curve"/>
      <point x="733.667" y="1271.67"/>
      <point x="734" y="1265.33"/>
      <point x="734" y="1258" type="curve" smooth="yes"/>
      <point x="733.333" y="1254.67"/>
      <point x="733" y="1251.33"/>
      <point x="733" y="1248" type="curve" smooth="yes"/>
      <point x="729" y="1225" type="line" smooth="yes"/>
      <point x="727.667" y="1221"/>
      <point x="726.667" y="1216.33"/>
      <point x="726" y="1211" type="curve"/>
      <point x="720" y="1194" type="line" smooth="yes"/>
      <point x="718.667" y="1190.67"/>
      <point x="717" y="1186"/>
      <point x="715" y="1180" type="curve"/>
      <point x="709" y="1170" type="line" smooth="yes"/>
      <point x="707" y="1165.33"/>
      <point x="704.667" y="1161"/>
      <point x="702" y="1157" type="curve" smooth="yes"/>
      <point x="698.667" y="1153"/>
      <point x="695.667" y="1148.67"/>
      <point x="693" y="1144" type="curve" smooth="yes"/>
      <point x="690.333" y="1141.33"/>
      <point x="687.667" y="1138"/>
      <point x="685" y="1134" type="curve"/>
      <point x="683" y="1133" type="line"/>
      <point x="681" y="1129.67"/>
      <point x="678.333" y="1126.67"/>
      <point x="675" y="1124" type="curve" smooth="yes"/>
      <point x="669.663" y="1118.66"/>
      <point x="672.004" y="1120"/>
      <point x="665" y="1113" type="curve" smooth="yes"/>
      <point x="663" y="1111.67"/>
      <point x="661" y="1110"/>
      <point x="659" y="1108" type="curve" smooth="yes"/>
      <point x="650" y="1101" type="line"/>
      <point x="645.556" y="1114.33"/>
      <point x="645" y="1116"/>
      <point x="640" y="1122" type="curve"/>
      <point x="638.667" y="1126"/>
      <point x="636.667" y="1130"/>
      <point x="634" y="1134" type="curve" smooth="yes"/>
      <point x="629.275" y="1138.73"/>
      <point x="628.725" y="1140.27"/>
      <point x="624" y="1145" type="curve" smooth="yes"/>
      <point x="616" y="1153" type="line"/>
      <point x="603" y="1162" type="line" smooth="yes"/>
      <point x="599.667" y="1164"/>
      <point x="596.333" y="1166.33"/>
      <point x="593" y="1169" type="curve"/>
      <point x="578" y="1175" type="line" smooth="yes"/>
      <point x="577.562" y="1175.18"/>
      <point x="547.088" y="1187.24"/>
      <point x="533" y="1189" type="curve"/>
      <point x="528.333" y="1191"/>
      <point x="522.667" y="1191.67"/>
      <point x="516" y="1191" type="curve"/>
      <point x="511.333" y="1192.33"/>
      <point x="505.667" y="1193"/>
      <point x="499" y="1193" type="curve" smooth="yes"/>
      <point x="482" y="1195" type="line"/>
      <point x="448" y="1195" type="line"/>
      <point x="425" y="1193" type="line" smooth="yes"/>
      <point x="420.333" y="1192.33"/>
      <point x="414.667" y="1191.67"/>
      <point x="408" y="1191" type="curve" smooth="yes"/>
      <point x="391" y="1189" type="line" smooth="yes"/>
      <point x="386.333" y="1188.33"/>
      <point x="381" y="1187.33"/>
      <point x="375" y="1186" type="curve" smooth="yes"/>
      <point x="359" y="1182" type="line" smooth="yes"/>
      <point x="354.333" y="1181.33"/>
      <point x="349.333" y="1180"/>
      <point x="344" y="1178" type="curve" smooth="yes"/>
      <point x="340" y="1177.33"/>
      <point x="335.667" y="1176"/>
      <point x="331" y="1174" type="curve"/>
      <point x="328" y="1174" type="line" smooth="yes"/>
      <point x="324" y="1173.33"/>
      <point x="320" y="1172"/>
      <point x="316" y="1170" type="curve"/>
      <point x="313" y="1170" type="line"/>
      <point x="306.303" y="1168.33"/>
      <point x="312.436" y="1168.97"/>
      <point x="300" y="1164" type="curve" smooth="yes"/>
      <point x="291.727" y="1162.62"/>
      <point x="289.185" y="1159.69"/>
      <point x="274" y="1154" type="curve"/>
      <point x="259" y="1147" type="line" smooth="yes"/>
      <point x="255" y="1145.67"/>
      <point x="250.667" y="1143.33"/>
      <point x="246" y="1140" type="curve" smooth="yes"/>
      <point x="233" y="1133" type="line" smooth="yes"/>
      <point x="229.667" y="1131"/>
      <point x="226" y="1128.67"/>
      <point x="222" y="1126" type="curve" smooth="yes"/>
      <point x="218" y="1124"/>
      <point x="214" y="1121.33"/>
      <point x="210" y="1118" type="curve"/>
      <point x="206.667" y="1116.67"/>
      <point x="203.667" y="1114.33"/>
      <point x="201" y="1111" type="curve" smooth="yes"/>
      <point x="189" y="1101" type="line"/>
      <point x="181" y="1093" type="line"/>
      <point x="180" y="1091" type="line"/>
      <point x="177.063" y="1088.06"/>
      <point x="167.5" y="1078.5"/>
      <point x="164" y="1068" type="curve"/>
      <point x="161.333" y="1064.67"/>
      <point x="159" y="1060.33"/>
      <point x="157" y="1055" type="curve"/>
      <point x="154.333" y="1051"/>
      <point x="152.667" y="1046.33"/>
      <point x="152" y="1041" type="curve"/>
      <point x="150" y="1036.33"/>
      <point x="149" y="1030.67"/>
      <point x="149" y="1024" type="curve" smooth="yes"/>
      <point x="148.333" y="1022"/>
      <point x="148" y="1019.33"/>
      <point x="148" y="1016" type="curve" smooth="yes"/>
      <point x="148" y="1006" type="line" smooth="yes"/>
      <point x="148" y="1001.33"/>
      <point x="149" y="996"/>
      <point x="151" y="990" type="curve" smooth="yes"/>
      <point x="151.667" y="985.333"/>
      <point x="153" y="980"/>
      <point x="155" y="974" type="curve" smooth="yes"/>
      <point x="155.667" y="970"/>
      <point x="157.667" y="965.333"/>
      <point x="161" y="960" type="curve"/>
      <point x="163.258" y="952.096"/>
      <point x="175.629" y="930.371"/>
      <point x="181" y="925" type="curve"/>
      <point x="189" y="912" type="line" smooth="yes"/>
      <point x="191.667" y="908"/>
      <point x="195" y="904.333"/>
      <point x="199" y="901" type="curve"/>
      <point x="201" y="897.667"/>
      <point x="203.667" y="894.333"/>
      <point x="207" y="891" type="curve" smooth="yes"/>
      <point x="209.987" y="887.017"/>
      <point x="213.18" y="883.82"/>
      <point x="217" y="880" type="curve" smooth="yes"/>
      <point x="226" y="871" type="line" smooth="yes"/>
      <point x="228.667" y="869"/>
      <point x="232" y="866.333"/>
      <point x="236" y="863" type="curve"/>
      <point x="237" y="861" type="line"/>
      <point x="240.333" y="859"/>
      <point x="243.667" y="856.333"/>
      <point x="247" y="853" type="curve" smooth="yes"/>
      <point x="250.333" y="850.333"/>
      <point x="253.667" y="848"/>
      <point x="257" y="846" type="curve" smooth="yes"/>
      <point x="261" y="843.333"/>
      <point x="264.333" y="840.667"/>
      <point x="267" y="838" type="curve"/>
      <point x="275.5" y="833.75"/>
      <point x="275.5" y="833.75"/>
      <point x="280" y="830" type="curve"/>
      <point x="294" y="822" type="line"/>
      <point x="306" y="816" type="line" smooth="yes"/>
      <point x="310" y="814"/>
      <point x="315" y="812"/>
      <point x="321" y="810" type="curve"/>
      <point x="334" y="803" type="line" smooth="yes"/>
      <point x="338" y="801.667"/>
      <point x="340.667" y="800.667"/>
      <point x="342" y="800" type="curve" smooth="yes"/>
      <point x="348.667" y="797.333"/>
      <point x="355.667" y="795"/>
      <point x="363" y="793" type="curve" smooth="yes"/>
      <point x="367" y="792.333"/>
      <point x="372" y="791.333"/>
      <point x="378" y="790" type="curve" smooth="yes"/>
      <point x="393" y="786" type="line" smooth="yes"/>
      <point x="397.667" y="785.333"/>
      <point x="403" y="784.333"/>
      <point x="409" y="783" type="curve" smooth="yes"/>
      <point x="424" y="781" type="line"/>
      <point x="427" y="781" type="line"/>
      <point x="444" y="779" type="line"/>
      <point x="483" y="779" type="line"/>
      <point x="502" y="780" type="line"/>
      <point x="517" y="782" type="line"/>
      <point x="520" y="782" type="line" smooth="yes"/>
      <point x="525.427" y="782.775"/>
      <point x="543.757" y="786"/>
      <point x="544" y="786" type="curve" smooth="yes"/>
      <point x="554" y="788"/>
      <point x="562" y="790"/>
      <point x="568" y="792" type="curve" smooth="yes"/>
      <point x="572.667" y="792.667"/>
      <point x="577.667" y="794"/>
      <point x="583" y="796" type="curve" smooth="yes"/>
      <point x="613" y="805" type="line" smooth="yes"/>
      <point x="617" y="806.333"/>
      <point x="621.333" y="808.333"/>
      <point x="626" y="811" type="curve"/>
      <point x="630" y="811.667"/>
      <point x="634.333" y="813.333"/>
      <point x="639" y="816" type="curve" smooth="yes"/>
      <point x="643" y="818"/>
      <point x="647.333" y="819.333"/>
      <point x="652" y="820" type="curve" smooth="yes"/>
      <point x="652.152" y="820.076"/>
      <point x="646.848" y="817.924"/>
      <point x="667" y="828" type="curve" smooth="yes"/>
      <point x="671" y="829.333"/>
      <point x="675" y="831.667"/>
      <point x="679" y="835" type="curve"/>
      <point x="683" y="836.333"/>
      <point x="687.667" y="838.333"/>
      <point x="693" y="841" type="curve"/>
      <point x="693.667" y="839"/>
      <point x="694" y="836"/>
      <point x="694" y="832" type="curve" smooth="yes"/>
      <point x="693" y="827" type="line"/>
      <point x="693" y="810" type="line"/>
      <point x="692" y="808" type="line"/>
      <point x="692" y="731" type="line"/>
      <point x="693" y="729" type="line"/>
      <point x="693" y="712" type="line"/>
      <point x="694" y="710" type="line"/>
      <point x="694" y="697" type="line"/>
      <point x="697" y="674" type="line" smooth="yes"/>
      <point x="697" y="668.473"/>
      <point x="697.312" y="660.376"/>
      <point x="699" y="657" type="curve"/>
      <point x="699" y="646" type="line"/>
      <point x="703" y="623" type="line" smooth="yes"/>
      <point x="703.4" y="620.2"/>
      <point x="703.4" y="620.2"/>
      <point x="717" y="559" type="curve"/>
      <point x="721" y="544" type="line" smooth="yes"/>
      <point x="721" y="543.725"/>
      <point x="725.437" y="524.845"/>
      <point x="730" y="518" type="curve"/>
      <point x="730" y="515" type="line" smooth="yes"/>
      <point x="730.667" y="511.667"/>
      <point x="732.333" y="507.667"/>
      <point x="735" y="503" type="curve"/>
      <point x="740" y="486" type="line" smooth="yes"/>
      <point x="741.333" y="483.333"/>
      <point x="742.333" y="480.667"/>
      <point x="743" y="478" type="curve"/>
      <point x="735.308" y="468.385"/>
      <point x="735.308" y="468.385"/>
      <point x="733" y="463" type="curve"/>
      <point x="731" y="462" type="line"/>
      <point x="729.667" y="458.667"/>
      <point x="727.333" y="455"/>
      <point x="724" y="451" type="curve" smooth="yes"/>
      <point x="708" y="427" type="line" smooth="yes"/>
      <point x="705.333" y="423.667"/>
      <point x="702.667" y="419.667"/>
      <point x="700" y="415" type="curve" smooth="yes"/>
      <point x="697.333" y="412.333"/>
      <point x="694.667" y="408.667"/>
      <point x="692" y="404" type="curve" smooth="yes"/>
      <point x="690.667" y="400.667"/>
      <point x="688.333" y="397"/>
      <point x="685" y="393" type="curve" smooth="yes"/>
      <point x="677" y="381" type="line" smooth="yes"/>
      <point x="674.256" y="378.256"/>
      <point x="641.033" y="330.076"/>
      <point x="638" y="323" type="curve"/>
      <point x="634.667" y="326.333"/>
      <point x="632" y="330.333"/>
      <point x="630" y="335" type="curve" smooth="yes"/>
      <point x="628" y="338.333"/>
      <point x="626" y="342.333"/>
      <point x="624" y="347" type="curve" smooth="yes"/>
      <point x="622.667" y="351"/>
      <point x="621.333" y="355.667"/>
      <point x="620" y="361" type="curve" smooth="yes"/>
      <point x="614" y="377" type="line" smooth="yes"/>
      <point x="613.333" y="381"/>
      <point x="611.667" y="385"/>
      <point x="609" y="389" type="curve"/>
      <point x="609" y="392" type="line"/>
      <point x="606" y="399" type="line"/>
      <point x="597" y="438" type="line" smooth="yes"/>
      <point x="595.667" y="442.667"/>
      <point x="594.667" y="448"/>
      <point x="594" y="454" type="curve" smooth="yes"/>
      <point x="592.667" y="458.667"/>
      <point x="591.667" y="464"/>
      <point x="591" y="470" type="curve" smooth="yes"/>
      <point x="589.667" y="474"/>
      <point x="588.667" y="479.333"/>
      <point x="588" y="486" type="curve" smooth="yes"/>
      <point x="585" y="503" type="line"/>
      <point x="584" y="519" type="line"/>
      <point x="583" y="521" type="line"/>
      <point x="582" y="536" type="line"/>
      <point x="582" y="539" type="line"/>
      <point x="581" y="554" type="line"/>
      <point x="581" y="585" type="line"/>
      <point x="579" y="592" type="line"/>
      <point x="579" y="647" type="line"/>
      <point x="569" y="643" type="line" smooth="yes"/>
      <point x="566.333" y="642.333"/>
      <point x="563.667" y="641.333"/>
      <point x="561" y="640" type="curve" smooth="yes"/>
      <point x="547" y="636" type="line" smooth="yes"/>
      <point x="543.667" y="635.333"/>
      <point x="540" y="633.667"/>
      <point x="536" y="631" type="curve"/>
      <point x="533" y="631" type="line"/>
      <point x="507.333" y="622.444"/>
      <point x="502" y="620.667"/>
      <point x="487" y="619" type="curve" smooth="yes"/>
      <point x="482.333" y="619"/>
      <point x="477" y="618"/>
      <point x="471" y="616" type="curve"/>
      <point x="456" y="614" type="line"/>
      <point x="453" y="614" type="line" smooth="yes"/>
      <point x="448.333" y="614"/>
      <point x="442.667" y="613.333"/>
      <point x="436" y="612" type="curve"/>
      <point x="398" y="612" type="line"/>
      <point x="381" y="613" type="line" smooth="yes"/>
      <point x="376.333" y="613"/>
      <point x="370.333" y="613.667"/>
    </contour>
    <contour>
      <point x="801" y="121" type="curve"/>
      <point x="797.815" y="114.631"/>
      <point x="753" y="58.792"/>
      <point x="753" y="58" type="curve" smooth="yes"/>
      <point x="733.225" y="35.4004"/>
      <point x="737.964" y="36.3709"/>
      <point x="730" y="30" type="curve"/>
      <point x="728.667" y="27.3333"/>
      <point x="726.333" y="24.3333"/>
      <point x="723" y="21" type="curve"/>
      <point x="718" y="12" type="line" smooth="yes"/>
      <point x="716.667" y="10"/>
      <point x="714.333" y="7.66667"/>
      <point x="711" y="5" type="curve"/>
      <point x="708" y="0" type="line"/>
      <point x="698.443" y="5.73427"/>
      <point x="698.385" y="5.76923"/>
      <point x="695" y="10" type="curve"/>
      <point x="676.738" y="19.131"/>
      <point x="686.676" y="18.3943"/>
      <point x="669" y="29" type="curve"/>
      <point x="667" y="31.6667"/>
      <point x="664.333" y="33.6667"/>
      <point x="661" y="35" type="curve" smooth="yes"/>
      <point x="658.333" y="37"/>
      <point x="655.667" y="39.3333"/>
      <point x="653" y="42" type="curve" smooth="yes"/>
      <point x="650.333" y="44"/>
      <point x="647.667" y="46.3333"/>
      <point x="645" y="49" type="curve" smooth="yes"/>
      <point x="642.333" y="50.3333"/>
      <point x="639.667" y="52.3333"/>
      <point x="637" y="55" type="curve" smooth="yes"/>
      <point x="634.333" y="56.3333"/>
      <point x="631.333" y="58.6667"/>
      <point x="628" y="62" type="curve" smooth="yes"/>
      <point x="625.333" y="63.3333"/>
      <point x="622.667" y="65.6667"/>
      <point x="620" y="69" type="curve"/>
      <point x="611" y="74" type="line"/>
      <point x="609.667" y="76"/>
      <point x="607.667" y="77.6667"/>
      <point x="605" y="79" type="curve" smooth="yes"/>
      <point x="597" y="87" type="line"/>
      <point x="587.521" y="91.7396"/>
      <point x="564.293" y="111.707"/>
      <point x="564" y="112" type="curve"/>
      <point x="567" y="114" type="line"/>
      <point x="569.076" y="118.152"/>
      <point x="576.881" y="126.91"/>
      <point x="581" y="130" type="curve"/>
      <point x="587.682" y="143.364"/>
      <point x="601.332" y="152.33"/>
      <point x="606" y="164" type="curve"/>
      <point x="614" y="171" type="line"/>
      <point x="620.652" y="184.304"/>
      <point x="631.585" y="190.975"/>
      <point x="640" y="205" type="curve"/>
      <point x="647" y="212" type="line"/>
      <point x="653" y="221" type="line"/>
      <point x="655.667" y="223"/>
      <point x="658" y="225.333"/>
      <point x="660" y="228" type="curve" smooth="yes"/>
      <point x="662" y="230"/>
      <point x="664" y="233"/>
      <point x="666" y="237" type="curve"/>
      <point x="669.333" y="235.667"/>
      <point x="672.333" y="233.333"/>
      <point x="675" y="230" type="curve"/>
      <point x="677.667" y="228.667"/>
      <point x="680.333" y="226.667"/>
      <point x="683" y="224" type="curve" smooth="yes"/>
      <point x="685" y="222.667"/>
      <point x="687.667" y="220.333"/>
      <point x="691" y="217" type="curve" smooth="yes"/>
      <point x="699" y="210" type="line" smooth="yes"/>
      <point x="701" y="208"/>
      <point x="703.667" y="206"/>
      <point x="707" y="204" type="curve"/>
      <point x="709" y="201.333"/>
      <point x="712" y="199"/>
      <point x="716" y="197" type="curve" smooth="yes"/>
      <point x="718" y="195"/>
      <point x="720.333" y="192.333"/>
      <point x="723" y="189" type="curve"/>
      <point x="738.989" y="177.008"/>
      <point x="743.047" y="172.953"/>
      <point x="747" y="169" type="curve"/>
      <point x="756" y="163" type="line"/>
      <point x="768" y="151"/>
      <point x="768" y="151"/>
      <point x="772" y="149" type="curve"/>
      <point x="788.998" y="132.002"/>
      <point x="789.373" y="134.627"/>
      <point x="796" y="128" type="curve"/>
      <point x="799.333" y="126.667"/>
      <point x="801" y="124.333"/>
    </contour>
  </outline>
</glyph>
<glyph name="uni0621" format="2">
  <advance width="541"/>
  <unicode hex="0621"/>
  <anchor x="186" y="785" name="t.uni064B"/>
  <anchor x="314" y="-257" name="b.uni064D_1"/>
  <outline>
    <contour>
      <point x="158" y="-90" type="line" smooth="yes"/>
      <point x="156.42" y="-90"/>
      <point x="151.348" y="-94.6519"/>
      <point x="150" y="-96" type="curve" smooth="yes"/>
      <point x="148.667" y="-96"/>
      <point x="148" y="-96.6667"/>
      <point x="148" y="-98" type="curve"/>
      <point x="144" y="-100" type="line"/>
      <point x="139" y="-105" type="line"/>
      <point x="135.667" y="-106.333"/>
      <point x="132.667" y="-108.333"/>
      <point x="130" y="-111" type="curve" smooth="yes"/>
      <point x="120" y="-119" type="line" smooth="yes"/>
      <point x="118.667" y="-119.667"/>
      <point x="117.333" y="-121"/>
      <point x="116" y="-123" type="curve"/>
      <point x="109.333" y="-126.333"/>
      <point x="102.667" y="-131.667"/>
      <point x="96" y="-139" type="curve"/>
      <point x="93" y="-140" type="line"/>
      <point x="86" y="-148" type="line"/>
      <point x="83" y="-148" type="line"/>
      <point x="75" y="-156" type="line"/>
      <point x="71" y="-158" type="line"/>
      <point x="69" y="-161" type="line"/>
      <point x="44" y="-182" type="line"/>
      <point x="43" y="-184" type="line"/>
      <point x="35" y="-190.667"/>
      <point x="25" y="-194.667"/>
      <point x="13" y="-196" type="curve"/>
      <point x="11.6667" y="-192.667"/>
      <point x="11" y="-188.667"/>
      <point x="11" y="-184" type="curve"/>
      <point x="12.3333" y="-181.333"/>
      <point x="14" y="-177.333"/>
      <point x="16" y="-172" type="curve"/>
      <point x="19" y="-169" type="line" smooth="yes"/>
      <point x="20.3333" y="-166.333"/>
      <point x="22" y="-163.333"/>
      <point x="24" y="-160" type="curve" smooth="yes"/>
      <point x="30" y="-148" type="line" smooth="yes"/>
      <point x="35.4004" y="-137.199"/>
      <point x="33.933" y="-143.134"/>
      <point x="41" y="-129" type="curve"/>
      <point x="56" y="-107" type="line" smooth="yes"/>
      <point x="58" y="-104.333"/>
      <point x="60" y="-101"/>
      <point x="62" y="-97" type="curve"/>
      <point x="64" y="-96" type="line"/>
      <point x="65" y="-93" type="line"/>
      <point x="78" y="-76" type="line" smooth="yes"/>
      <point x="80" y="-74"/>
      <point x="82" y="-71.6667"/>
      <point x="84" y="-69" type="curve"/>
      <point x="86" y="-68" type="line"/>
      <point x="89" y="-63" type="line"/>
      <point x="92.3333" y="-60.3333"/>
      <point x="95" y="-57"/>
      <point x="97" y="-53" type="curve"/>
      <point x="109" y="-41" type="line"/>
      <point x="111" y="-37" type="line"/>
      <point x="115.667" y="-33.6667"/>
      <point x="120.333" y="-29.3333"/>
      <point x="125" y="-24" type="curve"/>
      <point x="127.667" y="-22.6667"/>
      <point x="130" y="-20.6667"/>
      <point x="132" y="-18" type="curve" smooth="yes"/>
      <point x="140" y="-10" type="line"/>
      <point x="143" y="-9" type="line"/>
      <point x="156" y="4" type="line"/>
      <point x="162" y="6.66667"/>
      <point x="167.667" y="11"/>
      <point x="173" y="17" type="curve"/>
      <point x="184.421" y="23.5263"/>
      <point x="184.421" y="23.5263"/>
      <point x="188" y="28" type="curve"/>
      <point x="189.333" y="28"/>
      <point x="190.333" y="28.6667"/>
      <point x="191" y="30" type="curve" smooth="yes"/>
      <point x="194.333" y="31.3333"/>
      <point x="198.333" y="33.3333"/>
      <point x="203" y="36" type="curve"/>
      <point x="124.087" y="80.9565"/>
      <point x="84.6304" y="139.637"/>
      <point x="84.6304" y="212.042" type="curve" smooth="yes"/>
      <point x="84.6304" y="240.565"/>
      <point x="90.7536" y="271.217"/>
      <point x="103" y="304" type="curve" smooth="yes"/>
      <point x="103.667" y="308"/>
      <point x="105.333" y="312.667"/>
      <point x="108" y="318" type="curve" smooth="yes"/>
      <point x="113" y="327" type="line"/>
      <point x="116" y="335" type="line"/>
      <point x="122" y="346" type="line"/>
      <point x="126" y="351" type="line"/>
      <point x="157.333" y="437.667"/>
      <point x="222" y="490.333"/>
      <point x="320" y="509" type="curve"/>
      <point x="356" y="509" type="line" smooth="yes"/>
      <point x="358.667" y="508.333"/>
      <point x="361.667" y="508"/>
      <point x="365" y="508" type="curve"/>
      <point x="368" y="507" type="line"/>
      <point x="372" y="507" type="line"/>
      <point x="425.375" y="492.035"/>
      <point x="452.063" y="461.207"/>
      <point x="452.063" y="414.515" type="curve" smooth="yes"/>
      <point x="452.063" y="398.806"/>
      <point x="449.042" y="381.301"/>
      <point x="443" y="362" type="curve"/>
      <point x="425.735" y="370.633"/>
      <point x="388.51" y="376.745"/>
      <point x="388" y="377" type="curve" smooth="yes"/>
      <point x="384" y="377" type="line"/>
      <point x="381.839" y="378.081"/>
      <point x="381.396" y="378.302"/>
      <point x="368.409" y="378.302" type="curve" smooth="yes"/>
      <point x="291.604" y="378.302"/>
      <point x="244.301" y="354.65"/>
      <point x="185" y="325" type="curve"/>
      <point x="182" y="325" type="line"/>
      <point x="181" y="323" type="line"/>
      <point x="175" y="321.667"/>
      <point x="169.333" y="318.333"/>
      <point x="164" y="313" type="curve"/>
      <point x="157.303" y="311.326"/>
      <point x="163.436" y="311.974"/>
      <point x="151" y="307" type="curve"/>
      <point x="153.667" y="300.333"/>
      <point x="158.333" y="294"/>
      <point x="165" y="288" type="curve"/>
      <point x="168" y="282" type="line"/>
      <point x="180.95" y="269.05"/>
      <point x="174.717" y="273.283"/>
      <point x="182" y="266" type="curve"/>
      <point x="186.667" y="259.333"/>
      <point x="193.333" y="252.667"/>
      <point x="202" y="246" type="curve"/>
      <point x="210" y="236" type="line" smooth="yes"/>
      <point x="212" y="234"/>
      <point x="214.667" y="232"/>
      <point x="218" y="230" type="curve"/>
      <point x="220" y="227" type="line"/>
      <point x="226" y="224" type="line"/>
      <point x="230.667" y="218"/>
      <point x="236.667" y="212.667"/>
      <point x="244" y="208" type="curve"/>
      <point x="247.333" y="204"/>
      <point x="251.667" y="200.667"/>
      <point x="257" y="198" type="curve"/>
      <point x="260.333" y="194"/>
      <point x="265" y="190.333"/>
      <point x="271" y="187" type="curve"/>
      <point x="274.333" y="183"/>
      <point x="279" y="180"/>
      <point x="285" y="178" type="curve"/>
      <point x="297" y="169" type="line"/>
      <point x="300" y="168" type="line"/>
      <point x="304" y="164.667"/>
      <point x="308.667" y="161.667"/>
      <point x="314" y="159" type="curve" smooth="yes"/>
      <point x="316.667" y="157"/>
      <point x="320" y="155.333"/>
      <point x="324" y="154" type="curve"/>
      <point x="333" y="148" type="line" smooth="yes"/>
      <point x="337.667" y="145.333"/>
      <point x="342.667" y="143"/>
      <point x="348" y="141" type="curve"/>
      <point x="384" y="163" type="line" smooth="yes"/>
      <point x="386" y="164.333"/>
      <point x="388.667" y="165.667"/>
      <point x="392" y="167" type="curve" smooth="yes"/>
      <point x="401" y="172" type="line" smooth="yes"/>
      <point x="401.667" y="172"/>
      <point x="402.333" y="172.667"/>
      <point x="403" y="174" type="curve" smooth="yes"/>
      <point x="420" y="183" type="line" smooth="yes"/>
      <point x="423.333" y="184.333"/>
      <point x="426" y="186"/>
      <point x="428" y="188" type="curve" smooth="yes"/>
      <point x="428.667" y="188"/>
      <point x="429.333" y="188.333"/>
      <point x="430" y="189" type="curve" smooth="yes"/>
      <point x="430.667" y="189"/>
      <point x="431.333" y="189.333"/>
      <point x="432" y="190" type="curve" smooth="yes"/>
      <point x="447" y="198" type="line" smooth="yes"/>
      <point x="450.333" y="199.333"/>
      <point x="454" y="201.667"/>
      <point x="458" y="205" type="curve"/>
      <point x="483" y="217" type="line"/>
      <point x="485" y="219" type="line"/>
      <point x="487.667" y="219.667"/>
      <point x="490" y="220.667"/>
      <point x="492" y="222" type="curve" smooth="yes"/>
      <point x="494.667" y="222.667"/>
      <point x="497.333" y="224"/>
      <point x="500" y="226" type="curve"/>
      <point x="505" y="227" type="line"/>
      <point x="520" y="235" type="line"/>
      <point x="526" y="236.333"/>
      <point x="532" y="239.333"/>
      <point x="538" y="244" type="curve"/>
      <point x="540.667" y="244"/>
      <point x="543.333" y="245"/>
      <point x="546" y="247" type="curve" smooth="yes"/>
      <point x="546.667" y="247"/>
      <point x="547.667" y="247.333"/>
      <point x="549" y="248" type="curve" smooth="yes"/>
      <point x="560" y="252" type="line"/>
      <point x="569" y="257" type="line" smooth="yes"/>
      <point x="569.5" y="257"/>
      <point x="569.5" y="257"/>
      <point x="583" y="263" type="curve"/>
      <point x="589.667" y="264.333"/>
      <point x="597" y="266.667"/>
      <point x="605" y="270" type="curve" smooth="yes"/>
      <point x="606.333" y="270"/>
      <point x="607.333" y="269.667"/>
      <point x="608" y="269" type="curve" smooth="yes"/>
      <point x="591" y="237" type="line"/>
      <point x="589" y="235" type="line"/>
      <point x="588" y="231" type="line"/>
      <point x="584" y="227"/>
      <point x="581.333" y="222"/>
      <point x="580" y="216" type="curve"/>
      <point x="578" y="215" type="line"/>
      <point x="574" y="207" type="line"/>
      <point x="571.333" y="204.333"/>
      <point x="569.333" y="201"/>
      <point x="568" y="197" type="curve" smooth="yes"/>
      <point x="567.329" y="197"/>
      <point x="553.984" y="175.968"/>
      <point x="551" y="170" type="curve"/>
      <point x="547" y="166" type="line"/>
      <point x="539" y="153" type="line"/>
      <point x="527" y="137" type="line" smooth="yes"/>
      <point x="523" y="133"/>
      <point x="521" y="129"/>
      <point x="519" y="125" type="curve"/>
      <point x="497" y="116" type="line"/>
      <point x="495" y="114" type="line" smooth="yes"/>
      <point x="494.333" y="114"/>
      <point x="493.333" y="113.667"/>
      <point x="492" y="113" type="curve" smooth="yes"/>
      <point x="467" y="103" type="line"/>
      <point x="454" y="95" type="line"/>
      <point x="450" y="94.3333"/>
      <point x="446" y="92.3333"/>
      <point x="442" y="89" type="curve"/>
      <point x="437.333" y="87.6667"/>
      <point x="432.667" y="85.6667"/>
      <point x="428" y="83" type="curve" smooth="yes"/>
      <point x="416" y="76" type="line"/>
      <point x="402.003" y="71.3342"/>
      <point x="405.997" y="69.6658"/>
      <point x="392" y="65" type="curve"/>
      <point x="384.122" y="59.0915"/>
      <point x="385.285" y="61.2854"/>
      <point x="381" y="57" type="curve"/>
      <point x="377" y="55.6667"/>
      <point x="372.333" y="53.3333"/>
      <point x="367" y="50" type="curve" smooth="yes"/>
      <point x="355" y="43" type="line"/>
      <point x="350.333" y="41.6667"/>
      <point x="346.333" y="39"/>
      <point x="343" y="35" type="curve"/>
      <point x="327" y="27" type="line" smooth="yes"/>
      <point x="326.9" y="27"/>
      <point x="321.541" y="23.5413"/>
      <point x="319" y="21" type="curve" smooth="yes"/>
      <point x="317.667" y="21"/>
      <point x="316.667" y="20.3333"/>
      <point x="316" y="19" type="curve" smooth="yes"/>
      <point x="305" y="12" type="line"/>
      <point x="285" y="0" type="line" smooth="yes"/>
      <point x="283" y="-1.33333"/>
      <point x="281" y="-3"/>
      <point x="279" y="-5" type="curve"/>
      <point x="274.333" y="-6.33333"/>
      <point x="270" y="-9"/>
      <point x="266" y="-13" type="curve"/>
      <point x="262.846" y="-14.3519"/>
      <point x="254.673" y="-18.3269"/>
      <point x="247" y="-26" type="curve"/>
      <point x="227" y="-38" type="line"/>
      <point x="226" y="-40" type="line" smooth="yes"/>
      <point x="225.333" y="-40"/>
      <point x="224.667" y="-40.6667"/>
      <point x="224" y="-42" type="curve"/>
      <point x="221" y="-43" type="line"/>
      <point x="219" y="-45"/>
      <point x="215.667" y="-47"/>
      <point x="211" y="-49" type="curve"/>
      <point x="209" y="-52" type="line"/>
      <point x="207.667" y="-52"/>
      <point x="207" y="-52.6667"/>
      <point x="207" y="-54" type="curve"/>
      <point x="204.333" y="-55.3333"/>
      <point x="201" y="-57.3333"/>
      <point x="197" y="-60" type="curve" smooth="yes"/>
      <point x="178" y="-75" type="line"/>
      <point x="174" y="-76.3333"/>
      <point x="170.333" y="-79.3333"/>
      <point x="167" y="-84" type="curve"/>
    </contour>
  </outline>
</glyph>
